<?xml version="1.0" encoding="UTF-8" standalone="no"?>
<svg
   xmlns:dc="http://purl.org/dc/elements/1.1/"
   xmlns:cc="http://creativecommons.org/ns#"
   xmlns:rdf="http://www.w3.org/1999/02/22-rdf-syntax-ns#"
   xmlns:svg="http://www.w3.org/2000/svg"
   xmlns="http://www.w3.org/2000/svg"
   id="svg16"
   version="1.1"
   height="150"
   width="150">
  <metadata
     id="metadata22">
    <rdf:RDF>
      <cc:Work
         rdf:about="">
        <dc:format>image/svg+xml</dc:format>
        <dc:type
           rdf:resource="http://purl.org/dc/dcmitype/StillImage" />
      </cc:Work>
    </rdf:RDF>
  </metadata>
  <defs
     id="defs20" />
  <!-- Created with Method Draw - http://github.com/duopixel/Method-Draw/ -->
  <g
     id="g8">
    <title
       id="title2">background</title>
    <path
       id="canvas_background"
       d="M -1,-1 H 151 V 151 H -1 Z"
       style="fill:#cccccc" />
    <g
       style="display:none;overflow:visible"
       id="canvasGrid"
       width="100%"
       height="100%"
       x="0"
       y="0"
       overflow="visible"
       display="none">
      <path
         id="rect5"
         d="M 0,0 H 150 V 150 H 0 Z"
         style="fill:url(#gridpattern);stroke-width:0" />
    </g>
  </g>
  <g
     id="g14">
    <title
       id="title10">Layer 1</title>
    <g
       id="svg_1"
       style="font-size:24px;font-family:Helvetica, Arial, sans-serif;text-anchor:start;fill:#000000;stroke:#000000;stroke-width:0"
       transform="matrix(10.785214,0,0,1,-1446.9735,0)" />
    <g
       id="svg_2"
       style="font-style:italic;font-size:15px;font-family:Helvetica, Arial, sans-serif;text-anchor:start;fill:#ff0000;stroke:#000000;stroke-width:0"
       aria-label="Error loading image!">
      <path
         id="path27"
         style="font-style:italic;font-size:15px;font-family:Helvetica, Arial, sans-serif;text-anchor:start;fill:#ff0000;stroke:#000000;stroke-width:0"
         d="M 7.8222661,80.193748 10.070801,69.456444 h 7.749024 l -0.256348,1.223144 H 11.25 l -0.703125,3.339844 h 6.152344 l -0.256347,1.223145 h -6.152344 l -0.7763674,3.735351 h 6.7602544 l -0.256348,1.21582 z" />
      <path
         id="path29"
         style="font-style:italic;font-size:15px;font-family:Helvetica, Arial, sans-serif;text-anchor:start;fill:#ff0000;stroke:#000000;stroke-width:0"
         d="m 17.666016,80.193748 1.625977,-7.77832 h 1.171875 l -0.32959,1.589356 q 0.600586,-0.900879 1.171875,-1.333008 0.578613,-0.432129 1.179199,-0.432129 0.395508,0 0.974121,0.285644 l -0.541992,1.230469 q -0.344238,-0.249023 -0.754395,-0.249023 -0.6958,0 -1.428222,0.776367 -0.732422,0.776367 -1.149903,2.790527 l -0.659179,3.120117 z" />
      <path
         id="path31"
         style="font-style:italic;font-size:15px;font-family:Helvetica, Arial, sans-serif;text-anchor:start;fill:#ff0000;stroke:#000000;stroke-width:0"
         d="m 22.675782,80.193748 1.625976,-7.77832 h 1.171875 l -0.32959,1.589356 q 0.600586,-0.900879 1.171875,-1.333008 0.578614,-0.432129 1.1792,-0.432129 0.395507,0 0.974121,0.285644 l -0.541992,1.230469 q -0.344239,-0.249023 -0.754395,-0.249023 -0.695801,0 -1.428223,0.776367 -0.732421,0.776367 -1.149902,2.790527 l -0.65918,3.120117 z" />
      <path
         id="path33"
         style="font-style:italic;font-size:15px;font-family:Helvetica, Arial, sans-serif;text-anchor:start;fill:#ff0000;stroke:#000000;stroke-width:0"
         d="m 27.919922,77.242088 q 0,-2.277832 1.340332,-3.771972 1.105957,-1.230469 2.900391,-1.230469 1.40625,0 2.263184,0.878906 0.864257,0.878906 0.864257,2.373047 0,1.340332 -0.541992,2.497559 -0.541992,1.149902 -1.54541,1.765136 -0.996094,0.615235 -2.102051,0.615235 -0.908203,0 -1.655273,-0.388184 -0.739746,-0.388183 -1.135254,-1.098633 -0.388184,-0.710449 -0.388184,-1.640625 z m 1.325684,-0.131836 q 0,1.098633 0.527344,1.669922 0.527343,0.563965 1.340332,0.563965 0.424804,0 0.842285,-0.168457 0.41748,-0.175781 0.776367,-0.527344 0.358887,-0.351562 0.60791,-0.79834 0.256348,-0.454101 0.410156,-0.974121 0.227051,-0.725097 0.227051,-1.391601 0,-1.054688 -0.534668,-1.633301 -0.527343,-0.585937 -1.333008,-0.585937 -0.622558,0 -1.135253,0.300293 -0.512696,0.292968 -0.930176,0.864257 -0.410156,0.571289 -0.60791,1.333008 -0.19043,0.754395 -0.19043,1.347656 z" />
      <path
         id="path35"
         style="font-style:italic;font-size:15px;font-family:Helvetica, Arial, sans-serif;text-anchor:start;fill:#ff0000;stroke:#000000;stroke-width:0"
         d="m 36.035157,80.193748 1.625976,-7.77832 h 1.171875 l -0.32959,1.589356 q 0.600586,-0.900879 1.171875,-1.333008 0.578614,-0.432129 1.1792,-0.432129 0.395507,0 0.974121,0.285644 l -0.541992,1.230469 q -0.344239,-0.249023 -0.754395,-0.249023 -0.695801,0 -1.428223,0.776367 -0.732421,0.776367 -1.149902,2.790527 l -0.65918,3.120117 z" />
      <path
         id="path37"
         style="font-style:italic;font-size:15px;font-family:Helvetica, Arial, sans-serif;text-anchor:start;fill:#ff0000;stroke:#000000;stroke-width:0"
         d="m 45.10254,80.193748 2.24121,-10.737304 h 1.325684 l -2.241211,10.737304 z" />
      <path
         id="path39"
         style="font-style:italic;font-size:15px;font-family:Helvetica, Arial, sans-serif;text-anchor:start;fill:#ff0000;stroke:#000000;stroke-width:0"
         d="m 48.779297,77.242088 q 0,-2.277832 1.340332,-3.771972 1.105957,-1.230469 2.900391,-1.230469 1.40625,0 2.263184,0.878906 0.864257,0.878906 0.864257,2.373047 0,1.340332 -0.541992,2.497559 -0.541992,1.149902 -1.54541,1.765136 -0.996094,0.615235 -2.102051,0.615235 -0.908203,0 -1.655273,-0.388184 -0.739746,-0.388183 -1.135254,-1.098633 -0.388184,-0.710449 -0.388184,-1.640625 z m 1.325684,-0.131836 q 0,1.098633 0.527344,1.669922 0.527343,0.563965 1.340332,0.563965 0.424804,0 0.842285,-0.168457 0.41748,-0.175781 0.776367,-0.527344 0.358887,-0.351562 0.60791,-0.79834 0.256348,-0.454101 0.410156,-0.974121 0.227051,-0.725097 0.227051,-1.391601 0,-1.054688 -0.534668,-1.633301 -0.527343,-0.585937 -1.333008,-0.585937 -0.622558,0 -1.135253,0.300293 -0.512696,0.292968 -0.930176,0.864257 -0.410156,0.571289 -0.60791,1.333008 -0.19043,0.754395 -0.19043,1.347656 z" />
      <path
         id="path41"
         style="font-style:italic;font-size:15px;font-family:Helvetica, Arial, sans-serif;text-anchor:start;fill:#ff0000;stroke:#000000;stroke-width:0"
         d="m 62.138672,79.226952 q -0.688476,0.593261 -1.325683,0.871582 -0.637207,0.270996 -1.362305,0.270996 -1.07666,0 -1.73584,-0.629883 -0.659179,-0.637207 -0.659179,-1.625977 0,-0.651855 0.292968,-1.149902 0.300293,-0.505371 0.791016,-0.805664 0.490723,-0.307617 1.201172,-0.439453 0.446777,-0.08789 1.691894,-0.13916 1.252442,-0.05127 1.794434,-0.263672 0.153809,-0.541992 0.153809,-0.900879 0,-0.461426 -0.336915,-0.725098 -0.461425,-0.366211 -1.347656,-0.366211 -0.834961,0 -1.369629,0.373535 -0.527343,0.366211 -0.769043,1.047364 l -1.340332,-0.117188 q 0.410157,-1.157226 1.296387,-1.772461 0.893555,-0.615234 2.248535,-0.615234 1.442871,0 2.285156,0.688476 0.644532,0.512696 0.644532,1.333008 0,0.622559 -0.183106,1.442871 l -0.432129,1.933594 q -0.205078,0.922852 -0.205078,1.501465 0,0.366211 0.161133,1.054687 h -1.340332 q -0.109863,-0.380859 -0.153809,-0.966796 z m 0.490723,-2.973633 q -0.27832,0.109863 -0.600586,0.168457 -0.314941,0.05859 -1.062012,0.124512 -1.157226,0.102539 -1.6333,0.263671 -0.476075,0.153809 -0.717774,0.498047 -0.241699,0.344239 -0.241699,0.761719 0,0.556641 0.380859,0.915527 0.388184,0.358887 1.098633,0.358887 0.65918,0 1.26709,-0.344238 0.60791,-0.351563 0.959473,-0.974121 0.351562,-0.622559 0.549316,-1.772461 z" />
      <path
         id="path43"
         style="font-style:italic;font-size:15px;font-family:Helvetica, Arial, sans-serif;text-anchor:start;fill:#ff0000;stroke:#000000;stroke-width:0"
         d="m 70.488282,79.065819 q -1.135254,1.303711 -2.373047,1.303711 -1.105957,0 -1.845703,-0.812989 -0.732422,-0.820312 -0.732422,-2.373046 0,-1.420899 0.578613,-2.592774 0.585938,-1.179199 1.45752,-1.765137 0.878906,-0.585937 1.757812,-0.585937 1.450195,0 2.189942,1.398926 l 0.878906,-4.182129 h 1.318359 l -2.241211,10.737304 h -1.223144 z m -3.632813,-2.131348 q 0,0.812988 0.161133,1.281738 0.161133,0.46875 0.549316,0.783692 0.388184,0.307617 0.930176,0.307617 0.900879,0 1.633301,-0.9375 0.981445,-1.245117 0.981445,-3.076172 0,-0.922851 -0.483398,-1.442871 -0.483399,-0.520019 -1.21582,-0.520019 -0.476075,0 -0.871582,0.212402 -0.388184,0.212402 -0.776368,0.725098 -0.380859,0.505371 -0.644531,1.289062 -0.263672,0.783691 -0.263672,1.376953 z" />
      <path
         id="path45"
         style="font-style:italic;font-size:15px;font-family:Helvetica, Arial, sans-serif;text-anchor:start;fill:#ff0000;stroke:#000000;stroke-width:0"
         d="m 75.476075,70.957909 0.314941,-1.501465 h 1.318359 l -0.314941,1.501465 z m -1.933594,9.235839 1.625977,-7.77832 h 1.325683 l -1.625976,7.77832 z" />
      <path
         id="path47"
         style="font-style:italic;font-size:15px;font-family:Helvetica, Arial, sans-serif;text-anchor:start;fill:#ff0000;stroke:#000000;stroke-width:0"
         d="m 76.933594,80.193748 1.625977,-7.77832 h 1.201172 l -0.285645,1.354981 q 0.783692,-0.79834 1.464844,-1.164551 0.681152,-0.366211 1.391601,-0.366211 0.944825,0 1.479493,0.512695 0.541992,0.512696 0.541992,1.369629 0,0.432129 -0.19043,1.362305 l -0.988769,4.709472 h -1.325684 l 1.032715,-4.929199 q 0.153808,-0.717773 0.153808,-1.062011 0,-0.388184 -0.270996,-0.629883 Q 82.5,73.330956 81.994629,73.330956 q -1.018066,0 -1.816406,0.732421 -0.791015,0.732422 -1.164551,2.512207 l -0.754394,3.618164 z" />
      <path
         id="path49"
         style="font-style:italic;font-size:15px;font-family:Helvetica, Arial, sans-serif;text-anchor:start;fill:#ff0000;stroke:#000000;stroke-width:0"
         d="m 85.209961,80.896873 1.340332,0.124512 q -0.01465,0.454102 0.109864,0.681153 0.124511,0.22705 0.395508,0.351562 0.358886,0.161133 0.930175,0.161133 1.201172,0 1.728516,-0.622559 0.344238,-0.41748 0.637207,-1.816406 l 0.131836,-0.629883 q -1.032715,1.047363 -2.197266,1.047363 -1.179199,0 -1.977539,-0.864257 -0.791015,-0.871582 -0.791015,-2.460938 0,-1.311035 0.622558,-2.409668 0.629883,-1.098633 1.494141,-1.655273 0.864258,-0.563965 1.779785,-0.563965 1.530762,0 2.358398,1.450195 l 0.263672,-1.274414 h 1.215821 l -1.567383,7.507324 q -0.256348,1.237793 -0.673828,1.92627 -0.417481,0.695801 -1.164551,1.07666 -0.739746,0.380859 -1.713867,0.380859 -0.9375,0 -1.618653,-0.241699 -0.673828,-0.241699 -1.010742,-0.710449 -0.32959,-0.461426 -0.32959,-1.062012 0,-0.183105 0.03662,-0.395508 z m 1.655274,-4.145507 q 0,0.79834 0.153808,1.201172 0.219727,0.563964 0.622559,0.864257 0.410156,0.292969 0.908203,0.292969 0.651856,0 1.296387,-0.454101 0.644531,-0.461426 1.040039,-1.420899 0.402832,-0.959473 0.402832,-1.831055 0,-0.959472 -0.534668,-1.523437 -0.527344,-0.571289 -1.311035,-0.571289 -0.483399,0 -0.9375,0.263672 -0.454102,0.256347 -0.84961,0.791015 -0.388183,0.527344 -0.593261,1.26709 -0.197754,0.739746 -0.197754,1.120606 z" />
      <path
         id="path51"
         style="font-style:italic;font-size:15px;font-family:Helvetica, Arial, sans-serif;text-anchor:start;fill:#ff0000;stroke:#000000;stroke-width:0"
         d="m 99.675293,70.957909 0.314942,-1.501465 h 1.318355 l -0.31494,1.501465 z m -1.933593,9.235839 1.625976,-7.77832 h 1.325684 l -1.625977,7.77832 z" />
      <path
         id="path53"
         style="font-style:italic;font-size:15px;font-family:Helvetica, Arial, sans-serif;text-anchor:start;fill:#ff0000;stroke:#000000;stroke-width:0"
         d="m 101.12549,80.193748 1.62598,-7.77832 h 1.32568 l -0.271,1.281738 q 0.73975,-0.827636 1.31836,-1.142578 0.58594,-0.314941 1.26709,-0.314941 0.7251,0 1.2085,0.388184 0.49072,0.380859 0.64453,1.069335 0.59326,-0.732421 1.24512,-1.091308 0.65918,-0.366211 1.38427,-0.366211 0.97413,0 1.45752,0.461426 0.49073,0.461425 0.49073,1.296386 0,0.358887 -0.16846,1.186524 l -1.04736,5.009765 h -1.32569 l 1.06934,-5.141601 q 0.13916,-0.629883 0.13916,-0.900879 0,-0.380859 -0.2417,-0.600586 -0.2417,-0.219726 -0.68115,-0.219726 -0.59326,0 -1.2085,0.358886 -0.61523,0.358887 -0.95947,0.944824 -0.33692,0.578614 -0.59326,1.78711 l -0.79102,3.771972 h -1.32568 l 1.09863,-5.251464 q 0.11719,-0.534668 0.11719,-0.761719 0,-0.380859 -0.2417,-0.615234 -0.23438,-0.234375 -0.61524,-0.234375 -0.56396,0 -1.18652,0.358886 -0.61523,0.358887 -1.00342,1.003418 -0.38818,0.637207 -0.6372,1.823731 l -0.76905,3.676757 z" />
      <path
         id="path55"
         style="font-style:italic;font-size:15px;font-family:Helvetica, Arial, sans-serif;text-anchor:start;fill:#ff0000;stroke:#000000;stroke-width:0"
         d="m 118.88672,79.226952 q -0.68848,0.593261 -1.32568,0.871582 -0.63721,0.270996 -1.36231,0.270996 -1.07666,0 -1.73584,-0.629883 -0.65918,-0.637207 -0.65918,-1.625977 0,-0.651855 0.29297,-1.149902 0.30029,-0.505371 0.79102,-0.805664 0.49072,-0.307617 1.20117,-0.439453 0.44678,-0.08789 1.69189,-0.13916 1.25244,-0.05127 1.79444,-0.263672 0.1538,-0.541992 0.1538,-0.900879 0,-0.461426 -0.33691,-0.725098 -0.46143,-0.366211 -1.34766,-0.366211 -0.83496,0 -1.36962,0.373535 -0.52735,0.366211 -0.76905,1.047364 l -1.34033,-0.117188 q 0.41016,-1.157226 1.29639,-1.772461 0.89355,-0.615234 2.24853,-0.615234 1.44287,0 2.28516,0.688476 0.64453,0.512696 0.64453,1.333008 0,0.622559 -0.18311,1.442871 l -0.43212,1.933594 q -0.20508,0.922852 -0.20508,1.501465 0,0.366211 0.16113,1.054687 h -1.34033 q -0.10987,-0.380859 -0.15381,-0.966796 z m 0.49072,-2.973633 q -0.27832,0.109863 -0.60058,0.168457 -0.31495,0.05859 -1.06202,0.124512 -1.15722,0.102539 -1.6333,0.263671 -0.47607,0.153809 -0.71777,0.498047 -0.2417,0.344239 -0.2417,0.761719 0,0.556641 0.38086,0.915527 0.38818,0.358887 1.09863,0.358887 0.65918,0 1.26709,-0.344238 0.60791,-0.351563 0.95948,-0.974121 0.35156,-0.622559 0.54931,-1.772461 z" />
      <path
         id="path57"
         style="font-style:italic;font-size:15px;font-family:Helvetica, Arial, sans-serif;text-anchor:start;fill:#ff0000;stroke:#000000;stroke-width:0"
         d="m 121.91895,80.896873 1.34033,0.124512 q -0.0147,0.454102 0.10986,0.681153 0.12451,0.22705 0.39551,0.351562 0.35889,0.161133 0.93017,0.161133 1.20118,0 1.72852,-0.622559 0.34424,-0.41748 0.63721,-1.816406 l 0.13183,-0.629883 q -1.03271,1.047363 -2.19726,1.047363 -1.1792,0 -1.97754,-0.864257 -0.79102,-0.871582 -0.79102,-2.460938 0,-1.311035 0.62256,-2.409668 0.62988,-1.098633 1.49414,-1.655273 0.86426,-0.563965 1.77979,-0.563965 1.53076,0 2.3584,1.450195 l 0.26367,-1.274414 h 1.21582 l -1.56738,7.507324 q -0.25635,1.237793 -0.67383,1.92627 -0.41748,0.695801 -1.16455,1.07666 -0.73975,0.380859 -1.71387,0.380859 -0.9375,0 -1.61865,-0.241699 -0.67383,-0.241699 -1.01075,-0.710449 -0.32959,-0.461426 -0.32959,-1.062012 0,-0.183105 0.0366,-0.395508 z m 1.65527,-4.145507 q 0,0.79834 0.15381,1.201172 0.21972,0.563964 0.62256,0.864257 0.41015,0.292969 0.9082,0.292969 0.65186,0 1.29639,-0.454101 0.64453,-0.461426 1.04004,-1.420899 0.40283,-0.959473 0.40283,-1.831055 0,-0.959472 -0.53467,-1.523437 -0.52734,-0.571289 -1.31104,-0.571289 -0.48339,0 -0.9375,0.263672 -0.4541,0.256347 -0.84961,0.791015 -0.38818,0.527344 -0.59326,1.26709 -0.19775,0.739746 -0.19775,1.120606 z" />
      <path
         id="path59"
         style="font-style:italic;font-size:15px;font-family:Helvetica, Arial, sans-serif;text-anchor:start;fill:#ff0000;stroke:#000000;stroke-width:0"
         d="m 136.05469,77.549706 1.28906,0.131835 q -0.27832,0.959473 -1.28174,1.823731 -0.99609,0.864258 -2.38037,0.864258 -0.86426,0 -1.58935,-0.395508 -0.71778,-0.402832 -1.09864,-1.164551 -0.37353,-0.761719 -0.37353,-1.73584 0,-1.274414 0.58594,-2.468261 0.59326,-1.201172 1.53076,-1.779786 0.9375,-0.585937 2.02881,-0.585937 1.3916,0 2.21923,0.864258 0.83496,0.864258 0.83496,2.358398 0,0.571289 -0.10253,1.171875 h -5.72754 q -0.0293,0.227051 -0.0293,0.410156 0,1.091309 0.49805,1.669922 0.50537,0.571289 1.23047,0.571289 0.68115,0 1.34033,-0.446777 0.65918,-0.446777 1.02539,-1.289062 z m -3.85254,-1.92627 h 4.36523 q 0.007,-0.205078 0.007,-0.292969 0,-0.996094 -0.49805,-1.523437 -0.49805,-0.534668 -1.28174,-0.534668 -0.84961,0 -1.55273,0.585937 -0.6958,0.585938 -1.04004,1.765137 z" />
      <path
         id="path61"
         style="font-style:italic;font-size:15px;font-family:Helvetica, Arial, sans-serif;text-anchor:start;fill:#ff0000;stroke:#000000;stroke-width:0"
         d="m 139.87061,77.483788 0.81298,-5.830079 0.46143,-2.197265 h 1.604 l -0.49804,2.380371 -1.55274,5.646973 z m -0.83496,2.70996 0.31494,-1.501464 h 1.49414 l -0.31494,1.501464 z" />
    </g>
  </g>
</svg>
