<svg width="400" height="400" xmlns="http://www.w3.org/2000/svg">
 <!-- Created with Method Draw - http://github.com/duopixel/Method-Draw/ -->

 <g>
  <title>background</title>
  <rect fill="#fff" id="canvas_background" height="402" width="402" y="-1" x="-1"/>
 </g>
 <g>
  <title>Layer 1</title>
  <g id="svg_30">
   <g transform="matrix(7.163163891822478,0,0,7.163163891822478,0,0) " id="svg_5">
    <path id="svg_6" fill="#994530" d="m6.756564,44.69457c0,0 3.184,6.921 11.405,9.64c1.827,0.604 3.751,0.751 5.667,0.922c7.866,0.703 26.714,-0.971 31.066,-18.976c1.367,-5.656 0.76,-11.612 -1.429,-17.003c-3.152,-7.763 -10.215,-17.707 -24.831,-11.047c-8.328,3.795 -7.696,10.279 -5.913,14.787c2.157,5.456 -2.243,11.081 -8.06,10.316c-7.189,-0.946 -10.683,3.374 -7.905,11.361z"/>
    <g id="svg_7">
     <path id="svg_8" fill="#D75A4A" d="m10.493564,42.98357c0.402,0.785 3.058,5.552 9.111,7.554c1.335,0.441 2.863,0.577 4.482,0.72l0.282,0.025c0.818,0.073 1.698,0.11 2.617,0.11c18.18,0 22.854,-11.218 24.02,-16.041c1.134,-4.693 0.706,-9.703 -1.235,-14.488c-2.918,-7.186 -7.111,-10.831 -12.461,-10.831c-2.21,0 -4.683,0.615 -7.349,1.83c-2.992,1.364 -6.676,3.921 -4.13,10.36c1.284,3.25 0.912,6.746 -1.023,9.591c-2.17,3.191 -6.002,4.901 -9.895,4.39c-0.493,-0.065 -0.966,-0.099 -1.404,-0.099c-1.077,0 -2.502,0.198 -3.173,1.143c-0.767,1.08 -0.709,3.165 0.158,5.736z"/>
     <path id="svg_9" fill="#C64940" d="m26.987564,52.39257c-0.948,0 -1.858,-0.038 -2.706,-0.114l-0.283,-0.025c-1.674,-0.147 -3.257,-0.287 -4.706,-0.767c-6.376,-2.108 -9.188,-7.073 -9.688,-8.047l-0.058,-0.137c-0.984,-2.917 -0.993,-5.273 -0.026,-6.635c0.912,-1.285 2.89,-1.807 5.524,-1.456c3.537,0.466 6.959,-1.054 8.936,-3.961c1.746,-2.565 2.082,-5.723 0.921,-8.661c-3.189,-8.065 2.707,-10.754 4.645,-11.638c9.68,-4.407 16.81,-1.155 21.152,9.535c2.021,4.981 2.464,10.202 1.28,15.099c-1.222,5.054 -6.102,16.807 -24.991,16.807zm-15.571,-9.802c0.401,0.758 2.936,5.155 8.503,6.997c1.229,0.406 2.699,0.536 4.256,0.673l0.284,0.025c0.788,0.07 1.639,0.106 2.527,0.106c17.469,0 21.938,-10.683 23.048,-15.276c1.084,-4.487 0.672,-9.286 -1.19,-13.877c-2.751,-6.772 -6.632,-10.206 -11.535,-10.206c-2.067,0 -4.4,0.585 -6.934,1.74c-3.02,1.376 -5.81,3.532 -3.615,9.083c1.408,3.563 0.998,7.398 -1.126,10.521c-2.404,3.534 -6.563,5.386 -10.852,4.818c-1.793,-0.236 -3.197,0.019 -3.632,0.632c-0.435,0.613 -0.591,2.184 0.266,4.764z"/>
    </g>
    <g id="svg_10">
     <circle id="svg_11" fill="#E6E6E6" r="4" cy="18.58257" cx="38.258564"/>
     <path id="svg_12" fill="#7A3726" d="m38.258564,23.58257c-2.757,0 -5,-2.243 -5,-5s2.243,-5 5,-5s5,2.243 5,5s-2.243,5 -5,5zm0,-8c-1.654,0 -3,1.346 -3,3s1.346,3 3,3s3,-1.346 3,-3s-1.346,-3 -3,-3z"/>
    </g>
    <path id="svg_13" fill="#C64940" d="m31.420564,51.48757l-1.941,-0.479c0.435,-1.761 -1.063,-3.216 -3.446,-4.859c-2.875,-1.984 -4.817,-5.117 -5.327,-8.595c-0.186,-1.266 -0.425,-2.285 -0.428,-2.295l1.922,-0.548c0.01,0.028 1.09,3.104 3.978,4.314c2.094,0.877 4.667,0.598 7.648,-0.832c11.578,-5.554 17.102,-2.646 17.332,-2.52l-0.967,1.752c-0.04,-0.021 -4.97,-2.48 -15.5,2.57c-3.53,1.694 -6.662,1.984 -9.312,0.863c-0.801,-0.339 -1.49,-0.779 -2.078,-1.265c0.769,1.974 2.11,3.695 3.867,4.907c1.784,1.234 5.107,3.525 4.252,6.987z"/>
    <path id="svg_14" fill="#C64940" d="m32.877564,33.38957c-5.37,0 -7.605,-3.694 -7.633,-3.74l1.727,-1.01l-0.863,0.505l0.859,-0.511c0.108,0.179 2.714,4.335 9.738,2.105c1.54,-0.794 12.038,-6.002 15.619,-2.289l-1.439,1.389c-1.979,-2.052 -9.229,0.576 -13.332,2.714l-0.154,0.064c-1.704,0.551 -3.207,0.773 -4.522,0.773z"/>
   </g>
   <g transform="matrix(7.163163891822478,0,0,7.163163891822478,0,0) " id="svg_15"/>
   <g transform="matrix(7.163163891822478,0,0,7.163163891822478,0,0) " id="svg_16"/>
   <g transform="matrix(7.163163891822478,0,0,7.163163891822478,0,0) " id="svg_17"/>
   <g transform="matrix(7.163163891822478,0,0,7.163163891822478,0,0) " id="svg_18"/>
   <g transform="matrix(7.163163891822478,0,0,7.163163891822478,0,0) " id="svg_19"/>
   <g transform="matrix(7.163163891822478,0,0,7.163163891822478,0,0) " id="svg_20"/>
   <g transform="matrix(7.163163891822478,0,0,7.163163891822478,0,0) " id="svg_21"/>
   <g transform="matrix(7.163163891822478,0,0,7.163163891822478,0,0) " id="svg_22"/>
   <g transform="matrix(7.163163891822478,0,0,7.163163891822478,0,0) " id="svg_23"/>
   <g transform="matrix(7.163163891822478,0,0,7.163163891822478,0,0) " id="svg_24"/>
   <g transform="matrix(7.163163891822478,0,0,7.163163891822478,0,0) " id="svg_25"/>
   <g transform="matrix(7.163163891822478,0,0,7.163163891822478,0,0) " id="svg_26"/>
   <g transform="matrix(7.163163891822478,0,0,7.163163891822478,0,0) " id="svg_27"/>
   <g transform="matrix(7.163163891822478,0,0,7.163163891822478,0,0) " id="svg_28"/>
   <g transform="matrix(7.163163891822478,0,0,7.163163891822478,0,0) " id="svg_29"/>
   <g id="svg_62">
    <g transform="matrix(5.521057475842156,0,0,5.521057475842156,0,0) " id="svg_35">
     <path id="svg_36" fill="#88C057" d="m35.24772,23.723941c0,-0.995 -0.563,-1.851 -1.387,-2.307c0.39,-0.796 0.615,-1.684 0.615,-2.626c0,-3.353 -2.767,-6.071 -6.18,-6.071c-0.892,0 -1.738,0.189 -2.504,0.524c-0.913,-1.235 -2.39,-2.042 -4.062,-2.042c-1.895,0 -3.543,1.032 -4.398,2.554c-0.942,-0.651 -2.088,-1.036 -3.327,-1.036c-3.2,0 -5.794,2.548 -5.794,5.692c0,0.235 0.019,0.466 0.047,0.693c-2.274,0.769 -3.91,2.883 -3.91,5.378c0,1.946 0.995,3.662 2.511,4.688c-0.605,0.815 -0.966,1.815 -0.966,2.901c0,2.724 2.248,4.933 5.021,4.933c1.161,0 2.226,-0.391 3.077,-1.04c1.12,1.546 2.955,2.558 5.035,2.558c2.198,0 4.123,-1.131 5.219,-2.829c0.737,1.237 2.101,2.07 3.665,2.07c2.347,0 4.249,-1.869 4.249,-4.174c0,-0.517 -0.1,-1.01 -0.275,-1.467c1.524,-0.634 2.593,-2.117 2.593,-3.845c0,-0.818 -0.243,-1.58 -0.658,-2.224c0.846,-0.449 1.429,-1.318 1.429,-2.33z"/>
     <path id="svg_37" fill="#659C35" d="m12.93372,36.567941c-0.62,0.271 -1.298,0.437 -2.021,0.437c-2.773,0 -5.021,-2.209 -5.021,-4.933c0,-1.086 0.361,-2.086 0.966,-2.901c-1.516,-1.026 -2.511,-2.742 -2.511,-4.688c0,-0.942 0.235,-1.83 0.648,-2.611c-1.657,-0.985 -3.838,-0.786 -5.269,0.619c-0.126,0.124 -0.239,0.255 -0.346,0.389c-1.607,-0.77 -3.599,-0.503 -4.934,0.808c-1.041,1.023 -1.436,2.439 -1.189,3.762c-0.755,0.115 -1.48,0.455 -2.061,1.026c-1.458,1.432 -1.458,3.755 0,5.187c0.61,0.6 1.38,0.945 2.175,1.042c-0.239,1.392 0.185,2.872 1.278,3.946c1.156,1.135 2.773,1.535 4.258,1.208c-0.274,1.031 -0.003,2.173 0.819,2.982c1.234,1.212 3.234,1.212 4.468,0c0.277,-0.272 0.488,-0.583 0.641,-0.914c1.141,0.454 2.496,0.226 3.421,-0.682c0.438,-0.43 0.717,-0.956 0.844,-1.509c0.686,0.202 1.457,0.046 1.999,-0.486c0.532,-0.523 0.695,-1.264 0.505,-1.929c0.477,-0.165 0.918,-0.432 1.33,-0.753z"/>
     <path id="svg_38" fill="#659C35" d="m45.58572,29.273941c-0.126,-0.124 -0.259,-0.235 -0.396,-0.34c0.784,-1.579 0.512,-3.536 -0.823,-4.847c-1.041,-1.023 -2.483,-1.411 -3.83,-1.168c-0.118,-0.741 -0.463,-1.454 -1.044,-2.024c-1.458,-1.433 -3.822,-1.433 -5.281,0c-0.095,0.094 -0.174,0.198 -0.256,0.299c-0.033,0.074 -0.06,0.152 -0.095,0.224c0.824,0.455 1.387,1.312 1.387,2.307c0,1.012 -0.583,1.881 -1.43,2.329c0.414,0.644 0.658,1.405 0.658,2.224c0,1.728 -1.069,3.211 -2.593,3.845c0.175,0.457 0.275,0.95 0.275,1.467c0,2.305 -1.902,4.174 -4.249,4.174c-0.549,0 -1.071,-0.108 -1.553,-0.295c0.052,0.059 0.082,0.129 0.138,0.184c0.438,0.43 0.973,0.705 1.536,0.83c-0.206,0.674 -0.047,1.432 0.495,1.964c0.532,0.523 1.287,0.683 1.964,0.496c0.221,0.62 0.578,1.203 1.083,1.698c1.795,1.763 4.704,1.763 6.499,0c0.469,-0.461 0.812,-0.997 1.036,-1.569c1.141,0.178 2.349,-0.161 3.229,-1.025c0.996,-0.979 1.311,-2.373 0.946,-3.615c0.843,-0.144 1.652,-0.533 2.304,-1.174c1.682,-1.652 1.682,-4.331 0,-5.984z"/>
     <path id="svg_39" fill="#436B1C" d="m30.48872,40.942941c-0.677,0.186 -1.431,0.027 -1.964,-0.496c-0.317,-0.311 -0.503,-0.7 -0.561,-1.104c-0.033,-0.225 -0.109,-0.442 -0.222,-0.635c-3.918,4.044 -6.655,11.494 -6.655,11.494c1.301,-4.626 1.096,-9.242 0.693,-12.321c-0.829,0.409 -1.764,0.642 -2.756,0.642c-0.966,0 -1.875,-0.226 -2.688,-0.615c1.751,6.191 0.751,16.294 0.751,16.294c-1.874,-7.495 -5.994,-12.181 -7.941,-14.058c-0.139,0.109 -0.264,0.235 -0.352,0.393c-0.14,0.254 -0.32,0.493 -0.539,0.709c-0.925,0.909 -2.281,1.136 -3.421,0.682c-0.153,0.331 -0.364,0.642 -0.641,0.914c-0.33,0.324 -0.717,0.555 -1.127,0.706c5.021,0 10.78,9.994 11.523,20.655c0.055,0.784 0.712,1.392 1.498,1.392l5,0c0.77,0 1.412,-0.577 1.499,-1.341c0.459,-4.056 1.876,-21.012 9.746,-21.012c-0.269,-0.171 -0.525,-0.368 -0.761,-0.599c-0.503,-0.497 -0.861,-1.08 -1.082,-1.7z"/>
     <path id="svg_40" fill="#659C35" d="m13.56972,25.201941c-0.121,0 -0.244,-0.022 -0.364,-0.069c-2.517,-0.984 -3.765,-3.833 -2.781,-6.35c0.984,-2.516 3.828,-3.764 6.351,-2.782c0.514,0.201 0.769,0.781 0.567,1.295c-0.201,0.515 -0.779,0.768 -1.296,0.568c-1.491,-0.583 -3.177,0.156 -3.759,1.646c-0.583,1.491 0.156,3.177 1.646,3.759c0.514,0.201 0.769,0.781 0.567,1.295c-0.154,0.397 -0.532,0.638 -0.931,0.638z"/>
     <path id="svg_41" fill="#88C057" d="m39.18572,35.671941c-0.604,0 -1.207,-0.113 -1.786,-0.339c-1.219,-0.477 -2.18,-1.399 -2.705,-2.599c-0.222,-0.506 0.009,-1.096 0.515,-1.317c0.51,-0.222 1.097,0.01 1.317,0.515c0.311,0.71 0.88,1.256 1.602,1.539c0.723,0.282 1.511,0.265 2.221,-0.045c0.71,-0.311 1.256,-0.88 1.538,-1.602c0.282,-0.722 0.267,-1.51 -0.045,-2.22c-0.222,-0.506 0.009,-1.096 0.515,-1.317c0.509,-0.221 1.096,0.009 1.317,0.515c0.525,1.199 0.553,2.531 0.076,3.751s-1.399,2.181 -2.599,2.706c-0.631,0.274 -1.298,0.413 -1.966,0.413z"/>
     <path id="svg_42" fill="#659C35" d="m25.49272,33.199941c-1.711,0 -3.375,-0.896 -4.275,-2.489c-0.272,-0.481 -0.103,-1.091 0.378,-1.363c0.479,-0.272 1.091,-0.103 1.362,0.378c0.382,0.675 1.003,1.161 1.75,1.369c0.745,0.206 1.529,0.111 2.204,-0.27s1.161,-1.002 1.369,-1.75c0.207,-0.747 0.111,-1.53 -0.27,-2.204c-0.272,-0.481 -0.103,-1.091 0.378,-1.363c0.479,-0.271 1.091,-0.103 1.362,0.378c0.645,1.14 0.807,2.462 0.456,3.724s-1.172,2.311 -2.312,2.955c-0.759,0.431 -1.586,0.635 -2.402,0.635z"/>
     <path id="svg_43" fill="#659C35" d="m21.98272,27.802941c-0.716,0 -1.441,-0.157 -2.128,-0.489c-2.433,-1.178 -3.454,-4.115 -2.277,-6.548c0.241,-0.496 0.837,-0.705 1.336,-0.465c0.497,0.241 0.705,0.839 0.465,1.336c-0.697,1.44 -0.093,3.179 1.348,3.876c1.44,0.695 3.179,0.093 3.876,-1.348c0.24,-0.496 0.836,-0.706 1.336,-0.465c0.497,0.241 0.705,0.839 0.465,1.336c-0.847,1.748 -2.6,2.767 -4.421,2.767z"/>
     <path id="svg_44" fill="#659C35" d="m14.38072,33.415941c-0.667,0 -1.333,-0.138 -1.962,-0.413c-2.476,-1.083 -3.61,-3.978 -2.528,-6.455c0.221,-0.504 0.806,-0.737 1.316,-0.516c0.506,0.221 0.737,0.811 0.516,1.317c-0.64,1.466 0.031,3.181 1.497,3.821c0.712,0.311 1.5,0.326 2.221,0.043c0.722,-0.283 1.29,-0.829 1.601,-1.54c0.221,-0.504 0.807,-0.736 1.316,-0.516c0.506,0.221 0.737,0.811 0.516,1.317c-0.523,1.2 -1.483,2.124 -2.703,2.601c-0.58,0.228 -1.185,0.341 -1.79,0.341z"/>
     <path id="svg_45" fill="#659C35" d="m25.50572,22.503941c-0.158,0 -0.317,-0.007 -0.477,-0.022c-1.304,-0.125 -2.48,-0.75 -3.313,-1.76c-0.352,-0.426 -0.291,-1.056 0.135,-1.408c0.428,-0.353 1.057,-0.29 1.408,0.135c0.493,0.598 1.189,0.968 1.961,1.042c0.782,0.079 1.527,-0.158 2.124,-0.65c1.234,-1.018 1.41,-2.851 0.392,-4.085c-0.352,-0.426 -0.291,-1.056 0.135,-1.408c0.428,-0.353 1.057,-0.29 1.408,0.135c1.72,2.084 1.423,5.18 -0.661,6.9c-0.888,0.731 -1.978,1.121 -3.112,1.121z"/>
     <path id="svg_46" fill="#88C057" d="m-0.01628,34.570941c-0.613,0 -1.235,-0.115 -1.837,-0.359c-2.504,-1.016 -3.715,-3.88 -2.699,-6.385c0.207,-0.512 0.79,-0.757 1.303,-0.551c0.512,0.208 0.758,0.791 0.551,1.303c-0.602,1.482 0.115,3.178 1.598,3.78c1.486,0.604 3.18,-0.115 3.78,-1.598c0.208,-0.513 0.793,-0.758 1.303,-0.551c0.512,0.208 0.759,0.791 0.551,1.303c-0.774,1.902 -2.612,3.058 -4.55,3.058z"/>
    </g>
    <g transform="matrix(5.521057475842156,0,0,5.521057475842156,0,0) " id="svg_47"/>
    <g transform="matrix(5.521057475842156,0,0,5.521057475842156,0,0) " id="svg_48"/>
    <g transform="matrix(5.521057475842156,0,0,5.521057475842156,0,0) " id="svg_49"/>
    <g transform="matrix(5.521057475842156,0,0,5.521057475842156,0,0) " id="svg_50"/>
    <g transform="matrix(5.521057475842156,0,0,5.521057475842156,0,0) " id="svg_51"/>
    <g transform="matrix(5.521057475842156,0,0,5.521057475842156,0,0) " id="svg_52"/>
    <g transform="matrix(5.521057475842156,0,0,5.521057475842156,0,0) " id="svg_53"/>
    <g transform="matrix(5.521057475842156,0,0,5.521057475842156,0,0) " id="svg_54"/>
    <g transform="matrix(5.521057475842156,0,0,5.521057475842156,0,0) " id="svg_55"/>
    <g transform="matrix(5.521057475842156,0,0,5.521057475842156,0,0) " id="svg_56"/>
    <g transform="matrix(5.521057475842156,0,0,5.521057475842156,0,0) " id="svg_57"/>
    <g transform="matrix(5.521057475842156,0,0,5.521057475842156,0,0) " id="svg_58"/>
    <g transform="matrix(5.521057475842156,0,0,5.521057475842156,0,0) " id="svg_59"/>
    <g transform="matrix(5.521057475842156,0,0,5.521057475842156,0,0) " id="svg_60"/>
    <g transform="matrix(5.521057475842156,0,0,5.521057475842156,0,0) " id="svg_61"/>
   </g>
  </g>
 </g>
</svg>