<?xml version="1.0" encoding="UTF-8" standalone="no"?>
<svg
   xmlns:dc="http://purl.org/dc/elements/1.1/"
   xmlns:cc="http://creativecommons.org/ns#"
   xmlns:rdf="http://www.w3.org/1999/02/22-rdf-syntax-ns#"
   xmlns:svg="http://www.w3.org/2000/svg"
   xmlns="http://www.w3.org/2000/svg"
   id="svg16"
   version="1.1"
   height="150"
   width="150">
  <metadata
     id="metadata22">
    <rdf:RDF>
      <cc:Work
         rdf:about="">
        <dc:format>image/svg+xml</dc:format>
        <dc:type
           rdf:resource="http://purl.org/dc/dcmitype/StillImage" />
      </cc:Work>
    </rdf:RDF>
  </metadata>
  <defs
     id="defs20" />
  <!-- Created with Method Draw - http://github.com/duopixel/Method-Draw/ -->
  <g
     id="g8">
    <title
       id="title2">background</title>
    <path
       id="canvas_background"
       d="M -1,-1 H 151 V 151 H -1 Z"
       style="fill:#cccccc" />
    <g
       style="display:none;overflow:visible"
       id="canvasGrid"
       width="100%"
       height="100%"
       x="0"
       y="0"
       overflow="visible"
       display="none">
      <path
         id="rect5"
         d="M 0,0 H 150 V 150 H 0 Z"
         style="fill:url(#gridpattern);stroke-width:0" />
    </g>
  </g>
  <g
     id="g14">
    <title
       id="title10">Layer 1</title>
    <g
       id="svg_1"
       style="font-size:24px;font-family:Helvetica, Arial, sans-serif;text-anchor:start;fill:#000000;stroke:#000000;stroke-width:0"
       transform="matrix(10.785214,0,0,1,-1446.9735,0)" />
    <g
       id="svg_2"
       style="font-style:italic;font-size:15px;font-family:Helvetica, Arial, sans-serif;text-anchor:start;fill:#000000;stroke:#000000;stroke-width:0"
       aria-label="Loading...">
      <path
         id="path27"
         style="font-style:italic;font-size:15px;font-family:Helvetica, Arial, sans-serif;text-anchor:start;fill:#000000;stroke:#000000;stroke-width:0"
         d="m 42.655273,80.193748 2.241211,-10.737304 h 1.435547 l -1.984863,9.521484 h 5.57373 l -0.256347,1.21582 z" />
      <path
         id="path29"
         style="font-style:italic;font-size:15px;font-family:Helvetica, Arial, sans-serif;text-anchor:start;fill:#000000;stroke:#000000;stroke-width:0"
         d="m 51.136719,77.242088 q 0,-2.277832 1.340332,-3.771972 1.105957,-1.230469 2.90039,-1.230469 1.40625,0 2.263184,0.878906 0.864258,0.878906 0.864258,2.373047 0,1.340332 -0.541992,2.497559 -0.541993,1.149902 -1.545411,1.765136 -0.996093,0.615235 -2.10205,0.615235 -0.908203,0 -1.655274,-0.388184 -0.739746,-0.388183 -1.135254,-1.098633 -0.388183,-0.710449 -0.388183,-1.640625 z m 1.325683,-0.131836 q 0,1.098633 0.527344,1.669922 0.527344,0.563965 1.340332,0.563965 0.424805,0 0.842285,-0.168457 0.417481,-0.175781 0.776367,-0.527344 0.358887,-0.351562 0.607911,-0.79834 0.256347,-0.454101 0.410156,-0.974121 0.227051,-0.725097 0.227051,-1.391601 0,-1.054688 -0.534668,-1.633301 -0.527344,-0.585937 -1.333008,-0.585937 -0.622559,0 -1.135254,0.300293 -0.512695,0.292968 -0.930176,0.864257 -0.410156,0.571289 -0.60791,1.333008 -0.19043,0.754395 -0.19043,1.347656 z" />
      <path
         id="path31"
         style="font-style:italic;font-size:15px;font-family:Helvetica, Arial, sans-serif;text-anchor:start;fill:#000000;stroke:#000000;stroke-width:0"
         d="m 64.496094,79.226952 q -0.688477,0.593261 -1.325684,0.871582 -0.637207,0.270996 -1.362305,0.270996 -1.07666,0 -1.735839,-0.629883 -0.65918,-0.637207 -0.65918,-1.625977 0,-0.651855 0.292969,-1.149902 0.300293,-0.505371 0.791015,-0.805664 0.490723,-0.307617 1.201172,-0.439453 0.446778,-0.08789 1.691895,-0.13916 1.252441,-0.05127 1.794433,-0.263672 0.153809,-0.541992 0.153809,-0.900879 0,-0.461426 -0.336914,-0.725098 -0.461426,-0.366211 -1.347656,-0.366211 -0.834961,0 -1.369629,0.373535 -0.527344,0.366211 -0.769043,1.047364 l -1.340332,-0.117188 q 0.410156,-1.157226 1.296386,-1.772461 0.893555,-0.615234 2.248536,-0.615234 1.442871,0 2.285156,0.688476 0.644531,0.512696 0.644531,1.333008 0,0.622559 -0.183105,1.442871 l -0.432129,1.933594 q -0.205078,0.922852 -0.205078,1.501465 0,0.366211 0.161132,1.054687 h -1.340332 q -0.109863,-0.380859 -0.153808,-0.966796 z m 0.490722,-2.973633 q -0.27832,0.109863 -0.600586,0.168457 -0.314941,0.05859 -1.062011,0.124512 -1.157227,0.102539 -1.633301,0.263671 -0.476074,0.153809 -0.717773,0.498047 -0.2417,0.344239 -0.2417,0.761719 0,0.556641 0.38086,0.915527 0.388183,0.358887 1.098632,0.358887 0.65918,0 1.26709,-0.344238 0.60791,-0.351563 0.959473,-0.974121 0.351562,-0.622559 0.549316,-1.772461 z" />
      <path
         id="path33"
         style="font-style:italic;font-size:15px;font-family:Helvetica, Arial, sans-serif;text-anchor:start;fill:#000000;stroke:#000000;stroke-width:0"
         d="m 72.845703,79.065819 q -1.135254,1.303711 -2.373047,1.303711 -1.105957,0 -1.845703,-0.812989 -0.732422,-0.820312 -0.732422,-2.373046 0,-1.420899 0.578614,-2.592774 0.585937,-1.179199 1.457519,-1.765137 0.878906,-0.585937 1.757813,-0.585937 1.450195,0 2.189941,1.398926 l 0.878906,-4.182129 h 1.31836 l -2.241211,10.737304 h -1.223145 z m -3.632812,-2.131348 q 0,0.812988 0.161132,1.281738 0.161133,0.46875 0.549317,0.783692 0.388183,0.307617 0.930176,0.307617 0.900879,0 1.6333,-0.9375 0.981446,-1.245117 0.981446,-3.076172 0,-0.922851 -0.483399,-1.442871 -0.483398,-0.520019 -1.21582,-0.520019 -0.476074,0 -0.871582,0.212402 -0.388184,0.212402 -0.776367,0.725098 -0.38086,0.505371 -0.644532,1.289062 -0.263671,0.783691 -0.263671,1.376953 z" />
      <path
         id="path35"
         style="font-style:italic;font-size:15px;font-family:Helvetica, Arial, sans-serif;text-anchor:start;fill:#000000;stroke:#000000;stroke-width:0"
         d="m 77.833496,70.957909 0.314941,-1.501465 h 1.31836 l -0.314942,1.501465 z m -1.933594,9.235839 1.625977,-7.77832 h 1.325683 l -1.625976,7.77832 z" />
      <path
         id="path37"
         style="font-style:italic;font-size:15px;font-family:Helvetica, Arial, sans-serif;text-anchor:start;fill:#000000;stroke:#000000;stroke-width:0"
         d="m 79.291016,80.193748 1.625976,-7.77832 h 1.201172 l -0.285644,1.354981 q 0.783691,-0.79834 1.464843,-1.164551 0.681153,-0.366211 1.391602,-0.366211 0.944824,0 1.479492,0.512695 0.541992,0.512696 0.541992,1.369629 0,0.432129 -0.190429,1.362305 l -0.98877,4.709472 h -1.325684 l 1.032715,-4.929199 q 0.153809,-0.717773 0.153809,-1.062011 0,-0.388184 -0.270996,-0.629883 -0.263672,-0.241699 -0.769043,-0.241699 -1.018067,0 -1.816406,0.732421 -0.791016,0.732422 -1.164551,2.512207 l -0.754395,3.618164 z" />
      <path
         id="path39"
         style="font-style:italic;font-size:15px;font-family:Helvetica, Arial, sans-serif;text-anchor:start;fill:#000000;stroke:#000000;stroke-width:0"
         d="m 87.567383,80.896873 1.340332,0.124512 q -0.01465,0.454102 0.109863,0.681153 0.124512,0.22705 0.395508,0.351562 0.358887,0.161133 0.930176,0.161133 1.201172,0 1.728515,-0.622559 0.344239,-0.41748 0.637207,-1.816406 l 0.131836,-0.629883 q -1.032715,1.047363 -2.197265,1.047363 -1.1792,0 -1.977539,-0.864257 Q 87.875,78.457909 87.875,76.868553 q 0,-1.311035 0.622559,-2.409668 0.629882,-1.098633 1.49414,-1.655273 0.864258,-0.563965 1.779785,-0.563965 1.530762,0 2.358399,1.450195 l 0.263672,-1.274414 h 1.21582 l -1.567383,7.507324 q -0.256347,1.237793 -0.673828,1.92627 -0.41748,0.695801 -1.164551,1.07666 -0.739746,0.380859 -1.713867,0.380859 -0.9375,0 -1.618652,-0.241699 -0.673828,-0.241699 -1.010742,-0.710449 -0.32959,-0.461426 -0.32959,-1.062012 0,-0.183105 0.03662,-0.395508 z m 1.655273,-4.145507 q 0,0.79834 0.153809,1.201172 0.219726,0.563964 0.622558,0.864257 0.410157,0.292969 0.908204,0.292969 0.651855,0 1.296386,-0.454101 0.644532,-0.461426 1.040039,-1.420899 0.402832,-0.959473 0.402832,-1.831055 0,-0.959472 -0.534668,-1.523437 -0.527343,-0.571289 -1.311035,-0.571289 -0.483398,0 -0.9375,0.263672 -0.454101,0.256347 -0.849609,0.791015 -0.388184,0.527344 -0.593262,1.26709 -0.197754,0.739746 -0.197754,1.120606 z" />
      <path
         id="path41"
         style="font-style:italic;font-size:15px;font-family:Helvetica, Arial, sans-serif;text-anchor:start;fill:#000000;stroke:#000000;stroke-width:0"
         d="m 96.356445,80.193748 0.314942,-1.501464 h 1.501465 l -0.322266,1.501464 z" />
      <path
         id="path43"
         style="font-style:italic;font-size:15px;font-family:Helvetica, Arial, sans-serif;text-anchor:start;fill:#000000;stroke:#000000;stroke-width:0"
         d="m 100.5166,80.193748 0.31494,-1.501464 h 1.50147 l -0.32227,1.501464 z" />
      <path
         id="path45"
         style="font-style:italic;font-size:15px;font-family:Helvetica, Arial, sans-serif;text-anchor:start;fill:#000000;stroke:#000000;stroke-width:0"
         d="m 104.67676,80.193748 0.31494,-1.501464 h 1.50146 l -0.32226,1.501464 z" />
    </g>
  </g>
</svg>
