<?xml version="1.0" encoding="utf-8"?>
<!-- Generator: Adobe Illustrator 16.0.0, SVG Export Plug-In . SVG Version: 6.00 Build 0)  -->
<!DOCTYPE svg PUBLIC "-//W3C//DTD SVG 1.1//EN" "http://www.w3.org/Graphics/SVG/1.1/DTD/svg11.dtd">
<svg version="1.1" id="Layer_1" xmlns="http://www.w3.org/2000/svg" xmlns:xlink="http://www.w3.org/1999/xlink" x="0px" y="0px"
	 width="500px" height="500px" viewBox="0 0 500 500" enable-background="new 0 0 500 500" xml:space="preserve">
<g id="Layer_1_copy_46">
	<g>
		<path fill="#B3522A" d="M432.842,212.657c0,0,2.656-24.27,10.624-17.449c7.972,6.819,14.947,13.794,8.641,21.099
			c-6.312,7.308-9.304,2.992-13.95,2.657C433.504,218.633,432.842,212.657,432.842,212.657z"/>
		<path fill="#3C2517" d="M445.139,222.688c-1.584,0-2.998-0.464-4.247-0.871c-0.997-0.325-1.935-0.633-2.893-0.702
			c-5.091-0.361-6.999-5.536-7.298-8.223c-0.018-0.156-0.018-0.314,0-0.47c0.526-4.829,2.815-20.577,10.058-20.577
			c1.39,0,2.771,0.581,4.108,1.726c5.729,4.903,11.361,10.187,11.81,16.105c0.216,2.829-0.774,5.533-2.94,8.041
			C450.807,221.107,448.073,222.688,445.139,222.688z M435.015,212.613c0.146,0.835,0.861,4.028,3.293,4.201
			c1.484,0.109,2.783,0.534,3.927,0.908c1.075,0.351,2.011,0.659,2.904,0.659c1,0,2.641-0.361,5.333-3.481
			c1.408-1.63,2.034-3.233,1.908-4.9c-0.321-4.27-5.492-9.029-10.314-13.155c-0.515-0.439-0.987-0.691-1.307-0.691
			C438.752,196.154,435.985,204.115,435.015,212.613z"/>
	</g>
	<g>
		<path fill="#B3522A" d="M122.727,199.727c0,0-2.653-24.268-10.624-17.446c-7.971,6.819-14.944,13.794-8.637,21.099
			c6.311,7.31,9.299,2.992,13.95,2.657C122.063,205.707,122.727,199.727,122.727,199.727z"/>
		<path fill="#010101" d="M110.43,209.761L110.43,209.761c-2.936-0.002-5.665-1.58-8.594-4.973
			c-2.166-2.509-3.157-5.214-2.941-8.042c0.443-5.918,6.079-11.202,11.807-16.105c1.338-1.145,2.723-1.726,4.111-1.726
			c7.245,0,9.53,15.749,10.058,20.576c0.017,0.157,0.017,0.316,0,0.472c-0.299,2.685-2.207,7.859-7.299,8.222
			c-0.957,0.068-1.897,0.376-2.892,0.702C113.431,209.297,112.017,209.761,110.43,209.761z M114.812,183.226
			c-0.318,0-0.796,0.251-1.309,0.69c-4.82,4.126-9.991,8.883-10.312,13.155c-0.126,1.666,0.496,3.268,1.904,4.899
			c2.693,3.119,4.337,3.48,5.334,3.48l0,0c0.9,0,1.828-0.305,2.908-0.659c1.144-0.375,2.438-0.798,3.926-0.906
			c2.425-0.172,3.144-3.351,3.29-4.2C119.583,191.187,116.813,183.226,114.812,183.226z"/>
	</g>
	<g>
		<path fill="#9F3F22" d="M245.199,226.938c0,0-18.933-3.323-44.172-26.57c-25.24-23.247-65.424-20.257-84.022,0
			c-18.601,20.259-44.504,46.497,31.551,99.302c76.052,52.805,231.146,24.246,263.693-7.639c0,0,61.773-33.211,26.903-80.703
			c-34.874-47.494-85.354-0.997-85.354-0.997S319.591,242.213,245.199,226.938z"/>
		<path fill="#010101" d="M265.5,331.13c-34.403,0-82.829-5.149-118.173-29.69c-32.973-22.896-49.99-42.94-52.021-61.288
			c-1.915-17.286,9.862-30.091,19.323-40.381l0.785-0.86c9.793-10.665,25.757-17.032,42.708-17.032
			c16.772,0,32.532,6.004,44.365,16.905c24.378,22.456,42.903,25.997,43.086,26.03c13.304,2.729,26.171,4.111,38.299,4.111
			c46.279,0,68.239-19.97,68.455-20.172c0.938-0.863,23.037-20.95,48.658-20.95c15.636,0,29.062,7.485,39.901,22.249
			c9.641,13.128,13.02,26.469,10.041,39.654c-5.856,25.944-34.096,42.252-37.389,44.071
			C392.164,314.396,325.902,331.13,265.5,331.13z M158.123,186.189c-15.765,0-30.544,5.846-39.531,15.636l-0.792,0.861
			c-9.332,10.149-19.909,21.654-18.207,36.992c1.886,17.034,18.301,36.08,50.192,58.219c34.427,23.904,81.928,28.924,115.715,28.924
			c66.806,0,127.406-18.858,145.239-36.327c0.146-0.146,0.311-0.267,0.489-0.361c0.296-0.157,29.857-16.342,35.499-41.39
			c2.685-11.91-0.449-24.067-9.314-36.139c-9.981-13.597-22.238-20.489-36.427-20.489c-23.955,0-45.516,19.605-45.729,19.8
			c-0.925,0.865-23.429,21.321-71.384,21.321c-12.42,0-25.578-1.411-39.107-4.187c-0.739-0.129-19.784-3.688-45.199-27.095
			C188.531,191.788,173.812,186.189,158.123,186.189z"/>
	</g>
	<g>
		<path fill="#C25D3F" d="M54.788,253.285c0,0-16.272,3.318-14.609-5.314c1.656-8.633,5.86-7.566,11.621-11.293
			c5.761-3.723,11.625-10.627,11.625,1.663c0,12.287-0.997,14.944,0,17.271C64.418,257.932,54.788,253.285,54.788,253.285z"/>
		<path fill="#3C2517" d="M62.907,258.413c-2,0-6.171-1.825-8.417-2.886c-1.163,0.195-3.555,0.537-6.119,0.537
			c-4.393,0.002-7.464-1.015-9.12-3.021c-0.835-1.004-1.713-2.773-1.189-5.479c1.415-7.367,4.854-8.924,8.491-10.571
			c1.295-0.586,2.637-1.189,4.078-2.124c0.954-0.62,1.918-1.332,2.852-2.021c2.647-1.958,4.933-3.647,7.212-3.647
			c4.884,0,4.884,6.877,4.884,9.14c0,5.377-0.183,8.865-0.318,11.413c-0.166,3.084-0.205,4.189,0.146,5.008
			c0.375,0.872,0.318,1.783-0.159,2.502C64.965,257.693,64.282,258.413,62.907,258.413z M54.788,251.128
			c0.321,0,0.646,0.072,0.938,0.215c1.785,0.861,3.688,1.662,5.115,2.181c-0.043-1.063,0.026-2.33,0.112-3.999
			c0.136-2.498,0.318-5.924,0.318-11.185c0-4.138-0.709-4.879-0.742-4.909c-0.696,0.079-2.976,1.766-4.485,2.878
			c-1.008,0.746-2.041,1.511-3.074,2.18c-1.713,1.103-3.267,1.812-4.642,2.428c-3.355,1.521-5.042,2.282-6.036,7.457
			c-0.222,1.153,0.054,1.65,0.278,1.925c0.769,0.926,2.879,1.458,5.801,1.454c3.067,0,5.96-0.576,5.989-0.579
			C54.503,251.145,54.646,251.128,54.788,251.128z"/>
	</g>
	<g>
		<path fill="#C25D3F" d="M373.947,261.255c0,0,2.656-24.27,10.624-17.449c7.971,6.821,14.946,13.795,8.64,21.1
			c-6.311,7.308-9.303,2.994-13.953,2.656C374.609,267.234,373.947,261.255,373.947,261.255z"/>
		<path fill="#010101" d="M386.244,271.287c-1.583,0-2.998-0.461-4.247-0.872c-0.997-0.325-1.938-0.633-2.892-0.702
			c-5.093-0.361-7-5.535-7.299-8.223c-0.021-0.155-0.021-0.314,0-0.471c0.526-4.83,2.812-20.576,10.058-20.576
			c1.389,0,2.77,0.58,4.107,1.726c5.731,4.903,11.362,10.184,11.811,16.104c0.216,2.83-0.778,5.535-2.941,8.043
			C391.912,269.706,389.179,271.287,386.244,271.287z M376.12,261.215c0.146,0.835,0.861,4.023,3.293,4.197
			c1.484,0.109,2.779,0.533,3.926,0.906c1.076,0.355,2.011,0.656,2.905,0.656c1.001,0,2.641-0.356,5.333-3.479
			c1.408-1.63,2.034-3.232,1.908-4.898c-0.32-4.271-5.495-9.028-10.315-13.156c-0.514-0.438-0.987-0.689-1.306-0.689
			C379.857,244.753,377.091,252.714,376.12,261.215z"/>
	</g>
	<g>
		<path fill="#B3522A" d="M186.302,275.537c0,0-18.929-3.323-44.169-26.568c-25.24-23.25-65.428-20.258-84.022,0
			c-18.598,20.258-44.503,46.494,31.548,99.301c76.055,52.804,231.147,24.246,263.696-7.641c0,0,61.772-33.211,26.899-80.699
			c-34.87-47.495-85.351-1-85.351-1S260.695,290.812,186.302,275.537z"/>
		<path fill="#3C2517" d="M206.603,379.732c-34.4,0-82.826-5.156-118.17-29.697c-32.976-22.893-49.99-42.938-52.021-61.283
			c-1.911-17.287,9.858-30.09,19.32-40.383l0.792-0.858c9.785-10.664,25.753-17.031,42.704-17.031
			c16.772,0,32.528,6.003,44.361,16.905c24.386,22.454,42.907,25.995,43.093,26.028c13.301,2.733,26.168,4.11,38.296,4.11
			c46.276,0,68.239-19.969,68.456-20.17c0.938-0.861,23.036-20.952,48.657-20.952c15.636,0,29.062,7.487,39.898,22.25
			c9.644,13.127,13.021,26.47,10.045,39.654c-5.857,25.943-34.097,42.248-37.388,44.07
			C333.27,362.996,267.008,379.732,206.603,379.732z M99.229,234.789c-15.765,0-30.543,5.844-39.534,15.636l-0.788,0.861
			C49.574,261.432,39,272.938,40.696,288.275c1.886,17.035,18.304,36.08,50.192,58.224c34.43,23.901,81.932,28.918,115.715,28.918
			c66.809,0,127.409-18.854,145.242-36.326c0.146-0.143,0.312-0.264,0.49-0.36c0.295-0.158,29.857-16.342,35.499-41.394
			c2.684-11.901-0.45-24.063-9.315-36.136c-9.983-13.595-22.241-20.489-36.427-20.489c-23.955,0-45.515,19.603-45.729,19.802
			c-0.926,0.863-23.428,21.319-71.384,21.319c-12.42,0-25.578-1.408-39.11-4.188c-0.735-0.129-19.784-3.687-45.193-27.095
			C129.637,240.388,114.918,234.789,99.229,234.789z"/>
	</g>
</g>
</svg>
