<?xml version="1.0" encoding="UTF-8" standalone="no"?>
<!-- Created with Inkscape (http://www.inkscape.org/) -->
<svg xmlns:dc="http://purl.org/dc/elements/1.1/" xmlns:cc="http://creativecommons.org/ns#" xmlns:rdf="http://www.w3.org/1999/02/22-rdf-syntax-ns#" xmlns:svg="http://www.w3.org/2000/svg" xmlns="http://www.w3.org/2000/svg" xmlns:xlink="http://www.w3.org/1999/xlink" xmlns:sodipodi="http://sodipodi.sourceforge.net/DTD/sodipodi-0.dtd" xmlns:inkscape="http://www.inkscape.org/namespaces/inkscape" width="367.6955" height="371.73615" id="svg2" version="1.1" inkscape:version="0.48.2 r9819" sodipodi:docname="Nuevo documento 1">
  <defs id="defs4">
    <linearGradient inkscape:collect="always" id="linearGradient4967">
      <stop style="stop-color:#ff0000;stop-opacity:1;" offset="0" id="stop4969"/>
      <stop style="stop-color:#ff0000;stop-opacity:0;" offset="1" id="stop4971"/>
    </linearGradient>
    <linearGradient inkscape:collect="always" id="linearGradient4865">
      <stop style="stop-color:#225500;stop-opacity:1;" offset="0" id="stop4867"/>
      <stop style="stop-color:#225500;stop-opacity:0;" offset="1" id="stop4869"/>
    </linearGradient>
    <linearGradient inkscape:collect="always" id="linearGradient4553">
      <stop style="stop-color:#808000;stop-opacity:1;" offset="0" id="stop4555"/>
      <stop style="stop-color:#225500;stop-opacity:1" offset="1" id="stop4557"/>
    </linearGradient>
    <linearGradient inkscape:collect="always" id="linearGradient4243">
      <stop style="stop-color:#ab0000;stop-opacity:1" offset="0" id="stop4245"/>
      <stop style="stop-color:#dc0201;stop-opacity:0" offset="1" id="stop4247"/>
    </linearGradient>
    <filter inkscape:collect="always" id="filter3983" color-interpolation-filters="sRGB">
      <feGaussianBlur inkscape:collect="always" stdDeviation="1.9330188" id="feGaussianBlur3985"/>
    </filter>
    <linearGradient inkscape:collect="always" xlink:href="#linearGradient4967" id="linearGradient3993" x1="496.87793" y1="481.98007" x2="427.3118" y2="516.34631" gradientUnits="userSpaceOnUse"/>
    <filter inkscape:collect="always" id="filter4007" color-interpolation-filters="sRGB">
      <feGaussianBlur inkscape:collect="always" stdDeviation="5.163298" id="feGaussianBlur4009"/>
    </filter>
    <linearGradient inkscape:collect="always" xlink:href="#linearGradient4243" id="linearGradient4249" x1="269.47891" y1="559.29742" x2="399.83084" y2="547.1756" gradientUnits="userSpaceOnUse"/>
    <filter inkscape:collect="always" id="filter4411" x="-0.052795023" width="1.10559" y="-0.1193143" height="1.2386286" color-interpolation-filters="sRGB">
      <feGaussianBlur inkscape:collect="always" stdDeviation="1.2606231" id="feGaussianBlur4413"/>
    </filter>
    <filter inkscape:collect="always" id="filter4535" x="-0.62614912" width="2.2522984" y="-0.40682051" height="1.813641" color-interpolation-filters="sRGB">
      <feGaussianBlur inkscape:collect="always" stdDeviation="6.9443627" id="feGaussianBlur4537"/>
    </filter>
    <linearGradient inkscape:collect="always" xlink:href="#linearGradient4553" id="linearGradient4559" x1="335.25073" y1="435.41803" x2="345.61377" y2="435.41803" gradientUnits="userSpaceOnUse"/>
    <filter inkscape:collect="always" id="filter4643" x="-0.063499451" width="1.1269989" y="-0.3609651" height="1.7219301" color-interpolation-filters="sRGB">
      <feGaussianBlur inkscape:collect="always" stdDeviation="0.20552285" id="feGaussianBlur4645"/>
    </filter>
    <filter inkscape:collect="always" id="filter4717" x="-0.41144434" width="1.8228887" y="-0.12623864" height="1.2524773" color-interpolation-filters="sRGB">
      <feGaussianBlur inkscape:collect="always" stdDeviation="1.6531251" id="feGaussianBlur4719"/>
    </filter>
    <filter inkscape:collect="always" id="filter4783" x="-0.2906369" width="1.5812738" y="-0.10773625" height="1.2154725" color-interpolation-filters="sRGB">
      <feGaussianBlur inkscape:collect="always" stdDeviation="0.92986616" id="feGaussianBlur4785"/>
    </filter>
    <filter inkscape:collect="always" id="filter4853" x="-0.078263015" width="1.156526" y="-0.42121437" height="1.8424287" color-interpolation-filters="sRGB">
      <feGaussianBlur inkscape:collect="always" stdDeviation="1.4790781" id="feGaussianBlur4855"/>
    </filter>
    <linearGradient inkscape:collect="always" xlink:href="#linearGradient4865" id="linearGradient4871" x1="338.75" y1="454.59433" x2="350.53571" y2="451.73718" gradientUnits="userSpaceOnUse"/>
    <linearGradient inkscape:collect="always" xlink:href="#linearGradient4967" id="linearGradient4973" x1="356.3367" y1="656.38782" x2="352.66266" y2="594.76849" gradientUnits="userSpaceOnUse"/>
    <filter inkscape:collect="always" id="filter5138" x="-0.066755019" width="1.13351" y="-0.28261584" height="1.5652317" color-interpolation-filters="sRGB">
      <feGaussianBlur inkscape:collect="always" stdDeviation="1.432946" id="feGaussianBlur5140"/>
    </filter>
    <filter inkscape:collect="always" id="filter5182" x="-0.11045341" width="1.2209069" y="-0.12851115" height="1.2570223" color-interpolation-filters="sRGB">
      <feGaussianBlur inkscape:collect="always" stdDeviation="10.331101" id="feGaussianBlur5184"/>
    </filter>
    <filter inkscape:collect="always" id="filter5210" x="-0.13992381" width="1.2798476" y="-0.17624977" height="1.3524995" color-interpolation-filters="sRGB">
      <feGaussianBlur inkscape:collect="always" stdDeviation="5.32498" id="feGaussianBlur5212"/>
    </filter>
    <filter inkscape:collect="always" id="filter5285" x="-0.20648097" width="1.4129618" y="-0.12691024" height="1.2538205" color-interpolation-filters="sRGB">
      <feGaussianBlur inkscape:collect="always" stdDeviation="3.871518" id="feGaussianBlur5287"/>
    </filter>
    <filter inkscape:collect="always" id="filter5328" color-interpolation-filters="sRGB">
      <feGaussianBlur inkscape:collect="always" stdDeviation="0.52901787" id="feGaussianBlur5330"/>
    </filter>
    <filter inkscape:collect="always" id="filter5350" color-interpolation-filters="sRGB">
      <feGaussianBlur inkscape:collect="always" stdDeviation="0.4933035" id="feGaussianBlur5352"/>
    </filter>
    <filter inkscape:collect="always" id="filter5380" color-interpolation-filters="sRGB">
      <feGaussianBlur inkscape:collect="always" stdDeviation="0.55982145" id="feGaussianBlur5382"/>
    </filter>
    <filter inkscape:collect="always" id="filter5396" color-interpolation-filters="sRGB">
      <feGaussianBlur inkscape:collect="always" stdDeviation="0.5071429" id="feGaussianBlur5398"/>
    </filter>
    <filter inkscape:collect="always" id="filter5444" x="-0.075454175" width="1.1509084" y="-0.52674866" height="2.0534973" color-interpolation-filters="sRGB">
      <feGaussianBlur inkscape:collect="always" stdDeviation="1.6000329" id="feGaussianBlur5446"/>
    </filter>
    <filter inkscape:collect="always" id="filter5476" x="-0.13307865" width="1.2661573" y="-0.061367877" height="1.1227359" color-interpolation-filters="sRGB">
      <feGaussianBlur inkscape:collect="always" stdDeviation="0.88125012" id="feGaussianBlur5478"/>
    </filter>
    <filter inkscape:collect="always" id="filter5606" x="-0.45950255" width="1.9190052" y="-0.59146768" height="2.1829352" color-interpolation-filters="sRGB">
      <feGaussianBlur inkscape:collect="always" stdDeviation="15.584264" id="feGaussianBlur5608"/>
    </filter>
    <filter inkscape:collect="always" id="filter5646" x="-0.23348273" width="1.4669656" y="-0.30053693" height="1.6010739" color-interpolation-filters="sRGB">
      <feGaussianBlur inkscape:collect="always" stdDeviation="7.9186864" id="feGaussianBlur5648"/>
    </filter>
    <filter inkscape:collect="always" id="filter5821" x="-0.18092585" width="1.3618517" y="-2.1982493" height="5.3964986">
      <feGaussianBlur inkscape:collect="always" stdDeviation="18.504726" id="feGaussianBlur5823"/>
    </filter>
    <filter inkscape:collect="always" id="filter5898" x="-0.16576075" width="1.3315215" y="-1.3648064" height="3.7296127">
      <feGaussianBlur inkscape:collect="always" stdDeviation="13.744334" id="feGaussianBlur5900"/>
    </filter>
  </defs>
  <sodipodi:namedview id="base" pagecolor="#ffffff" bordercolor="#666666" borderopacity="1.0" inkscape:pageopacity="0.0" inkscape:pageshadow="2" inkscape:zoom="0.98994949" inkscape:cx="121.6862" inkscape:cy="176.56813" inkscape:document-units="px" inkscape:current-layer="layer1" showgrid="false" fit-margin-top="0" fit-margin-left="0" fit-margin-right="0" fit-margin-bottom="0" inkscape:window-width="1366" inkscape:window-height="682" inkscape:window-x="0" inkscape:window-y="25" inkscape:window-maximized="1"/>
  <g inkscape:label="Capa 1" inkscape:groupmode="layer" id="layer1" transform="translate(-177.78685,-349.29599)">
    <rect style="fill:#ffffff;fill-opacity:1;stroke:none" id="rect5661" width="367.6955" height="371.73615" x="177.78685" y="349.29599"/>
    <path style="fill:#ff8776;fill-opacity:1;stroke:none" d="m 350.35715,458.25504 c -42.46005,2.75277 -75.09615,14.74936 -90.17858,33.03571 -49.03847,53.67456 -9.22793,145.92644 60.53572,161.07143 22.22037,4.13274 47.59972,4.34639 70,1.42857 6.38514,-0.16675 14.80515,-3.91691 21.47703,-6.63166 88.3668,-35.956 91.57544,-156.08405 21.38011,-190.51119 -28.5053,-11.04164 -53.58073,-8.41052 -83.21428,1.60714 z" id="path3047" inkscape:connector-curvature="0" sodipodi:nodetypes="ccccscc"/>
    <path style="fill:#ff3f01;fill-opacity:1;stroke:none;filter:url(#filter5182)" d="m 424.76915,460.91787 c 3.59029,7.4254 9.94378,15.18646 2.0203,21.2132 -7.80204,1.50248 -15.18058,6.81646 -24.24366,-3.03046 -22.41298,43.5514 -57.86897,33.62647 -93.43911,23.23351 -0.66873,-15.91413 10.7503,-23.03717 24.74874,-28.28427 l -9.09138,-1.51523 c -10.69181,5.96383 -20.32042,12.83897 -21.71828,26.76904 -47.07392,8.73352 -66.89288,47.16513 -31.81981,79.80205 8.40371,15.18074 21.27053,30.02157 37.37565,29.7995 -6.57026,10.7984 -8.91642,22.20025 -6.06091,34.34519 21.17631,5.40358 41.46291,15.25571 65.15484,8.08122 17.63785,0.97338 31.24852,-7.45001 44.95178,-15.65736 54.10443,-28.05708 53.50206,-62.64173 65.15484,-92.42896 1.34036,-34.11854 -17.94287,-70.62227 -53.033,-82.32743 z" id="path3909" inkscape:connector-curvature="0" sodipodi:nodetypes="cccccccccccccc"/>
    <path style="fill:#ff9c91;fill-opacity:1;stroke:none;filter:url(#filter5646)" d="m 365.67522,521.02194 c 19.67039,-11.92875 60.82582,-12.12327 78.28682,-7.07106 2.94265,13.09976 4.73313,26.66039 1.01016,42.4264 -17.97002,6.77132 -31.78571,17.00459 -57.07362,17.67767 -14.07511,-13.51059 -18.77219,-32.88245 -22.22336,-53.03301 z" id="path3817" inkscape:connector-curvature="0" sodipodi:nodetypes="ccccc"/>
    <path style="fill:url(#linearGradient4249);fill-opacity:1;stroke:none;filter:url(#filter5210)" d="m 304.05592,506.87981 c -22.03217,9.83615 -48.35014,16.81509 -35.35534,50.00255 18.54285,13.85873 42.62255,24.39534 87.88327,22.22335 -1.40112,-30.65194 -6.50248,-60.15165 -52.52793,-72.2259 z" id="path3855" inkscape:connector-curvature="0" sodipodi:nodetypes="cccc"/>
    <path style="fill:#ffffff;fill-opacity:1;stroke:none;filter:url(#filter4535)" d="m 282.33764,490.71737 c -32.43695,-1.37782 -26.37209,22.75632 -25.75889,40.91118 1.52113,-20.3701 26.60522,-25.17798 25.75889,-40.91118 z" id="path3911" inkscape:connector-curvature="0" sodipodi:nodetypes="ccc"/>
    <path style="fill:url(#linearGradient3993);fill-opacity:1;stroke:none;filter:url(#filter3983)" d="m 428.30468,462.93817 c 32.82336,3.97727 60.51794,50.30072 47.98225,80.30713 -29.48055,56.19657 -28.41441,13.25355 -25.3268,-1.49198 0.78818,-39.93789 -9.75637,-33.84113 -54.85211,-33.37817 -1.00644,-6.49054 0.82982,-13.71016 6.2134,-21.50451 5.17487,-7.49216 34.33547,1.65725 25.98326,-23.93247 z" id="path3913" inkscape:connector-curvature="0" sodipodi:nodetypes="cccccc"/>
    <path style="fill:#eb3300;fill-opacity:1;stroke:none;filter:url(#filter4411)" d="m 376.02929,464.95848 c -7.22109,8.69684 -30.77322,10.82579 -38.23787,9.20866 l 1.3673,5.43855 c 4.8824,1.37965 9.76481,-2.1379 14.64721,-3.78807 6.84449,1.53451 13.4307,3.71472 18.94036,8.58629 5.80936,0.59034 3.56747,-7.76513 3.78807,-13.38452 7.74919,-3.84949 19.94687,-7.40241 18.43529,-11.86929 -7.99587,-0.58749 -13.59627,2.41821 -18.94036,5.80838 z" id="path3915" inkscape:connector-curvature="0" sodipodi:nodetypes="cccccccc"/>
    <path style="fill:#19290f;fill-opacity:1;stroke:none" d="m 382.25,422.6875 c -0.13089,0.009 -0.25937,0.0377 -0.40625,0.0937 -5.53951,12.05744 -12.64241,27.72231 -25.34375,41.84375 -0.01,0.011 -0.0213,0.0202 -0.0313,0.0313 -3.06934,1.87669 -6.79384,3.09538 -11.6875,3.09375 -1.56681,-0.45294 -3.10615,-0.91339 -4.65625,-1.375 1.11916,-0.93307 1.3994,-2.27639 1.0625,-3.9375 -4.64722,-4.0072 -24.39184,-9.73701 -22.0625,-1.3125 -1.96281,-0.30403 -3.96196,-0.53643 -6,-0.6875 -17.30664,-5.06134 -34.59688,-9.89678 -47.8125,12.65625 -1.12434,0.62925 -2.28186,1.28365 -3.4375,1.96875 1.02358,-0.42663 2.01423,-0.8202 3,-1.21875 -2.02975,3.58154 -3.96282,7.83579 -5.78125,12.84375 3.23078,-5.9353 6.49117,-10.65896 9.75,-14.40625 40.14745,-15.49295 47.1823,-6.2546 59.71875,2.28125 17.62517,0.62961 37.04469,2.5203 46.96875,-9.09375 7.92267,-4.96512 12.39469,-10.26626 18.9375,-15.15625 0.15003,-2.27035 -0.69453,-2.90548 -1.53125,-3.53125 -4.40359,3.93351 -10.52851,6.86868 -18.46875,8.78125 0.71528,-1.79651 1.36678,-3.73387 2,-5.78125 0.004,-0.0128 0.0273,-0.0185 0.0313,-0.0313 2.33818,-1.74164 5.46883,-2.86187 8.5,-3.71875 -0.62445,-0.0267 -1.22722,-0.0489 -1.8125,-0.0313 -2.21742,0.067 -4.16176,0.45474 -5.90625,1.0625 1.63246,-5.73338 3.06833,-12.0861 4.5625,-18.21875 2.54759,16.1474 5.62812,15.9367 8.84375,11.375 -7.69331,3.92573 -4.3798,-17.79962 -8.4375,-17.53125 z m -58.125,36.375 c 2.51328,-0.21731 5.25454,1.97579 8.0625,5 -3.81078,-1.05519 -7.66025,-2.00385 -11.625,-2.6875 1.1212,-1.4872 2.3159,-2.20471 3.5625,-2.3125 z m -30.65625,0.75 c 2.43843,0.022 4.86789,0.37074 7.3125,0.875 -8.81664,0.96424 -18.61959,3.76988 -30.0625,9.53125 7.52241,-7.767 15.12713,-10.47498 22.75,-10.40625 z" id="path3917" inkscape:connector-curvature="0"/>
    <path style="fill:#19290f;fill-opacity:1;stroke:none" d="m 338.14856,467.23132 c 0.67344,-14.31049 -0.33671,-24.58038 -3.03045,-30.80965 0.69872,-3.57745 9.25039,-2.91943 10.6066,-1.51523 5.88009,11.00568 8.23784,20.60242 10.85914,30.30458 -4.12583,3.90425 -10.9744,3.45214 -18.43529,2.0203 z" id="path3919" inkscape:connector-curvature="0" sodipodi:nodetypes="ccccc"/>
    <path style="fill:url(#linearGradient4559);fill-opacity:1;stroke:none" d="m 335.25072,436.36937 c 2.94641,0.66671 6.97949,0.5572 10.36304,-1.3673 -3.38803,-1.32582 -9.34843,-1.44967 -10.36304,1.3673 z" id="path4551" inkscape:connector-curvature="0" sodipodi:nodetypes="ccc"/>
    <path style="fill:none;stroke:#000000;stroke-width:0.2;stroke-linecap:butt;stroke-linejoin:miter;stroke-miterlimit:4;stroke-opacity:1;stroke-dasharray:none;filter:url(#filter4643)" d="m 335.9375,436.02289 c 4.07453,-2.41778 5.41271,-0.90205 7.76786,-0.84821" id="path4561" inkscape:connector-curvature="0" sodipodi:nodetypes="cc"/>
    <path sodipodi:nodetypes="cc" inkscape:connector-curvature="0" id="path4647" d="m 335.9375,436.02289 c 5.05148,-1.44083 7.00944,-0.95711 9.28572,-0.98214" style="fill:none;stroke:#000000;stroke-width:0.2;stroke-linecap:butt;stroke-linejoin:miter;stroke-miterlimit:4;stroke-opacity:1;stroke-dasharray:none;filter:url(#filter4643)"/>
    <path style="fill:none;stroke:#000000;stroke-width:0.2;stroke-linecap:butt;stroke-linejoin:miter;stroke-miterlimit:4;stroke-opacity:1;stroke-dasharray:none;filter:url(#filter4643)" d="m 335.9375,436.02289 c 3.30088,0.6768 5.60809,-0.29964 8.03572,-0.53571" id="path4649" inkscape:connector-curvature="0" sodipodi:nodetypes="cc"/>
    <path style="fill:#000000;fill-opacity:1;stroke:none;filter:url(#filter4717)" d="m 337.67857,438.79075 c 2.41323,1.07143 5.14108,31.42857 3.39286,31.42857 l 6.25,-0.35714 c -0.48855,-9.96775 -2.53209,-20.15765 -9.64286,-31.07143 z" id="path4651" inkscape:connector-curvature="0" sodipodi:nodetypes="cccc"/>
    <path style="fill:none;stroke:#000000;stroke-width:1px;stroke-linecap:butt;stroke-linejoin:miter;stroke-opacity:1;filter:url(#filter4783)" d="m 346.60714,447.00504 c 5.07874,8.34431 5.66076,14.11906 7.67858,20.71428" id="path4721" inkscape:connector-curvature="0" sodipodi:nodetypes="cc"/>
    <path style="fill:#000000;fill-opacity:1;stroke:none;filter:url(#filter4853)" d="m 329.10714,473.25504 c 18.80492,-0.48913 34.63437,-2.55352 45.35715,-7.32143 -11.01792,6.9733 -25.3076,10.33045 -45.35715,7.32143 z" id="path4787" inkscape:connector-curvature="0" sodipodi:nodetypes="ccc"/>
    <path style="fill:#225500;stroke:none;filter:url(#filter5396)" d="m 380.35714,429.86218 c -3.93894,12.96583 -6.05116,27.75837 -13.92857,36.78572 z" id="path4857" inkscape:connector-curvature="0" sodipodi:nodetypes="ccc"/>
    <path style="fill:#2d5016;stroke:none" d="m 269.64286,468.43361 c 10.18237,-14.33005 24.565,-11.85906 38.92857,-9.46429 -14.09923,-1.89892 -27.66035,-1.37633 -38.92857,9.46429 z" id="path4859" inkscape:connector-curvature="0" sodipodi:nodetypes="ccc"/>
    <path style="fill:#338000;stroke:none;filter:url(#filter5444)" d="m 339.46429,468.96932 c -15.57749,-4.93606 -29.9779,-8.72373 -50.89286,-4.28571 18.51499,-5.54959 35.23046,-3.00136 50.89286,4.28571 z" id="path4861" inkscape:connector-curvature="0" sodipodi:nodetypes="ccc"/>
    <path style="fill:url(#linearGradient4871);fill-opacity:1;stroke:none;filter:url(#filter5476)" d="m 338.75,438.25504 5,-0.89286 c 4.8965,10.12587 8.8947,20.5004 10.89286,31.42857 -2.90392,-1.09272 -4.59014,1.46768 -6.60714,3.03572 -1.06445,-10.9197 -1.33552,-21.73363 -9.28572,-33.57143 z" id="path4863" inkscape:connector-curvature="0" sodipodi:nodetypes="ccccc"/>
    <path style="fill:url(#linearGradient4973);fill-opacity:1;stroke:none;filter:url(#filter4007)" d="m 286.90625,593.25 c 5.40766,8.87263 11.77518,15.79293 21.6875,15.65625 -6.57026,10.7984 -8.91801,22.19881 -6.0625,34.34375 21.17631,5.40358 41.46432,15.26824 65.15625,8.09375 17.63785,0.97338 41.36702,-2.39814 55.07028,-10.60549 23.25134,-18.15595 20.40536,-36.72949 28.62975,-51.52887 -54.90745,10.97621 -102.90689,21.06556 -164.48128,4.04061 z" id="path4962" inkscape:connector-curvature="0" sodipodi:nodetypes="ccccccc"/>
    <path style="fill:#501616;stroke:none;filter:url(#filter5138)" d="m 343.45186,471.0194 c -27.33421,-2.07147 -61.89971,10.32575 -63.13453,11.86928 17.99004,-13.10456 46.47639,-14.08155 63.13453,-11.86928 z" id="path5100" inkscape:connector-curvature="0" sodipodi:nodetypes="ccc"/>
    <path style="fill:#d40000;stroke:none;filter:url(#filter5285)" d="m 433.21429,464.86218 c 42.34642,18.81118 43.52575,46.0429 45,73.21429 -5.23081,-26.74937 -16.11348,-52.14229 -45,-73.21429 z" id="path5231" inkscape:connector-curvature="0" sodipodi:nodetypes="ccc"/>
    <path sodipodi:nodetypes="ccccccc" inkscape:connector-curvature="0" id="path5289" d="m 376.02929,464.95848 c -7.22109,8.69684 -30.77322,10.82579 -38.23787,9.20866 l 6.16552,2.91317 c 4.8824,1.37965 5.47167,-1.12775 10.35407,-2.77792 8.97334,-1.073 21.13129,0.72281 21.46574,-6.06092 7.74919,-3.84949 12.37072,-2.09911 10.85914,-6.56599 -7.99587,-0.58749 -5.26251,-0.10717 -10.6066,3.283 z" style="fill:#800000;fill-opacity:1;stroke:none;filter:url(#filter4411)"/>
    <path style="fill:#000000;fill-opacity:1;stroke:none;filter:url(#filter5328)" d="m 374.64286,441.29075 c -4.61297,9.41378 -5.8093,21.2192 -14.64286,27.67857 6.82116,-8.83815 9.93564,-18.41763 14.64286,-27.67857 z" id="path5294" inkscape:connector-curvature="0" sodipodi:nodetypes="ccc"/>
    <path style="fill:none;stroke:none;filter:url(#filter5350)" d="m 393.57143,450.04075 c -0.53571,1.60715 -23.03571,16.42857 -23.03571,16.42857 10.58386,-3.40098 15.44281,-10.89119 23.03571,-16.42857 z" id="path5332" inkscape:connector-curvature="0" sodipodi:nodetypes="ccc"/>
    <path style="fill:#000000;fill-opacity:1;stroke:none;filter:url(#filter5380)" d="m 393.75,450.21932 c -6.81494,5.75704 -13.64801,11.57757 -20,15.71429 -6.50901,4.29201 -2.28926,-0.19407 -1.60714,-1.78571 0.78082,-0.41096 1.56165,-0.83875 2.34247,-1.28116 0.53851,-0.30511 5.45202,-5.34931 5.99053,-5.6676 0.31036,-0.18343 -3.75429,4.36321 -3.44394,4.17578 5.5727,-3.36547 11.14539,-7.35255 16.71808,-11.1556 z" id="path5354" inkscape:connector-curvature="0" sodipodi:nodetypes="cccsssc"/>
    <path sodipodi:nodetypes="ccccc" inkscape:connector-curvature="0" id="path5480" d="m 365.67522,521.02194 c 19.67039,-11.92875 84.00624,-31.9922 101.46724,-26.93999 29.43455,-11.7364 -0.23411,46.52932 -3.95708,62.29533 -17.97002,6.77132 -49.99889,17.00459 -75.2868,17.67767 -14.07511,-13.51059 -18.77219,-32.88245 -22.22336,-53.03301 z" style="fill:#ffffff;fill-opacity:1;stroke:none;filter:url(#filter5606)" transform="matrix(0.43139866,0,0,0.43139866,231.06471,308.43028)"/>
  </g>
  <metadata>
    <rdf:RDF>
      <cc:Work>
        <dc:format>image/svg+xml</dc:format>
        <dc:type rdf:resource="http://purl.org/dc/dcmitype/StillImage"/>
        <cc:license rdf:resource="http://creativecommons.org/licenses/publicdomain/"/>
        <dc:publisher>
          <cc:Agent rdf:about="http://openclipart.org/">
            <dc:title>Openclipart</dc:title>
          </cc:Agent>
        </dc:publisher>
        <dc:title>Tomate</dc:title>
        <dc:date>2013-11-24T15:40:53</dc:date>
        <dc:description/>
        <dc:source>http://openclipart.org/detail/189097/tomate-by-roshellin-189097</dc:source>
        <dc:creator>
          <cc:Agent>
            <dc:title>roshellin</dc:title>
          </cc:Agent>
        </dc:creator>
        <dc:subject>
          <rdf:Bag>
            <rdf:li>tomato</rdf:li>
            <rdf:li>fruit</rdf:li>
            <rdf:li>roshellin</rdf:li>
            <rdf:li>tomatoe</rdf:li>
            <rdf:li>fruta</rdf:li>
            <rdf:li>tomate</rdf:li>
          </rdf:Bag>
        </dc:subject>
      </cc:Work>
      <cc:License rdf:about="http://creativecommons.org/licenses/publicdomain/">
        <cc:permits rdf:resource="http://creativecommons.org/ns#Reproduction"/>
        <cc:permits rdf:resource="http://creativecommons.org/ns#Distribution"/>
        <cc:permits rdf:resource="http://creativecommons.org/ns#DerivativeWorks"/>
      </cc:License>
    </rdf:RDF>
  </metadata>
</svg>
