<?xml version="1.0" encoding="iso-8859-1"?>
<!-- Generator: Adobe Illustrator 18.0.0, SVG Export Plug-In . SVG Version: 6.00 Build 0)  -->
<!DOCTYPE svg PUBLIC "-//W3C//DTD SVG 1.1//EN" "http://www.w3.org/Graphics/SVG/1.1/DTD/svg11.dtd">
<svg version="1.1" id="Capa_1" xmlns="http://www.w3.org/2000/svg" xmlns:xlink="http://www.w3.org/1999/xlink" x="0px" y="0px"
	 viewBox="0 0 458.892 458.892" style="enable-background:new 0 0 458.892 458.892;" xml:space="preserve">
<path d="M372.087,118.01h-26.631v-18.002h-33.003v18.002h-66.505V57.006h18.002V24.002h-18.002V0h-33.003v24.002h-18.002v33.003
	h18.002v61.004h-66.505v-18.002h-33.003v18.002H86.805v33.003h26.631v18.002h33.003v-18.002h66.505v272.32
	c0,11.765,3.778,23.219,10.778,32.675l0,0c2.847,3.846,8.6,3.846,11.447,0l0,0c7-9.456,10.778-20.91,10.778-32.675v-272.32h66.505
	v18.002h33.003v-18.002h26.631V118.01z"/>
<g>
</g>
<g>
</g>
<g>
</g>
<g>
</g>
<g>
</g>
<g>
</g>
<g>
</g>
<g>
</g>
<g>
</g>
<g>
</g>
<g>
</g>
<g>
</g>
<g>
</g>
<g>
</g>
<g>
</g>
</svg>
