<?xml version="1.0" encoding="iso-8859-1"?>
<!-- Generator: Adobe Illustrator 18.0.0, SVG Export Plug-In . SVG Version: 6.00 Build 0)  -->
<!DOCTYPE svg PUBLIC "-//W3C//DTD SVG 1.1//EN" "http://www.w3.org/Graphics/SVG/1.1/DTD/svg11.dtd">
<svg version="1.1" id="Capa_1" xmlns="http://www.w3.org/2000/svg" xmlns:xlink="http://www.w3.org/1999/xlink" x="0px" y="0px"
	 viewBox="0 0 448.027 448.027" style="enable-background:new 0 0 448.027 448.027;" xml:space="preserve">
<path d="M254.758,233.28c39.572,1.5,79.144,5.893,118.704,13.191v-87.45c-38.113,7.029-76.227,11.36-114.352,13.007l25.58-25.58
	c33.458-33.458,33.458-87.897,0-121.354c-33.457-33.458-87.896-33.458-121.354,0c-33.458,33.458-33.458,87.897,0,121.354
	l25.581,25.581c-38.117-1.646-76.234-5.978-114.352-13.008v87.45c39.572-7.297,79.132-11.69,118.692-13.191
	c0.145-0.006,0.291-0.009,0.436-0.015c1.717,71.59-2.759,143.18-13.411,214.762h87.45c-10.652-71.582-15.128-143.172-13.411-214.762
	C254.467,233.271,254.612,233.274,254.758,233.28z M186.671,48.428c10.296-10.295,23.819-15.443,37.343-15.443
	s27.047,5.148,37.343,15.443c20.591,20.591,20.591,54.094,0,74.685l-37.343,37.343l-37.343-37.343
	C166.08,102.522,166.08,69.018,186.671,48.428z"/>
<g>
</g>
<g>
</g>
<g>
</g>
<g>
</g>
<g>
</g>
<g>
</g>
<g>
</g>
<g>
</g>
<g>
</g>
<g>
</g>
<g>
</g>
<g>
</g>
<g>
</g>
<g>
</g>
<g>
</g>
</svg>
