<?xml version="1.0" encoding="iso-8859-1"?>
<!-- Generator: Adobe Illustrator 18.0.0, SVG Export Plug-In . SVG Version: 6.00 Build 0)  -->
<!DOCTYPE svg PUBLIC "-//W3C//DTD SVG 1.1//EN" "http://www.w3.org/Graphics/SVG/1.1/DTD/svg11.dtd">
<svg version="1.1" id="Capa_1" xmlns="http://www.w3.org/2000/svg" xmlns:xlink="http://www.w3.org/1999/xlink" x="0px" y="0px"
	 viewBox="0 0 433.327 433.327" style="enable-background:new 0 0 433.327 433.327;" xml:space="preserve">
<g>
	<path d="M216.609,145.941c18.609,0,33.749-6.196,33.749-51.735c0-28.687-13.921-64.229-24.423-86.959
		c-4.464-9.662-14.188-9.662-18.652,0c-10.501,22.729-24.423,58.272-24.423,86.959C182.86,139.745,198,145.941,216.609,145.941z"/>
	<path d="M216.609,152.847c-11.333,14.608-49.495,66.724-49.495,106.005c0,45.611,22.203,82.717,49.495,82.717
		c27.291,0,49.495-37.106,49.495-82.717C266.104,219.571,227.942,167.456,216.609,152.847z"/>
	<path d="M104.305,335.335c8.296,4.046,16.259,6.114,23.524,6.228c-2.516-1.495-5.029-3.181-7.524-5.08
		c-15.92-12.115-29.42-31.084-38.013-53.414c-7.41-19.254-8.042-46.536-1.88-81.089c0.542-3.042,1.114-5.998,1.7-8.852
		c-15.758-7.812-29.964-13.267-37.057-15.832c-1.768,18.404-6.158,82.849,14.842,116.045
		C71.89,312.303,87.662,327.217,104.305,335.335z"/>
	<path d="M130.135,269.442c4.345,22.012,13.674,41.612,26.268,55.188c11.343,12.229,24.001,18.105,35.921,16.748
		c-6.302-4.58-12.075-10.963-17.05-19.023c-10.508-17.025-16.295-39.578-16.295-63.503c0-20.522,9.119-46.054,27.091-75.885
		c-11.529-12.481-22.368-22.292-27.907-27.109C149.875,172.384,122.528,230.906,130.135,269.442z"/>
	<path d="M125.232,330.008c12.838,9.769,25.864,13.451,37.121,10.622c-4.093-2.848-8.086-6.338-11.916-10.467
		c-13.605-14.667-23.651-35.672-28.284-59.145c-3.995-20.24,0.064-47.226,12.063-80.208c0.218-0.597,0.436-1.188,0.654-1.778
		c-15.283-12.141-29.855-21.361-36.865-25.595c-5.33,17.704-22.229,80.051-8.12,116.71
		C97.942,301.087,110.496,318.795,125.232,330.008z"/>
	<path d="M388.273,177.297c-7.093,2.565-21.299,8.021-37.057,15.832c0.586,2.854,1.158,5.81,1.7,8.852
		c6.162,34.553,5.53,61.835-1.88,81.089c-8.593,22.329-22.094,41.298-38.013,53.414c-2.496,1.899-5.008,3.585-7.524,5.08
		c7.265-0.114,15.228-2.182,23.524-6.228c16.643-8.118,32.415-23.032,44.41-41.994C394.431,260.146,390.041,195.701,388.273,177.297
		z"/>
	<path d="M274.348,258.852c0,23.926-5.787,46.478-16.295,63.503c-4.975,8.06-10.748,14.443-17.05,19.023
		c11.919,1.357,24.578-4.52,35.921-16.748c12.594-13.577,21.923-33.176,26.268-55.188c7.608-38.537-19.739-97.058-28.027-113.584
		c-5.539,4.817-16.378,14.628-27.907,27.109C265.229,212.799,274.348,238.33,274.348,258.852z"/>
	<path d="M311.174,271.018c-4.634,23.473-14.679,44.478-28.284,59.145c-3.83,4.129-7.823,7.619-11.916,10.467
		c11.257,2.829,24.283-0.853,37.121-10.622c14.736-11.214,27.29-28.921,35.348-49.862c14.108-36.659-2.79-99.006-8.12-116.71
		c-7.01,4.235-21.583,13.455-36.865,25.595c0.218,0.59,0.437,1.181,0.654,1.778C311.11,223.793,315.169,250.778,311.174,271.018z"/>
	<path d="M216.609,358.294c0,0-49.495-30.93-49.495,14.681c0,39.281,38.162,45.744,49.495,60.353
		c11.333-14.608,49.495-21.072,49.495-60.353C266.104,327.363,216.609,358.294,216.609,358.294z"/>
	<path d="M311.531,370.95c-16.272-25.312-41.584-18.984-41.584-18.984c8.336,15.485,4.52,34.353,0.904,43.393
		c35.256,12.656,66.883-8.976,66.883-8.976C327.069,384.173,317.116,379.639,311.531,370.95z"/>
	<path d="M339.303,350.029c-11.163-0.503-22.339,0.642-33.084,3.712l-0.113,0.032c0,0,5.424,7.232,11.752,14.464
		c6.328,7.232,37.969,1.808,41.585-20.792C353.643,349.932,345.943,350.329,339.303,350.029z"/>
	<path d="M121.688,370.95c-5.586,8.689-15.538,13.223-26.202,15.432c0,0,31.626,21.633,66.883,8.976
		c-3.616-9.04-7.432-27.907,0.904-43.393C163.273,351.965,137.96,345.638,121.688,370.95z"/>
	<path d="M115.36,368.238c6.328-7.232,11.752-14.464,11.752-14.464l-0.113-0.032c-10.744-3.07-21.921-4.215-33.084-3.712
		c-6.64,0.299-14.339-0.098-20.14-2.584C77.392,370.046,109.032,375.47,115.36,368.238z"/>
</g>
<g>
</g>
<g>
</g>
<g>
</g>
<g>
</g>
<g>
</g>
<g>
</g>
<g>
</g>
<g>
</g>
<g>
</g>
<g>
</g>
<g>
</g>
<g>
</g>
<g>
</g>
<g>
</g>
<g>
</g>
</svg>
