<?xml version="1.0" encoding="iso-8859-1"?>
<!-- Generator: Adobe Illustrator 18.0.0, SVG Export Plug-In . SVG Version: 6.00 Build 0)  -->
<!DOCTYPE svg PUBLIC "-//W3C//DTD SVG 1.1//EN" "http://www.w3.org/Graphics/SVG/1.1/DTD/svg11.dtd">
<svg version="1.1" id="Capa_1" xmlns="http://www.w3.org/2000/svg" xmlns:xlink="http://www.w3.org/1999/xlink" x="0px" y="0px"
	 viewBox="0 0 460.58 460.58" style="enable-background:new 0 0 460.58 460.58;" xml:space="preserve">
<path d="M310.269,457.081l-79.979-46.137l-79.979,46.137l-31.61-86.752l-90.924-16.066l31.548-86.776L0,196.735l79.945-46.195
	l0.033-92.332l90.936,16.001l59.376-70.71l59.376,70.71l90.935-16.001l0.033,92.333l79.946,46.195l-59.325,70.752l31.549,86.776
	l-90.924,16.066L310.269,457.081z M230.29,370.538l61.363,35.399l24.254-66.561l69.762-12.327l-24.207-66.579l45.518-54.284
	l-61.338-35.443l-0.025-70.842l-69.771,12.277L230.29,57.926l-45.556,54.252l-69.771-12.277l-0.025,70.842L53.6,206.186
	l45.518,54.284l-24.206,66.579l69.762,12.327l24.253,66.561L230.29,370.538z"/>
<g>
</g>
<g>
</g>
<g>
</g>
<g>
</g>
<g>
</g>
<g>
</g>
<g>
</g>
<g>
</g>
<g>
</g>
<g>
</g>
<g>
</g>
<g>
</g>
<g>
</g>
<g>
</g>
<g>
</g>
</svg>
