<?xml version="1.0" encoding="iso-8859-1"?>
<!-- Generator: Adobe Illustrator 18.0.0, SVG Export Plug-In . SVG Version: 6.00 Build 0)  -->
<!DOCTYPE svg PUBLIC "-//W3C//DTD SVG 1.1//EN" "http://www.w3.org/Graphics/SVG/1.1/DTD/svg11.dtd">
<svg version="1.1" id="Capa_1" xmlns="http://www.w3.org/2000/svg" xmlns:xlink="http://www.w3.org/1999/xlink" x="0px" y="0px"
	 viewBox="0 0 460 460" style="enable-background:new 0 0 460 460;" xml:space="preserve">
<path d="M354.515,113.045c-12.293,2.266-24.586,4.188-36.879,5.782c-9.271-26.432-30.178-47.434-56.549-56.833
	c1.506-20.665,3.281-41.329,5.343-61.994h-72.86c2.062,20.665,3.837,41.329,5.343,61.994c-26.371,9.399-47.278,30.402-56.548,56.833
	c-12.293-1.595-24.586-3.516-36.88-5.782v72.861c12.293-2.266,24.586-4.188,36.88-5.782c9.975,28.441,33.423,50.598,62.653,58.775
	c-0.285,73.701-4.093,147.402-11.448,221.103h72.86c-7.354-73.701-11.163-147.402-11.448-221.103
	c29.231-8.177,52.678-30.334,62.654-58.775c12.293,1.595,24.586,3.516,36.879,5.782V113.045z M291.864,121.685
	c-11.486,1.052-22.973,1.802-34.459,2.268c0.547-11.883,1.18-23.767,1.911-35.651C273.71,95.229,285.284,107.098,291.864,121.685z
	 M200.684,88.303c0.73,11.883,1.364,23.767,1.911,35.65c-11.486-0.466-22.972-1.216-34.458-2.268
	C174.716,107.098,186.29,95.229,200.684,88.303z M168.137,177.265c12.082-1.106,24.163-1.882,36.244-2.34
	c0.299,12.528,0.495,25.057,0.59,37.585C188.601,205.986,175.356,193.271,168.137,177.265z M255.029,212.51
	c0.095-12.529,0.291-25.057,0.59-37.586c12.082,0.458,24.163,1.233,36.245,2.34C284.644,193.271,271.4,205.987,255.029,212.51z"/>
<g>
</g>
<g>
</g>
<g>
</g>
<g>
</g>
<g>
</g>
<g>
</g>
<g>
</g>
<g>
</g>
<g>
</g>
<g>
</g>
<g>
</g>
<g>
</g>
<g>
</g>
<g>
</g>
<g>
</g>
</svg>
