<?xml version="1.0" encoding="iso-8859-1"?>
<!-- Generator: Adobe Illustrator 18.0.0, SVG Export Plug-In . SVG Version: 6.00 Build 0)  -->
<!DOCTYPE svg PUBLIC "-//W3C//DTD SVG 1.1//EN" "http://www.w3.org/Graphics/SVG/1.1/DTD/svg11.dtd">
<svg version="1.1" id="Capa_1" xmlns="http://www.w3.org/2000/svg" xmlns:xlink="http://www.w3.org/1999/xlink" x="0px" y="0px"
	 viewBox="0 0 455.09 455.09" style="enable-background:new 0 0 455.09 455.09;" xml:space="preserve">
<path d="M347.811,118.268c-12.51-34.32-39.315-61.824-73.175-75.273V0h-94.181v42.995c-33.861,13.449-60.665,40.953-73.176,75.273
	H69.677v94.181h40.298c13.426,31.151,38.878,55.946,70.479,68.498V455.09h94.181V280.947c31.601-12.552,57.052-37.347,70.478-68.498
	h40.299v-94.181H347.811z M249.736,118.206c0-13.763,11.137-24.91,24.9-24.931V71.564c19.6,10.251,35.474,26.687,45.01,46.704
	h-20.049c-0.031,13.731-11.179,24.868-24.931,24.868h-0.031c-13.742-0.021-24.868-11.148-24.9-24.868V118.206z M205.354,212.511
	c0,13.762-11.137,24.91-24.9,24.931v14.936c-17.342-9.07-31.768-22.979-41.467-39.929h16.505
	c0.031-13.742,11.179-24.868,24.931-24.868h0.031c13.742,0.021,24.868,11.137,24.9,24.868V212.511z M205.354,118.268
	c-0.031,13.721-11.158,24.848-24.9,24.868h-0.031c-13.752,0-24.899-11.137-24.931-24.868h-20.049
	c9.537-20.017,25.41-36.453,45.011-46.704v21.711c13.763,0.021,24.9,11.168,24.9,24.931V118.268z M274.636,252.378v-14.936
	c-13.763-0.021-24.9-11.168-24.9-24.931v-0.063c0.031-13.731,11.158-24.848,24.9-24.868h0.031c13.752,0,24.899,11.127,24.931,24.868
	h16.505C306.403,229.399,291.977,243.309,274.636,252.378z"/>
<g>
</g>
<g>
</g>
<g>
</g>
<g>
</g>
<g>
</g>
<g>
</g>
<g>
</g>
<g>
</g>
<g>
</g>
<g>
</g>
<g>
</g>
<g>
</g>
<g>
</g>
<g>
</g>
<g>
</g>
</svg>
