<?xml version="1.0" encoding="iso-8859-1"?>
<!-- Generator: Adobe Illustrator 18.0.0, SVG Export Plug-In . SVG Version: 6.00 Build 0)  -->
<!DOCTYPE svg PUBLIC "-//W3C//DTD SVG 1.1//EN" "http://www.w3.org/Graphics/SVG/1.1/DTD/svg11.dtd">
<svg version="1.1" id="Capa_1" xmlns="http://www.w3.org/2000/svg" xmlns:xlink="http://www.w3.org/1999/xlink" x="0px" y="0px"
	 viewBox="0 0 452.978 452.978" style="enable-background:new 0 0 452.978 452.978;" xml:space="preserve">
<path d="M381.469,212.838l-18.849-29.826L249.6,254.438v-86.48h62.598c20.709,0,37.498-16.789,37.498-37.498V37.498
	C349.697,16.789,332.908,0,312.198,0h-125.9v13.572h20.889v140.813h-20.889v13.572h20.889v88.888L90.357,183.013l-18.849,29.826
	l121.959,77.075L71.508,366.988l18.849,29.826l116.829-73.833v129.997H249.6V325.388l113.02,71.426l18.849-29.826L259.51,289.913
	L381.469,212.838z M249.6,13.572h57.683v140.813H249.6V13.572z"/>
<g>
</g>
<g>
</g>
<g>
</g>
<g>
</g>
<g>
</g>
<g>
</g>
<g>
</g>
<g>
</g>
<g>
</g>
<g>
</g>
<g>
</g>
<g>
</g>
<g>
</g>
<g>
</g>
<g>
</g>
</svg>
