<?xml version="1.0" encoding="iso-8859-1"?>
<!-- Generator: Adobe Illustrator 18.0.0, SVG Export Plug-In . SVG Version: 6.00 Build 0)  -->
<!DOCTYPE svg PUBLIC "-//W3C//DTD SVG 1.1//EN" "http://www.w3.org/Graphics/SVG/1.1/DTD/svg11.dtd">
<svg version="1.1" id="Capa_1" xmlns="http://www.w3.org/2000/svg" xmlns:xlink="http://www.w3.org/1999/xlink" x="0px" y="0px"
	 viewBox="0 0 429.306 429.306" style="enable-background:new 0 0 429.306 429.306;" xml:space="preserve">
<g>
	<path d="M15.5,371.653c-8.561,0-15.5-6.939-15.5-15.5c0-50.872,16.333-100.646,46.218-141.5C16.336,173.807,0,124.028,0,73.153
		c0-8.561,6.939-15.5,15.5-15.5S31,64.592,31,73.153c0,41.728,12.619,82.606,35.831,116.934
		c45.11-47.078,107.114-73.723,172.959-73.723c72.462,0,140.271,32.259,186.038,88.507c4.637,5.698,4.637,13.868,0,19.565
		c-45.768,56.248-113.576,88.507-186.038,88.507c-65.841,0-127.843-26.644-172.958-73.723C43.618,273.551,31,314.428,31,356.153
		C31,364.713,24.061,371.653,15.5,371.653z M86.288,214.652c39.513,42.922,94.755,67.29,153.502,67.29
		c58.766,0,114.018-24.37,153.524-67.29c-39.507-42.919-94.76-67.29-153.524-67.29C181.039,147.363,125.795,171.733,86.288,214.652z
		"/>
</g>
<g>
</g>
<g>
</g>
<g>
</g>
<g>
</g>
<g>
</g>
<g>
</g>
<g>
</g>
<g>
</g>
<g>
</g>
<g>
</g>
<g>
</g>
<g>
</g>
<g>
</g>
<g>
</g>
<g>
</g>
</svg>
