<?xml version="1.0" encoding="iso-8859-1"?>
<!-- Generator: Adobe Illustrator 18.0.0, SVG Export Plug-In . SVG Version: 6.00 Build 0)  -->
<!DOCTYPE svg PUBLIC "-//W3C//DTD SVG 1.1//EN" "http://www.w3.org/Graphics/SVG/1.1/DTD/svg11.dtd">
<svg version="1.1" id="Capa_1" xmlns="http://www.w3.org/2000/svg" xmlns:xlink="http://www.w3.org/1999/xlink" x="0px" y="0px"
	 viewBox="0 0 433.29 433.29" style="enable-background:new 0 0 433.29 433.29;" xml:space="preserve">
<g>
	<path d="M404.275,317.07L252.341,198.898c-1.176-0.915-1.864-2.321-1.864-3.811v-10.84c0-1.804,1.006-3.458,2.609-4.288
		l82.463-42.678c10.384-5.374,21.801-8.248,33.355-8.489c9.127-0.19,16.825-6.854,18.377-15.85l0.777-4.506
		c0.664-3.853,0.131-7.817-1.529-11.358l-6.658-14.203c-3.083-6.576-9.627-10.837-16.888-10.994L350.074,71.6
		c-10.473-0.228-19.177,8.019-19.515,18.489v0c-0.211,6.554-3.769,12.542-9.424,15.863l-79.525,46.693
		c-3.219,1.89-7.272-0.431-7.272-4.163V28.067c0-0.975-0.295-1.927-0.846-2.73l-11.24-16.391
		c-6.049-8.821-17.845-11.54-27.144-6.256L175.184,14.01c-2.738,1.556-3.278,5.274-1.095,7.544l18.081,18.804
		c0.865,0.899,1.348,2.099,1.348,3.346v99.653c0,4.089-4.765,6.326-7.911,3.715l-8.21-6.813c-4.819-3.999-11.435-5.056-17.26-2.757
		l-120.283,47.48c-11.509,4.543-16.205,18.319-9.866,28.945l8.955,15.012c5.97,10.008,17.483,15.089,28.707,13.028
		c2.022-0.371,3.578-2.004,3.883-4.037l1.966-13.103c0.251-1.674,1.36-3.094,2.924-3.743l79.523-33.01
		c4.688-1.946,8.818,3.732,5.523,7.593L79.8,291.373c-13.571,15.904-29.846,29.212-48.024,39.338
		c-4.25,2.367-2.732,8.816,2.128,9.034h0c40.725,1.83,79.431-17.812,101.998-51.763l48.767-73.366
		c2.646-3.981,8.849-2.108,8.849,2.673v121.527c0,2.666-2.162,4.828-4.828,4.828h-39.667c-3.971,0-6.244,4.527-3.872,7.712
		l59.586,79.992c1.997,2.681,6.04,2.565,7.901-0.212c14.119-21.064,21.701-45.893,21.701-71.353V233.188
		c0-4.499,5.612-6.553,8.516-3.116l89.363,105.746c1.114,1.318,2.848,1.942,4.546,1.635l65.407-11.821
		C406.279,324.889,407.571,319.633,404.275,317.07z"/>
</g>
<g>
</g>
<g>
</g>
<g>
</g>
<g>
</g>
<g>
</g>
<g>
</g>
<g>
</g>
<g>
</g>
<g>
</g>
<g>
</g>
<g>
</g>
<g>
</g>
<g>
</g>
<g>
</g>
<g>
</g>
</svg>
