<?xml version="1.0" encoding="iso-8859-1"?>
<!-- Generator: Adobe Illustrator 18.0.0, SVG Export Plug-In . SVG Version: 6.00 Build 0)  -->
<!DOCTYPE svg PUBLIC "-//W3C//DTD SVG 1.1//EN" "http://www.w3.org/Graphics/SVG/1.1/DTD/svg11.dtd">
<svg version="1.1" id="Capa_1" xmlns="http://www.w3.org/2000/svg" xmlns:xlink="http://www.w3.org/1999/xlink" x="0px" y="0px"
	 viewBox="0 0 445.48 445.48" style="enable-background:new 0 0 445.48 445.48;" xml:space="preserve">
<g>
	<path d="M443.494,183.92c0.208,1.171,0.405,2.342,0.593,3.516c-6.371-40.021-23.405-76.494-48.103-106.405
		c-18.25,54.16-65.14,95.13-122.66,104.92c11.73-56.33,44.07-105.1,88.78-138.08c-23.97-18.94-51.93-33.05-82.42-40.87
		c-37.56,68.7-59.07,148.54-59.07,233.74c0,72.09,15.4,140.35,42.89,201.26c31.06-5.53,59.9-17.5,85.07-34.49
		c-45.23-38.9-75.15-95.09-79.53-158.3c20.33,52.57,66.43,95.14,125.59,116.86c24.16-28.7,41.2-63.58,48.4-101.94h-0.01
		c-51.91,0-99.5-13.76-136.62-36.65c0.93,0,1.86,0.01,2.8,0.01C361.174,227.49,408.404,210.94,443.494,183.92z"/>
	<path d="M222.474,381.28c-4.05-11.94-7.59-24.12-10.6-36.5c-0.88,0.27-1.77,0.52-2.66,0.77c-2.33,0.66-4.69,1.27-7.07,1.81
		c-11.46,2.67-23.4,4.07-35.67,4.07c-66.08,0-122.64-40.68-146.01-98.37c16.27-6.33,34.08-9.82,52.74-9.82
		c45.45,0,85.85,20.7,111.39,52.77c-4.38-19.46-6.75-40.22-6.75-61.77c0-25.06,3.2-49.05,9.04-71.17
		c-25.19,23.37-59.57,37.76-97.47,37.76c-22.84,0-44.41-5.23-63.45-14.49c25.99-51.21,79.15-86.29,140.51-86.29
		c15.1,0,29.71,2.13,43.54,6.1c3.22,0.92,6.4,1.95,9.53,3.07c2.62-8.34,5.48-16.56,8.57-24.68c1.05-2.75,2.13-5.49,3.24-8.22
		c2.92-7.21,6.03-14.33,9.32-21.34c8.21-17.51,17.55-34.38,27.92-50.53C254.224,1.53,239.364,0,224.134,0
		c-4.6,0-9.16,0.14-13.69,0.42C109.994,6.51,27.504,79.18,6.554,174.88c-3.38,15.41-5.16,31.43-5.16,47.86
		c0,12.84,1.09,25.42,3.17,37.66c2.08,12.2,5.15,24.05,9.12,35.49c0,0.01,0.01,0.03,0.01,0.04c10.33,29.7,26.77,56.54,47.82,79.02
		c34.25,36.57,80.68,61.58,132.82,68.55c9.75,1.31,19.7,1.98,29.8,1.98c8.54,0,16.98-0.48,25.27-1.42
		c-7.2-13.7-13.7-27.84-19.44-42.36C227.304,394.98,224.804,388.17,222.474,381.28z"/>
</g>
<g>
</g>
<g>
</g>
<g>
</g>
<g>
</g>
<g>
</g>
<g>
</g>
<g>
</g>
<g>
</g>
<g>
</g>
<g>
</g>
<g>
</g>
<g>
</g>
<g>
</g>
<g>
</g>
<g>
</g>
</svg>
