<?xml version="1.0" encoding="iso-8859-1"?>
<!-- Generator: Adobe Illustrator 18.0.0, SVG Export Plug-In . SVG Version: 6.00 Build 0)  -->
<!DOCTYPE svg PUBLIC "-//W3C//DTD SVG 1.1//EN" "http://www.w3.org/Graphics/SVG/1.1/DTD/svg11.dtd">
<svg version="1.1" id="Capa_1" xmlns="http://www.w3.org/2000/svg" xmlns:xlink="http://www.w3.org/1999/xlink" x="0px" y="0px"
	 viewBox="0 0 413.979 413.979" style="enable-background:new 0 0 413.979 413.979;" xml:space="preserve">
<polygon points="413.979,128.404 413.979,98.404 330.717,98.404 330.717,191.99 221.989,191.99 221.989,83.263 315.576,83.263 
	315.576,0 285.576,0 285.576,53.263 268.783,53.263 268.783,0 238.783,0 238.783,53.263 221.989,53.263 221.989,0 191.99,0 
	191.99,53.263 175.197,53.263 175.197,0 145.197,0 145.197,53.263 128.404,53.263 128.404,0 98.404,0 98.404,83.263 191.99,83.263 
	191.99,191.99 83.262,191.99 83.262,98.404 0,98.404 0,128.404 53.262,128.404 53.262,145.197 0,145.197 0,175.197 53.262,175.197 
	53.262,191.99 0,191.99 0,221.99 53.262,221.99 53.262,238.783 0,238.783 0,268.783 53.262,268.783 53.262,285.576 0,285.576 
	0,315.576 83.262,315.576 83.262,221.99 191.99,221.99 191.99,330.717 98.404,330.717 98.404,413.979 128.404,413.979 
	128.404,360.717 145.197,360.717 145.197,413.979 175.197,413.979 175.197,360.717 191.99,360.717 191.99,413.979 221.989,413.979 
	221.989,360.717 238.783,360.717 238.783,413.979 268.783,413.979 268.783,360.717 285.576,360.717 285.576,413.979 
	315.576,413.979 315.576,330.717 221.989,330.717 221.989,221.99 330.717,221.99 330.717,315.576 413.979,315.576 413.979,285.576 
	360.717,285.576 360.717,268.783 413.979,268.783 413.979,238.783 360.717,238.783 360.717,221.99 413.979,221.99 413.979,191.99 
	360.717,191.99 360.717,175.197 413.979,175.197 413.979,145.197 360.717,145.197 360.717,128.404 "/>
<g>
</g>
<g>
</g>
<g>
</g>
<g>
</g>
<g>
</g>
<g>
</g>
<g>
</g>
<g>
</g>
<g>
</g>
<g>
</g>
<g>
</g>
<g>
</g>
<g>
</g>
<g>
</g>
<g>
</g>
</svg>
