<?xml version="1.0" encoding="iso-8859-1"?>
<!-- Generator: Adobe Illustrator 18.0.0, SVG Export Plug-In . SVG Version: 6.00 Build 0)  -->
<!DOCTYPE svg PUBLIC "-//W3C//DTD SVG 1.1//EN" "http://www.w3.org/Graphics/SVG/1.1/DTD/svg11.dtd">
<svg version="1.1" id="Capa_1" xmlns="http://www.w3.org/2000/svg" xmlns:xlink="http://www.w3.org/1999/xlink" x="0px" y="0px"
	 viewBox="0 0 392.006 392.006" style="enable-background:new 0 0 392.006 392.006;" xml:space="preserve">
<g>
	<path d="M263.271,356.272c-86.156,0-156-69.844-156-156s69.844-156,156-156c41.097,0,78.475,15.9,106.338,41.873
		C334.363,34.162,274.806,0,207.268,0C99.018,0,11.265,87.754,11.265,196.003s87.754,196.003,196.003,196.003
		c56.748,0,107.853-24.126,143.645-62.668C325.932,346.334,295.763,356.272,263.271,356.272z"/>
	<polygon points="323.236,141.312 336.811,183.092 380.742,183.092 345.201,208.914 358.777,250.694 323.236,224.873 
		287.696,250.694 301.271,208.914 265.731,183.092 309.661,183.092 	"/>
</g>
<g>
</g>
<g>
</g>
<g>
</g>
<g>
</g>
<g>
</g>
<g>
</g>
<g>
</g>
<g>
</g>
<g>
</g>
<g>
</g>
<g>
</g>
<g>
</g>
<g>
</g>
<g>
</g>
<g>
</g>
</svg>
