<?xml version="1.0" encoding="iso-8859-1"?>
<!-- Generator: Adobe Illustrator 18.0.0, SVG Export Plug-In . SVG Version: 6.00 Build 0)  -->
<!DOCTYPE svg PUBLIC "-//W3C//DTD SVG 1.1//EN" "http://www.w3.org/Graphics/SVG/1.1/DTD/svg11.dtd">
<svg version="1.1" id="Capa_1" xmlns="http://www.w3.org/2000/svg" xmlns:xlink="http://www.w3.org/1999/xlink" x="0px" y="0px"
	 viewBox="0 0 458.26 458.26" style="enable-background:new 0 0 458.26 458.26;" xml:space="preserve">
<g>
	<path d="M252.7,328.67h38.07c-1.25-12.43-6.18-23.78-13.68-32.95l-26.9,26.9c-1.21,1.21-2.8,1.82-4.39,1.82
		c-1.6,0-3.19-0.61-4.4-1.82c-2.43-2.43-2.43-6.37,0-8.79l26.9-26.9c-9.17-7.51-20.53-12.44-32.95-13.68v38.07
		c0,3.43-2.79,6.21-6.22,6.21s-6.21-2.78-6.21-6.21v-38.07c-12.43,1.24-23.79,6.17-32.96,13.68l26.9,26.9
		c2.43,2.42,2.43,6.36,0,8.79c-1.21,1.21-2.8,1.82-4.39,1.82c-1.59,0-3.18-0.61-4.4-1.82l-26.9-26.9
		c-7.5,9.17-12.44,20.52-13.68,32.95h38.07c3.44,0,6.22,2.78,6.22,6.21c0,3.44-2.78,6.22-6.22,6.22h-38.07
		c1.24,12.43,6.18,23.78,13.68,32.95l26.9-26.9c2.43-2.42,6.36-2.42,8.79,0c2.43,2.43,2.43,6.37,0,8.79l-26.9,26.9
		c9.18,7.51,20.53,12.44,32.96,13.68v-38.07c0-3.43,2.78-6.21,6.21-6.21s6.22,2.78,6.22,6.21v38.07
		c12.42-1.24,23.77-6.18,32.95-13.68l-26.9-26.9c-2.43-2.42-2.43-6.36,0-8.79c2.43-2.42,6.36-2.42,8.79,0l26.9,26.9
		c7.5-9.17,12.43-20.52,13.68-32.95H252.7c-3.43,0-6.22-2.78-6.22-6.22C246.48,331.45,249.27,328.67,252.7,328.67z M229.13,346.56
		c-6.44,0-11.68-5.24-11.68-11.68s5.24-11.67,11.68-11.67s11.68,5.23,11.68,11.67S235.57,346.56,229.13,346.56z"/>
	<path d="M337.99,194.89c-11.86,0-21.52,9.66-21.52,21.53v39.13c0,4.32-3.5,7.82-7.82,7.82c-4.31,0-7.81-3.5-7.81-7.82V53.68
		c0-10.7-8.7-19.4-19.41-19.4c-10.69,0-19.4,8.7-19.4,19.4v168.19c0,4.32-3.5,7.82-7.81,7.82c-4.32,0-7.82-3.5-7.82-7.82V19.4
		c0-10.69-8.7-19.4-19.39-19.4c-10.71,0-19.4,8.71-19.4,19.4v205.3c0,4.32-3.5,7.82-7.82,7.82c-4.32,0-7.82-3.5-7.82-7.82V61.85
		c0-10.71-8.71-19.4-19.4-19.4s-19.4,8.69-19.4,19.4v174.24c0,4.32-3.5,7.82-7.82,7.82c-4.32,0-7.82-3.5-7.82-7.82V116.96
		c0-10.69-8.7-19.4-19.4-19.4c-10.69,0-19.39,8.71-19.39,19.4v210.9c0,71.91,58.49,130.4,130.38,130.4
		c71.91,0,130.4-58.49,130.4-130.4V216.42C359.52,204.55,349.86,194.89,337.99,194.89z M229.13,409.51
		c-41.15,0-74.63-33.48-74.63-74.63c0-41.14,33.48-74.62,74.63-74.62s74.62,33.48,74.62,74.62
		C303.75,376.03,270.28,409.51,229.13,409.51z"/>
</g>
<g>
</g>
<g>
</g>
<g>
</g>
<g>
</g>
<g>
</g>
<g>
</g>
<g>
</g>
<g>
</g>
<g>
</g>
<g>
</g>
<g>
</g>
<g>
</g>
<g>
</g>
<g>
</g>
<g>
</g>
</svg>
