<?xml version="1.0" encoding="iso-8859-1"?>
<!-- Generator: Adobe Illustrator 18.0.0, SVG Export Plug-In . SVG Version: 6.00 Build 0)  -->
<!DOCTYPE svg PUBLIC "-//W3C//DTD SVG 1.1//EN" "http://www.w3.org/Graphics/SVG/1.1/DTD/svg11.dtd">
<svg version="1.1" id="Capa_1" xmlns="http://www.w3.org/2000/svg" xmlns:xlink="http://www.w3.org/1999/xlink" x="0px" y="0px"
	 viewBox="0 0 431.527 431.527" style="enable-background:new 0 0 431.527 431.527;" xml:space="preserve">
<g>
	<path d="M215.764,16.965c15.206,0,29.356-6.264,39.461-16.965h-78.922C186.407,10.7,200.557,16.965,215.764,16.965z M215.764,1.153
		c4.064,0,7.358,3.294,7.358,7.358s-3.294,7.358-7.358,7.358s-7.359-3.294-7.359-7.358S211.7,1.153,215.764,1.153z"/>
	<path d="M322.759,431.527L269.76,226.28l51.529-89.251L270.66,8.197c-13.38,16.169-33.329,25.768-54.896,25.768
		c-21.568,0-41.517-9.598-54.897-25.768l-50.628,128.833l51.528,89.251l-52.998,205.247H322.759z M264.252,378.25
		c0,26.732-21.751,48.489-48.489,48.489c-26.738,0-48.489-21.757-48.489-48.489v-94.133c0-3.544,2.88-6.424,6.424-6.424
		c3.539,0,6.418,2.88,6.418,6.424v45.148c0,2.149,1.742,3.892,3.892,3.892c2.149,0,3.891-1.742,3.891-3.892v-66.037
		c0-3.544,2.886-6.424,6.424-6.424c3.544,0,6.424,2.88,6.424,6.424v61.72c0,2.149,1.742,3.892,3.892,3.892s3.892-1.742,3.892-3.892
		v-77.807c0-3.538,2.886-6.424,6.424-6.424c3.544,0,6.424,2.886,6.424,6.424v12.992v68.168c0,2.149,1.742,3.891,3.892,3.891
		c2.149,0,3.892-1.742,3.892-3.891v-68.168c0-3.544,2.885-6.424,6.424-6.424c3.544,0,6.424,2.88,6.424,6.424v89.362
		c0,2.149,1.742,3.891,3.892,3.891c2.149,0,3.892-1.742,3.892-3.891v-27.684c0-3.987,3.245-7.232,7.226-7.232
		c3.987,0,7.232,3.245,7.232,7.232V378.25z M241.895,38.144c4.064,0,7.358,3.294,7.358,7.358s-3.294,7.358-7.358,7.358
		s-7.359-3.294-7.359-7.358S237.831,38.144,241.895,38.144z M215.764,38.144c4.064,0,7.358,3.294,7.358,7.358
		s-3.294,7.358-7.358,7.358s-7.359-3.294-7.359-7.358S211.7,38.144,215.764,38.144z M189.632,38.144
		c4.064,0,7.358,3.294,7.358,7.358s-3.295,7.358-7.358,7.358c-4.064,0-7.359-3.294-7.359-7.358S185.568,38.144,189.632,38.144z
		 M161.012,148.366V93.615h18v36.751h27.752V84.615h54.751v18h-36.751v27.751h45.751v54.751h-18v-36.751h-27.751v45.751h-54.752v-18
		h36.752v-27.751H161.012z"/>
	<path d="M215.764,350.109c-17.716,0-32.129,14.413-32.129,32.129c0,17.716,14.413,32.129,32.129,32.129
		c17.716,0,32.128-14.413,32.128-32.129C247.892,364.522,233.479,350.109,215.764,350.109z M225.85,385.011h16.229
		c-0.546,5.22-2.618,9.991-5.758,13.863l-11.465-11.465c-1.082-1.082-2.839-1.082-3.92,0c-1.083,1.083-1.083,2.838,0,3.921
		l11.464,11.464c-3.872,3.14-8.643,5.212-13.863,5.758v-16.229c0-1.531-1.241-2.772-2.772-2.772c-1.531,0-2.773,1.241-2.773,2.772
		v16.229c-5.22-0.546-9.991-2.618-13.864-5.758l11.465-11.465c1.083-1.083,1.083-2.838,0-3.921c-1.082-1.082-2.839-1.082-3.921,0
		l-11.466,11.466c-3.14-3.873-5.212-8.644-5.759-13.864h16.231c1.531,0,2.772-1.241,2.772-2.772s-1.241-2.772-2.772-2.772h-16.231
		c0.546-5.221,2.618-9.992,5.758-13.865l11.467,11.466c0.542,0.541,1.251,0.812,1.96,0.812c0.709,0,1.419-0.271,1.96-0.812
		c1.083-1.083,1.083-2.838,0-3.921l-11.466-11.466c3.873-3.14,8.645-5.212,13.865-5.758v16.23c0,1.531,1.241,2.772,2.773,2.772
		c1.531,0,2.772-1.241,2.772-2.772v-16.23c5.22,0.546,9.992,2.619,13.864,5.759l-11.465,11.465c-1.083,1.083-1.083,2.838,0,3.921
		c0.542,0.541,1.251,0.812,1.96,0.812c0.709,0,1.419-0.271,1.96-0.812l11.465-11.465c3.14,3.872,5.211,8.643,5.757,13.864H225.85
		c-1.531,0-2.772,1.241-2.772,2.772S224.319,385.011,225.85,385.011z"/>
	<path d="M215.764,377.128c-2.818,0-5.111,2.292-5.111,5.11c0,2.818,2.293,5.11,5.111,5.11s5.11-2.292,5.11-5.11
		C220.873,379.42,218.582,377.128,215.764,377.128z"/>
</g>
<g>
</g>
<g>
</g>
<g>
</g>
<g>
</g>
<g>
</g>
<g>
</g>
<g>
</g>
<g>
</g>
<g>
</g>
<g>
</g>
<g>
</g>
<g>
</g>
<g>
</g>
<g>
</g>
<g>
</g>
</svg>
