<?xml version="1.0" encoding="iso-8859-1"?>
<!-- Generator: Adobe Illustrator 18.0.0, SVG Export Plug-In . SVG Version: 6.00 Build 0)  -->
<!DOCTYPE svg PUBLIC "-//W3C//DTD SVG 1.1//EN" "http://www.w3.org/Graphics/SVG/1.1/DTD/svg11.dtd">
<svg version="1.1" id="Capa_1" xmlns="http://www.w3.org/2000/svg" xmlns:xlink="http://www.w3.org/1999/xlink" x="0px" y="0px"
	 viewBox="0 0 438.481 438.481" style="enable-background:new 0 0 438.481 438.481;" xml:space="preserve">
<g>
	<path d="M348.97,107.002c0,68.51-53.38,124.78-120.73,129.42v-25.08c53.55-4.57,95.73-49.62,95.73-104.34v-63.97h-18v63.97
		c0,44.78-34.12,81.75-77.73,86.26v-25.19c29.79-4.36,52.73-30.09,52.73-61.07v-63.97h-18v63.97c0,21.03-14.92,38.64-34.73,42.8
		v-42.8v-63.97h-18v63.97v42.8c-19.81-4.16-34.73-21.77-34.73-42.8v-63.97h-18v63.97c0,30.98,22.94,56.71,52.73,61.07v25.19
		c-43.61-4.51-77.73-41.48-77.73-86.26v-63.97h-18v63.97c0,54.72,42.18,99.77,95.73,104.34v25.08
		c-67.35-4.64-120.73-60.91-120.73-129.42v-63.97h-18v63.97c0,78.44,61.44,142.79,138.73,147.46v139.63
		c-19.175,2.577-35.773,13.266-46.24,28.5h-4.315c-4.387,0-7.944,3.557-7.944,7.944c0,4.388,3.557,7.945,7.944,7.945h119.111
		c4.388,0,7.945-3.557,7.945-7.945c0-4.387-3.557-7.944-7.945-7.944h-4.315c-10.468-15.234-27.065-25.923-46.24-28.5v-139.63
		c77.29-4.67,138.73-69.02,138.73-147.46v-63.97h-18V107.002z"/>
	<path d="M90.056,28.638L90.056,28.638c5.272-5.272,5.272-13.82,0-19.092L80.51,0l-9.546,9.546c-5.272,5.272-5.272,13.82,0,19.092
		l0,0C76.237,33.91,84.784,33.91,90.056,28.638z"/>
	<path d="M113.965,28.638c5.272,5.272,13.82,5.272,19.092,0l0,0c5.272-5.272,5.272-13.82,0-19.092L123.51,0l-9.546,9.546
		C108.692,14.818,108.692,23.366,113.965,28.638L113.965,28.638z"/>
	<path d="M156.965,28.638c5.272,5.272,13.82,5.272,19.092,0l0,0c5.272-5.272,5.272-13.82,0-19.092L166.51,0l-9.546,9.546
		C151.692,14.818,151.692,23.366,156.965,28.638L156.965,28.638z"/>
	<path d="M209.695,28.638c5.272,5.272,13.82,5.272,19.092,0l0,0c5.272-5.272,5.272-13.82,0-19.092L219.24,0l-9.546,9.546
		C204.422,14.818,204.422,23.366,209.695,28.638L209.695,28.638z"/>
	<path d="M262.424,28.638c5.272,5.272,13.82,5.272,19.092,0l0,0c5.272-5.272,5.272-13.82,0-19.092L271.97,0l-9.546,9.546
		C257.152,14.818,257.152,23.366,262.424,28.638L262.424,28.638z"/>
	<path d="M305.424,28.638c5.272,5.272,13.82,5.272,19.092,0l0,0c5.272-5.272,5.272-13.82,0-19.092L314.97,0l-9.546,9.546
		C300.152,14.818,300.152,23.366,305.424,28.638L305.424,28.638z"/>
	<path d="M367.516,9.546L357.97,0l-9.546,9.546c-5.272,5.272-5.272,13.82,0,19.092l0,0c5.272,5.272,13.82,5.272,19.092,0l0,0
		C372.789,23.366,372.789,14.818,367.516,9.546z"/>
</g>
<g>
</g>
<g>
</g>
<g>
</g>
<g>
</g>
<g>
</g>
<g>
</g>
<g>
</g>
<g>
</g>
<g>
</g>
<g>
</g>
<g>
</g>
<g>
</g>
<g>
</g>
<g>
</g>
<g>
</g>
</svg>
