<?xml version="1.0" encoding="iso-8859-1"?>
<!-- Generator: Adobe Illustrator 18.0.0, SVG Export Plug-In . SVG Version: 6.00 Build 0)  -->
<!DOCTYPE svg PUBLIC "-//W3C//DTD SVG 1.1//EN" "http://www.w3.org/Graphics/SVG/1.1/DTD/svg11.dtd">
<svg version="1.1" id="Capa_1" xmlns="http://www.w3.org/2000/svg" xmlns:xlink="http://www.w3.org/1999/xlink" x="0px" y="0px"
	 viewBox="0 0 474.03 474.03" style="enable-background:new 0 0 474.03 474.03;" xml:space="preserve">
<path d="M442.05,118.89h-136.4L237.01,0l-68.64,118.89H31.98l68.2,118.13l-68.2,118.12h136.39l68.64,118.89l68.64-118.89h136.4
	l-68.2-118.12L442.05,118.89z M237.01,70l28.23,48.89h-56.46L237.01,70z M285.44,153.89l48,83.13l-48,83.12h-96.86l-47.99-83.12
	l47.99-83.13H285.44z M92.6,153.89h55.57l-27.79,48.12L92.6,153.89z M92.6,320.14l27.78-48.12l27.79,48.12H92.6z M237.01,404.03
	l-28.23-48.89h56.46L237.01,404.03z M381.43,320.14h-55.57l27.78-48.13L381.43,320.14z M325.86,153.89h55.57l-27.79,48.13
	L325.86,153.89z"/>
<g>
</g>
<g>
</g>
<g>
</g>
<g>
</g>
<g>
</g>
<g>
</g>
<g>
</g>
<g>
</g>
<g>
</g>
<g>
</g>
<g>
</g>
<g>
</g>
<g>
</g>
<g>
</g>
<g>
</g>
</svg>
