<?xml version="1.0" encoding="iso-8859-1"?>
<!-- Generator: Adobe Illustrator 18.0.0, SVG Export Plug-In . SVG Version: 6.00 Build 0)  -->
<!DOCTYPE svg PUBLIC "-//W3C//DTD SVG 1.1//EN" "http://www.w3.org/Graphics/SVG/1.1/DTD/svg11.dtd">
<svg version="1.1" id="Capa_1" xmlns="http://www.w3.org/2000/svg" xmlns:xlink="http://www.w3.org/1999/xlink" x="0px" y="0px"
	 viewBox="0 0 473 473" style="enable-background:new 0 0 473 473;" xml:space="preserve">
<path d="M462,241.747H342.474c0.085-1.738,0.13-3.487,0.13-5.247s-0.045-3.508-0.13-5.246H462c6.075,0,11-4.925,11-11
	s-4.925-11-11-11H339.053c-0.95-3.571-2.082-7.068-3.385-10.482h100.102c6.075,0,11-4.925,11-11s-4.925-11-11-11H324.15
	c-7.487-10.952-16.97-20.435-27.922-27.921V37.23c0-6.075-4.925-11-11-11s-11,4.925-11,11v100.103
	c-3.414-1.303-6.911-2.436-10.482-3.386V11c0-6.075-4.925-11-11-11s-11,4.925-11,11v119.525c-1.738-0.085-3.487-0.13-5.246-0.13
	c-1.759,0-3.508,0.045-5.247,0.13V11c0-6.075-4.925-11-11-11s-11,4.925-11,11v122.948c-3.571,0.949-7.068,2.082-10.482,3.385V37.23
	c0-6.075-4.925-11-11-11s-11,4.925-11,11v111.62c-10.952,7.487-20.435,16.969-27.922,27.921H37.23c-6.075,0-11,4.925-11,11
	s4.925,11,11,11h100.102c-1.303,3.414-2.436,6.911-3.385,10.482H11c-6.075,0-11,4.925-11,11s4.925,11,11,11h119.525
	c-0.085,1.738-0.13,3.487-0.13,5.246s0.045,3.508,0.13,5.247H11c-6.075,0-11,4.925-11,11s4.925,11,11,11h122.947
	c0.95,3.571,2.082,7.068,3.385,10.482H37.23c-6.075,0-11,4.925-11,11s4.925,11,11,11H148.85
	c7.487,10.952,16.969,20.435,27.921,27.921v111.62c0,6.075,4.925,11,11,11s11-4.925,11-11V335.667
	c3.414,1.303,6.911,2.436,10.482,3.385V462c0,6.075,4.925,11,11,11s11-4.925,11-11V342.475c1.739,0.085,3.487,0.13,5.247,0.13
	c1.759,0,3.508-0.045,5.246-0.13V462c0,6.075,4.925,11,11,11s11-4.925,11-11V339.053c3.571-0.95,7.068-2.083,10.482-3.386V435.77
	c0,6.075,4.925,11,11,11s11-4.925,11-11V324.15c10.952-7.486,20.435-16.969,27.921-27.921h111.619c6.075,0,11-4.925,11-11
	s-4.925-11-11-11H335.667c1.303-3.414,2.436-6.911,3.385-10.482H462c6.075,0,11-4.925,11-11S468.075,241.747,462,241.747z
	 M152.395,236.5c0-46.375,37.729-84.105,84.105-84.105c46.375,0,84.105,37.729,84.105,84.105s-37.729,84.105-84.105,84.105
	C190.124,320.605,152.395,282.875,152.395,236.5z"/>
<g>
</g>
<g>
</g>
<g>
</g>
<g>
</g>
<g>
</g>
<g>
</g>
<g>
</g>
<g>
</g>
<g>
</g>
<g>
</g>
<g>
</g>
<g>
</g>
<g>
</g>
<g>
</g>
<g>
</g>
</svg>
