<?xml version="1.0" encoding="iso-8859-1"?>
<!-- Generator: Adobe Illustrator 18.0.0, SVG Export Plug-In . SVG Version: 6.00 Build 0)  -->
<!DOCTYPE svg PUBLIC "-//W3C//DTD SVG 1.1//EN" "http://www.w3.org/Graphics/SVG/1.1/DTD/svg11.dtd">
<svg version="1.1" id="Capa_1" xmlns="http://www.w3.org/2000/svg" xmlns:xlink="http://www.w3.org/1999/xlink" x="0px" y="0px"
	 viewBox="0 0 439.575 439.575" style="enable-background:new 0 0 439.575 439.575;" xml:space="preserve">
<g>
	<path d="M210.657,133.72c1.175-14.922,4.926-29.118,10.815-42.139c0.013-0.053,0.04-0.105,0.066-0.159
		c19.927-43.895,64.139-74.426,115.496-74.426c6.695,0,13.258,0.515,19.676,1.519c26.834,4.186,50.895,16.798,69.369,35.034
		c-18.237-23.585-42.839-41.096-72.433-48.953C342.37,1.598,330.379,0,317.728,0c-63.941,0-119.075,37.715-144.35,92.136
		c-0.462,0.99-0.911,1.981-1.347,2.985c0,0.013,0,0.013-0.013,0.026c-8.61,19.558-13.377,41.202-13.377,63.942v0.41
		c14.13-9.918,29.607-17.907,45.771-23.678C206.484,135.08,208.571,134.367,210.657,133.72z"/>
	<path d="M373.548,325.017c2.694-0.146,5.322-0.317,7.871-0.515c3.043-19.821-0.77-40.086-10.807-57.446l-0.511-0.883
		c-10.538,2.853-21.631,4.371-33.067,4.371c-12.757,0-25.064-1.889-36.672-5.388c-17.894-5.401-34.11-14.645-47.699-26.781
		c-7.369-6.576-13.958-13.984-19.623-22.092c-16.903,6.603-32.433,16.837-45.322,30.307c7.871,11.146,17.115,21.433,27.415,30.65
		c13.694,12.282,29.263,22.661,45.955,30.571c21.604,10.261,45.097,16.429,68.907,17.326
		C346.292,325.743,360.739,325.689,373.548,325.017z"/>
	<path d="M156.778,260.731c5.757-11.119,12.928-21.023,21.168-29.607c13.021-13.549,28.722-23.823,45.81-30.399
		c11-4.239,22.568-6.946,34.361-8.002c2.76-18.013,1.651-36.632-3.539-54.5c-14.975,1.387-29.871,4.754-44.239,9.891
		c-18.079,6.457-35.299,15.688-50.736,27.27c-19.478,14.592-36.117,32.896-48.068,53.998c-6.92,12.215-12.77,23.44-17.63,33.78
		c17.035,9.416,35.959,14.737,55.199,15.701C151.153,272.722,153.715,266.661,156.778,260.731z"/>
	<path d="M402.812,215.952c-13.734-24.114-37.847-47.474-63.572-62.053c6.603,28.392-2.377,58.738-2.641,60.085
		c20.469,9.904,34.467,26.86,43.777,43.803c0,0,0,0,0,0.014c19.716,35.813,21.763,80.475,1.558,119.497
		c-2.667,5.15-5.639,10.049-8.901,14.671c-16.137,23.018-39.009,39.326-64.496,47.606c34.387-6.273,65.368-24.14,86.827-54.328
		c3.843-5.375,7.369-11.133,10.551-17.286c25.051-48.398,22.833-103.717-1.109-148.378
		C404.159,218.355,403.498,217.153,402.812,215.952z"/>
	<path d="M204.266,283.749c-55.054,29.382-124.727,14.314-162.297-37.676c-20.323-28.128-27.441-61.802-22.529-93.588
		C7.793,191.97,12.639,234.505,39.5,271.679c48.451,67.032,139.411,85.164,209.309,44.12c-14.236-7.408-27.56-16.652-39.458-27.322
		C207.62,286.932,205.93,285.36,204.266,283.749z"/>
	<path d="M259.069,226.647c11.278,9.786,24.285,17.59,38.521,22.926c3.13,1.188,6.339,2.245,9.587,3.169
		c0.106-0.224,0.225-0.449,0.317-0.674c7.356-15.041,12.427-31.284,15.239-48.042c3.143-18.646,3.473-37.9,1.004-56.784
		c-3.526-27.045-12.823-53.324-27.89-75.932c-2.073-3.116-4.12-6.127-6.141-9.046c-3.222-4.648-6.378-9.059-9.455-13.219
		c-0.803,0.517-3.436,1.743-6.86,3.261c-15.706,6.964-27.586,20.459-32.493,36.924c2.298,2.667,4.49,5.454,6.576,8.346
		c9.006,12.453,15.411,25.988,19.333,39.96c5.044,17.947,5.982,36.632,3.037,54.671C267.917,204.092,264.298,215.7,259.069,226.647z
		"/>
</g>
<g>
</g>
<g>
</g>
<g>
</g>
<g>
</g>
<g>
</g>
<g>
</g>
<g>
</g>
<g>
</g>
<g>
</g>
<g>
</g>
<g>
</g>
<g>
</g>
<g>
</g>
<g>
</g>
<g>
</g>
</svg>
