<?xml version="1.0" encoding="iso-8859-1"?>
<!-- Generator: Adobe Illustrator 18.0.0, SVG Export Plug-In . SVG Version: 6.00 Build 0)  -->
<!DOCTYPE svg PUBLIC "-//W3C//DTD SVG 1.1//EN" "http://www.w3.org/Graphics/SVG/1.1/DTD/svg11.dtd">
<svg version="1.1" id="Capa_1" xmlns="http://www.w3.org/2000/svg" xmlns:xlink="http://www.w3.org/1999/xlink" x="0px" y="0px"
	 viewBox="0 0 445.72 445.72" style="enable-background:new 0 0 445.72 445.72;" xml:space="preserve">
<g>
	<path d="M365.76,144.75c-6.2-6.23-14.78-10.1-24.25-10.16c-2.13-12.93-13.35-22.8-26.89-22.8c-13.53,0-24.76,9.87-26.88,22.8
		h-28.73V99.41c12.1-2.78,21.13-13.61,21.13-26.55c0-6.47-2.26-12.42-6.03-17.09c-3.77-4.68-9.05-8.08-15.1-9.47V36.15
		C259.01,16.19,242.82,0,222.86,0c-19.97,0-36.15,16.19-36.15,36.15V46.3c-12.11,2.78-21.14,13.61-21.14,26.56
		c0,6.47,2.26,12.41,6.03,17.09c3.77,4.67,9.06,8.07,15.11,9.46v35.18h-28.73c-2.13-12.93-13.35-22.8-26.89-22.8
		c-13.53,0-24.76,9.87-26.88,22.8c-18.96,0.11-34.29,15.5-34.29,34.48c0,9.49,3.83,18.08,10.04,24.32
		c6.2,6.23,14.77,10.1,24.25,10.16c2.12,12.93,13.35,22.8,26.88,22.8c13.54,0,24.76-9.87,26.89-22.8h28.73v73.14
		c-12.11,2.77-21.14,13.6-21.14,26.55c0,6.47,2.26,12.42,6.03,17.09c3.77,4.67,9.06,8.07,15.11,9.46v1.4
		c-12.11,2.78-21.14,13.61-21.14,26.55c0,6.47,2.26,12.42,6.03,17.09c3.77,4.68,9.06,8.08,15.11,9.46v2.2
		c-7.18,2.96-12.24,10.03-12.24,18.28c0,10.92,8.86,19.77,19.78,19.77h8.83v1.41c0,10.92,8.86,19.77,19.78,19.77
		s19.77-8.85,19.77-19.77v-1.41h8.84c10.92,0,19.77-8.85,19.77-19.77c0-8.25-5.05-15.32-12.23-18.28v-2.2
		c12.1-2.77,21.13-13.6,21.13-26.55c0-6.47-2.26-12.41-6.03-17.09c-3.77-4.67-9.05-8.07-15.1-9.46v-1.4
		c12.1-2.78,21.13-13.6,21.13-26.55c0-6.47-2.26-12.42-6.03-17.09c-3.77-4.68-9.05-8.08-15.1-9.46v-73.14h28.73
		c2.12,12.93,13.35,22.8,26.88,22.8c13.54,0,24.76-9.87,26.89-22.8c18.95-0.11,34.29-15.5,34.29-34.48
		C375.8,159.58,371.96,150.99,365.76,144.75z M274.58,195.76h-39.49v106.45l18.35,7.84v24.47l-18.35-7.84v81.53h-24.47v-91.98
		l-18.35-7.85v-24.47l18.35,7.85v-96h-39.48v-24.47h39.48v-10.01h-13.9v-24.47h13.9v-22.24h24.47v22.24H249v24.47h-13.91v10.01
		h39.49V195.76z"/>
</g>
<g>
</g>
<g>
</g>
<g>
</g>
<g>
</g>
<g>
</g>
<g>
</g>
<g>
</g>
<g>
</g>
<g>
</g>
<g>
</g>
<g>
</g>
<g>
</g>
<g>
</g>
<g>
</g>
<g>
</g>
</svg>
