<?xml version="1.0" encoding="iso-8859-1"?>
<!-- Generator: Adobe Illustrator 18.0.0, SVG Export Plug-In . SVG Version: 6.00 Build 0)  -->
<!DOCTYPE svg PUBLIC "-//W3C//DTD SVG 1.1//EN" "http://www.w3.org/Graphics/SVG/1.1/DTD/svg11.dtd">
<svg version="1.1" id="Capa_1" xmlns="http://www.w3.org/2000/svg" xmlns:xlink="http://www.w3.org/1999/xlink" x="0px" y="0px"
	 viewBox="0 0 457.174 457.174" style="enable-background:new 0 0 457.174 457.174;" xml:space="preserve">
<g>
	<path d="M332.883,444.566c-19.599,0-39.324-2.542-58.777-7.682c-15.932-4.21-31.166-10.027-45.52-17.313
		c-14.354,7.287-29.587,13.104-45.519,17.313c-59.033,15.597-120.604,7.274-173.376-23.437L0,407.806v-11.213
		c0-61.058,23.777-118.461,66.952-161.635c11.563-11.563,24.149-21.736,37.55-30.433c0.893-15.749,3.435-31.531,7.656-47.147
		c15.929-58.931,53.794-108.317,106.622-139.061l9.809-5.708l9.809,5.708c69.478,40.435,110.007,111.696,114.174,186.142
		c13.439,8.71,26.06,18.906,37.652,30.499c43.174,43.174,66.952,100.578,66.952,161.635v11.213l-9.691,5.64
		C412.101,434.038,372.759,444.565,332.883,444.566z M39.339,385.189c41.434,20.951,88.502,25.95,133.766,13.989
		c5.48-1.448,10.857-3.124,16.127-5.022c-21.554-17.336-39.962-38.67-54.292-63.294c-14.484-24.888-23.934-51.755-28.191-79.413
		C68.074,283.963,42.533,331.615,39.339,385.189z M268.032,394.083c47.63,17.188,101.792,15.34,149.803-8.898
		c-3.196-53.612-28.776-101.294-67.496-133.811c-4.167,27.296-13.413,54.244-28.104,79.487
		C307.923,355.452,289.55,376.76,268.032,394.083z M143.425,227.231c1.572,29.304,10.066,57.973,25.221,84.012
		c15.338,26.354,36.093,47.634,60.046,63.255c24.323-15.918,44.788-37.399,59.836-63.255c15.427-26.508,23.602-55.285,25.139-84.054
		c-25.601-12.911-54.504-20.184-85.08-20.184C197.98,207.006,169.045,214.296,143.425,227.231z M228.585,58.128
		c-38.771,25.739-66.554,64.201-78.779,109.427c-1.405,5.2-2.587,10.425-3.545,15.659c25.915-9.987,53.721-15.208,82.327-15.208
		c28.591,0,56.38,5.213,82.282,15.191C301.874,133.692,273.331,87.859,228.585,58.128z"/>
</g>
<g>
</g>
<g>
</g>
<g>
</g>
<g>
</g>
<g>
</g>
<g>
</g>
<g>
</g>
<g>
</g>
<g>
</g>
<g>
</g>
<g>
</g>
<g>
</g>
<g>
</g>
<g>
</g>
<g>
</g>
</svg>
