<?xml version="1.0" encoding="iso-8859-1"?>
<!-- Generator: Adobe Illustrator 18.0.0, SVG Export Plug-In . SVG Version: 6.00 Build 0)  -->
<!DOCTYPE svg PUBLIC "-//W3C//DTD SVG 1.1//EN" "http://www.w3.org/Graphics/SVG/1.1/DTD/svg11.dtd">
<svg version="1.1" id="Capa_1" xmlns="http://www.w3.org/2000/svg" xmlns:xlink="http://www.w3.org/1999/xlink" x="0px" y="0px"
	 viewBox="0 0 442.939 442.939" style="enable-background:new 0 0 442.939 442.939;" xml:space="preserve">
<g>
	<g>
		<path d="M215.035,173.5l-178.125,0l2.574-8.334c18.568-60.122,65.549-107.104,125.671-125.693l8.334-2.585v123.74h41.545V0
			c-0.001,0-0.001,0-0.001,0C97.965,3.358,3.357,97.965,0,215.033h215.035V173.5z"/>
		<path d="M227.907,215.033h41.521l0-178.124l8.335,2.575c60.122,18.557,107.114,65.549,125.703,125.682l2.574,8.334h-123.74v41.533
			h160.639C439.581,97.965,344.975,3.359,227.907,0V215.033z"/>
		<path d="M227.907,269.438l178.133,0l-2.574,8.334c-18.589,60.133-65.582,107.125-125.703,125.693l-8.335,2.575V282.31h-41.52
			v160.629c117.068-3.359,211.674-97.965,215.032-215.034H227.907V269.438z"/>
		<path d="M215.035,227.905H173.49l0,178.145l-8.334-2.585c-60.133-18.589-107.114-65.571-125.682-125.693l-2.574-8.334h123.719
			v-41.533H0c3.357,117.069,97.965,211.676,215.033,215.034c0,0,0.001,0,0.002,0V227.905z"/>
	</g>
</g>
<g>
</g>
<g>
</g>
<g>
</g>
<g>
</g>
<g>
</g>
<g>
</g>
<g>
</g>
<g>
</g>
<g>
</g>
<g>
</g>
<g>
</g>
<g>
</g>
<g>
</g>
<g>
</g>
<g>
</g>
</svg>
