<?xml version="1.0" encoding="iso-8859-1"?>
<!-- Generator: Adobe Illustrator 18.0.0, SVG Export Plug-In . SVG Version: 6.00 Build 0)  -->
<!DOCTYPE svg PUBLIC "-//W3C//DTD SVG 1.1//EN" "http://www.w3.org/Graphics/SVG/1.1/DTD/svg11.dtd">
<svg version="1.1" id="Capa_1" xmlns="http://www.w3.org/2000/svg" xmlns:xlink="http://www.w3.org/1999/xlink" x="0px" y="0px"
	 viewBox="0 0 484.544 484.544" style="enable-background:new 0 0 484.544 484.544;" xml:space="preserve">
<g>
	<path d="M483.295,213.899c-2.74-5.111-9.104-7.03-14.216-4.291c-23.903,12.818-32.959,9.414-62.965-1.87
		c-24.857-9.346-45.789,4.499-57.648,15.691c-8.544-5.33-18.625-10.95-29.917-16.043v-63.094c12.5-4.356,21.498-16.254,21.498-30.22
		c0-17.645-14.354-31.999-31.998-31.999c-17.645,0-31.999,14.354-31.999,31.999c0,13.967,8.998,25.864,21.499,30.22v54.868
		c-16.9-5.632-35.598-9.452-55.277-9.452c-19.679,0-38.376,3.82-55.276,9.452v-54.867c12.501-4.356,21.499-16.253,21.499-30.22
		c0-17.645-14.354-31.999-31.999-31.999s-31.999,14.354-31.999,31.999c0,13.967,8.998,25.864,21.499,30.22v63.094
		c-11.291,5.093-21.372,10.712-29.916,16.042c-11.858-11.194-32.788-25.039-57.65-15.69c-30.005,11.285-39.063,14.691-62.966,1.87
		c-5.109-2.739-11.474-0.821-14.216,4.291c-2.741,5.11-0.82,11.475,4.29,14.216c32.303,17.323,48.336,11.293,80.284-0.721
		c13.015-4.896,25.28,2.165,33.462,9.195c-0.393,0.658-0.744,1.336-1.043,2.031c-4.357-0.014-13.587,0.338-23.595,3.066
		c-19.35,5.275-32.392,16.708-37.718,33.062c-9.928,30.481-12.924,39.681-37.865,50.343c-5.332,2.279-7.808,8.45-5.528,13.782
		c1.704,3.986,5.583,6.375,9.66,6.375c1.377,0,2.776-0.273,4.122-0.848c33.704-14.408,39.01-30.697,49.578-63.15
		c3.033-9.311,10.702-15.761,22.797-19.172c10.185-2.872,19.66-2.43,19.954-2.43c1.441,0,2.799-0.003,4.104-0.009
		c0.181,0.137,0.358,0.276,0.546,0.408c2.264,1.585,4.718,3.249,7.343,4.958l-1.981,1.499
		c-22.68,17.157-28.834,48.536-14.314,72.989c8.748,14.734,5.568,33.42-7.561,44.432c-4.443,3.726-5.024,10.349-1.298,14.792
		c2.077,2.477,5.053,3.753,8.051,3.753c2.38,0,4.774-0.806,6.741-2.456c21.052-17.655,26.15-47.617,12.123-71.243
		c-9.055-15.25-5.217-34.82,8.928-45.521l8.839-6.687c24.162,12.923,56.089,24.99,91.104,24.99s66.942-12.067,91.105-24.99
		l8.839,6.687c14.145,10.701,17.982,30.271,8.928,45.521c-14.027,23.625-8.93,53.586,12.122,71.243
		c1.967,1.65,4.36,2.455,6.741,2.455c2.997,0,5.975-1.276,8.051-3.752c3.727-4.443,3.146-11.066-1.298-14.792
		c-13.129-11.012-16.308-29.698-7.56-44.431c14.52-24.453,8.365-55.831-14.314-72.989l-1.981-1.499
		c2.624-1.71,5.078-3.373,7.342-4.958c0.201-0.141,0.392-0.291,0.585-0.438c1.23,0.025,2.575,0.039,4.059,0.039
		c0.096,0,9.665-0.473,19.96,2.43c12.095,3.411,19.764,9.861,22.797,19.172c10.568,32.453,15.874,48.742,49.577,63.15
		c1.346,0.576,2.745,0.848,4.122,0.848c4.077,0,7.956-2.39,9.659-6.375c2.28-5.332-0.194-11.503-5.527-13.782
		c-24.94-10.662-27.937-19.861-37.864-50.343c-5.326-16.354-18.368-27.787-37.718-33.062c-10.009-2.728-19.239-3.081-23.595-3.066
		c-0.3-0.696-0.651-1.375-1.045-2.034c8.181-7.028,20.443-14.088,33.465-9.192c31.945,12.014,47.981,18.044,80.282,0.721
		C484.115,225.374,486.036,219.01,483.295,213.899z M286.05,114.072c0-12.13,9.869-21.999,21.999-21.999s21.998,9.869,21.998,21.999
		c0,12.13-9.868,21.999-21.998,21.999S286.05,126.202,286.05,114.072z M154.497,114.072c0-12.13,9.869-21.999,21.999-21.999
		s21.999,9.869,21.999,21.999c0,12.13-9.869,21.999-21.999,21.999S154.497,126.202,154.497,114.072z"/>
	<circle cx="176.496" cy="114.071" r="12.44"/>
	<circle cx="308.049" cy="114.071" r="12.44"/>
</g>
<g>
</g>
<g>
</g>
<g>
</g>
<g>
</g>
<g>
</g>
<g>
</g>
<g>
</g>
<g>
</g>
<g>
</g>
<g>
</g>
<g>
</g>
<g>
</g>
<g>
</g>
<g>
</g>
<g>
</g>
</svg>
