<?xml version="1.0" encoding="iso-8859-1"?>
<!-- Generator: Adobe Illustrator 18.0.0, SVG Export Plug-In . SVG Version: 6.00 Build 0)  -->
<!DOCTYPE svg PUBLIC "-//W3C//DTD SVG 1.1//EN" "http://www.w3.org/Graphics/SVG/1.1/DTD/svg11.dtd">
<svg version="1.1" id="Capa_1" xmlns="http://www.w3.org/2000/svg" xmlns:xlink="http://www.w3.org/1999/xlink" x="0px" y="0px"
	 viewBox="0 0 402.616 402.616" style="enable-background:new 0 0 402.616 402.616;" xml:space="preserve">
<path d="M347.142,268.224c-14.874-14.874-34.648-23.065-55.683-23.065s-40.809,8.191-55.682,23.065l-19.469,19.469V175.492h130.571
	v-30H216.308v-32.997h78.073v-30h-78.073V0h-30v82.495h-78.074v30h78.074v32.997H55.737v30h130.571v112.201l-19.469-19.469
	c-14.874-14.874-34.648-23.065-55.683-23.065s-40.809,8.191-55.682,23.064c-14.874,14.874-23.065,34.648-23.065,55.683
	s8.191,40.809,23.065,55.682c15.354,15.354,35.514,23.028,55.682,23.028c20.163,0,40.333-7.678,55.682-23.028l34.47-34.469
	l34.469,34.469c15.354,15.354,35.515,23.028,55.682,23.028c20.163,0,40.333-7.678,55.682-23.027
	c14.874-14.874,23.065-34.648,23.065-55.683S362.015,283.097,347.142,268.224z M145.625,358.375
	c-19.007,19.006-49.932,19.006-68.938,0c-9.207-9.207-14.278-21.449-14.278-34.469s5.071-25.262,14.278-34.469
	s21.449-14.278,34.469-14.278s25.262,5.071,34.469,14.278l34.469,34.469L145.625,358.375z M325.929,358.375
	c-19.007,19.006-49.932,19.006-68.938,0l-34.469-34.469l34.469-34.469c9.207-9.207,21.449-14.278,34.469-14.278
	s25.262,5.071,34.469,14.278s14.278,21.449,14.278,34.469S335.136,349.168,325.929,358.375z"/>
<g>
</g>
<g>
</g>
<g>
</g>
<g>
</g>
<g>
</g>
<g>
</g>
<g>
</g>
<g>
</g>
<g>
</g>
<g>
</g>
<g>
</g>
<g>
</g>
<g>
</g>
<g>
</g>
<g>
</g>
</svg>
