<?xml version="1.0" encoding="iso-8859-1"?>
<!-- Generator: Adobe Illustrator 18.0.0, SVG Export Plug-In . SVG Version: 6.00 Build 0)  -->
<!DOCTYPE svg PUBLIC "-//W3C//DTD SVG 1.1//EN" "http://www.w3.org/Graphics/SVG/1.1/DTD/svg11.dtd">
<svg version="1.1" id="Capa_1" xmlns="http://www.w3.org/2000/svg" xmlns:xlink="http://www.w3.org/1999/xlink" x="0px" y="0px"
	 viewBox="0 0 437.391 437.391" style="enable-background:new 0 0 437.391 437.391;" xml:space="preserve">
<path d="M400.34,209.127c-15.599-18.6-38.504-30.456-64.498-33.385c-4.776-0.538-9.536-0.753-14.252-0.666V102.58
	c0-22.768-18.522-41.29-41.29-41.29c-7.378,0-14.304,1.953-20.305,5.354V41.299C259.996,18.526,241.469,0,218.697,0
	s-41.299,18.526-41.299,41.299V66.64c-5.997-3.399-12.918-5.351-20.291-5.351c-22.776,0-41.307,18.522-41.307,41.29v72.522
	c-0.73-0.014-1.459-0.041-2.192-0.041c-30.059,0-58.678,12.732-76.556,34.06c-3.368,4.018-4.25,9.535-2.304,14.398
	c1.947,4.864,6.394,8.249,11.605,8.833c18.049,2.023,32.572,13.582,36.14,28.765l22.08,93.862
	c5.495,23.389,20.063,44.529,41.023,59.531c20.641,14.754,46.599,22.88,73.091,22.88c26.514,0,52.481-8.129,73.116-22.891
	c20.939-14.979,35.499-36.123,40.997-59.531l22.081-93.854c1.88-8,6.969-15.297,14.348-20.562c6.231-4.464,13.771-7.3,21.805-8.201
	c5.214-0.584,9.662-3.972,11.609-8.839C404.588,218.652,403.705,213.139,400.34,209.127z M280.3,82.29
	c11.188,0,20.29,9.102,20.29,20.29v75.011c-13.274,2.96-25.789,8.473-36.795,16.398l-3.8,2.736v-94.184
	C260.017,91.371,269.116,82.29,280.3,82.29z M218.695,312.628c-23.946,0-43.427-19.481-43.427-43.427s19.481-43.427,43.427-43.427
	c23.945,0,43.427,19.481,43.427,43.427S242.641,312.628,218.695,312.628z M218.697,21c11.192,0,20.299,9.106,20.299,20.299
	l-0.002,166.77c-6.387-2.126-13.207-3.295-20.298-3.295c-7.092,0-13.911,1.168-20.298,3.295V41.299
	C198.397,30.106,207.504,21,218.697,21z M136.8,102.58c0-11.188,9.109-20.29,20.307-20.29c11.188,0,20.29,9.102,20.29,20.29v94.158
	l-3.817-2.748c-11.004-7.924-23.462-13.444-36.78-16.402V102.58z M125.016,350.174l-22.08-93.863
	c-4.664-19.847-20.592-35.669-41.323-42.125c13.777-11.496,32.445-18.124,51.995-18.124c17.354,0,34.295,5.316,47.701,14.97
	l14.314,10.305c-13.101,11.801-21.354,28.885-21.354,47.864c0,31.949,23.38,58.527,53.927,63.558v83.108
	c-18.407-1.773-35.995-8.153-50.382-18.437C140.995,385.394,129.348,368.612,125.016,350.174z M357.015,223.47
	c-11.513,8.214-19.531,19.877-22.576,32.838l-22.081,93.854c-8.308,35.37-42.43,61.782-83.162,65.705v-83.108
	c30.547-5.03,53.927-31.609,53.927-63.558c0-18.983-8.256-36.07-21.362-47.871l14.305-10.299
	c29.896-21.528,72.916-19.433,99.743,3.146C369.031,216.284,362.671,219.418,357.015,223.47z"/>
<g>
</g>
<g>
</g>
<g>
</g>
<g>
</g>
<g>
</g>
<g>
</g>
<g>
</g>
<g>
</g>
<g>
</g>
<g>
</g>
<g>
</g>
<g>
</g>
<g>
</g>
<g>
</g>
<g>
</g>
</svg>
