<?xml version="1.0" encoding="iso-8859-1"?>
<!-- Generator: Adobe Illustrator 18.0.0, SVG Export Plug-In . SVG Version: 6.00 Build 0)  -->
<!DOCTYPE svg PUBLIC "-//W3C//DTD SVG 1.1//EN" "http://www.w3.org/Graphics/SVG/1.1/DTD/svg11.dtd">
<svg version="1.1" id="Capa_1" xmlns="http://www.w3.org/2000/svg" xmlns:xlink="http://www.w3.org/1999/xlink" x="0px" y="0px"
	 viewBox="0 0 468.132 468.132" style="enable-background:new 0 0 468.132 468.132;" xml:space="preserve">
<path d="M468.132,52.676c-36.7,15.39-76.098,23.317-115.895,23.317H115.895C76.098,75.993,36.7,68.067,0,52.676l0,0l0,0
	c13.016,34.88,41.667,60.692,76.229,70.728v29.715h24.711v55.602H76.229v34.079h24.711v172.657h36.671V242.799h192.911v172.657
	h36.671V242.799h24.711V208.72h-24.711v-55.602h24.711v-29.715C426.465,113.368,455.117,87.557,468.132,52.676L468.132,52.676
	L468.132,52.676z M137.611,153.119h76.933l-4.572,55.602h-72.361V153.119z M330.522,208.72h-72.361l-4.572-55.602h76.933V208.72z"/>
<g>
</g>
<g>
</g>
<g>
</g>
<g>
</g>
<g>
</g>
<g>
</g>
<g>
</g>
<g>
</g>
<g>
</g>
<g>
</g>
<g>
</g>
<g>
</g>
<g>
</g>
<g>
</g>
<g>
</g>
</svg>
