<?xml version="1.0" encoding="iso-8859-1"?>
<!-- Generator: Adobe Illustrator 18.0.0, SVG Export Plug-In . SVG Version: 6.00 Build 0)  -->
<!DOCTYPE svg PUBLIC "-//W3C//DTD SVG 1.1//EN" "http://www.w3.org/Graphics/SVG/1.1/DTD/svg11.dtd">
<svg version="1.1" id="Capa_1" xmlns="http://www.w3.org/2000/svg" xmlns:xlink="http://www.w3.org/1999/xlink" x="0px" y="0px"
	 viewBox="0 0 477.521 477.521" style="enable-background:new 0 0 477.521 477.521;" xml:space="preserve">
<path d="M468.942,233.036c-34.827-5.746-66.512-23.591-89.478-50.395l-0.787-0.919c-7.494-8.746-17.906-14.247-29.084-15.652
	c-0.392-0.049-0.83-0.089-1.298-0.12c-5.79-0.383-11.561,0.962-16.663,3.726c-0.406,0.22-0.825,0.449-1.254,0.686
	c-2.177,1.202-4.63,2.618-7.17,4.191c-1.666-2.27-3.524-4.444-5.577-6.496h0c-21.779-21.779-57.091-21.779-78.87,0l0,0h0
	c-21.779-21.78-57.091-21.78-78.87,0l0,0c-2.053,2.052-3.911,4.226-5.577,6.496c-2.54-1.573-4.993-2.989-7.17-4.191
	c-0.429-0.237-0.847-0.465-1.254-0.686c-5.102-2.765-10.873-4.109-16.663-3.726c-0.468,0.031-0.906,0.07-1.298,0.12
	c-11.179,1.405-21.591,6.906-29.084,15.652l-0.787,0.919c-22.966,26.804-54.651,44.649-89.478,50.395L0,234.451
	c0,0,55.749,37.209,139.904-4.844c2.461-1.1,4.777-2.134,6.983-3.125c2.696,7.46,7.024,14.464,13.004,20.444h0l78.87,78.87
	l78.87-78.87h0c5.98-5.98,10.308-12.984,13.004-20.444c2.206,0.991,4.522,2.025,6.983,3.125
	c84.155,42.052,139.904,4.844,139.904,4.844L468.942,233.036z M231.189,202.057l7.571-23.302l7.571,23.302h24.501l-19.822,14.401
	l7.571,23.302l-19.822-14.401l-19.822,14.401l7.571-23.302l-19.822-14.401H231.189z M238.761,282.114
	c-21.708,0-39.307-17.598-39.307-39.307c0-3.525,0.471-6.939,1.342-10.191c4.49,16.767,19.782,29.116,37.965,29.116
	c18.183,0,33.475-12.349,37.965-29.116c0.87,3.251,1.342,6.665,1.342,10.191C278.067,264.516,260.469,282.114,238.761,282.114z"/>
<g>
</g>
<g>
</g>
<g>
</g>
<g>
</g>
<g>
</g>
<g>
</g>
<g>
</g>
<g>
</g>
<g>
</g>
<g>
</g>
<g>
</g>
<g>
</g>
<g>
</g>
<g>
</g>
<g>
</g>
</svg>
