<?xml version="1.0" encoding="iso-8859-1"?>
<!-- Generator: Adobe Illustrator 18.0.0, SVG Export Plug-In . SVG Version: 6.00 Build 0)  -->
<!DOCTYPE svg PUBLIC "-//W3C//DTD SVG 1.1//EN" "http://www.w3.org/Graphics/SVG/1.1/DTD/svg11.dtd">
<svg version="1.1" id="Capa_1" xmlns="http://www.w3.org/2000/svg" xmlns:xlink="http://www.w3.org/1999/xlink" x="0px" y="0px"
	 viewBox="0 0 458.08 458.08" style="enable-background:new 0 0 458.08 458.08;" xml:space="preserve">
<g>
	<path d="M255.41,246.907c44.896-5.052,84.003-22.801,110.128-48.027H92.541c26.126,25.226,65.233,42.975,110.128,48.027
		c9.056,1.019,15.871,8.737,15.871,17.85v105.514c0,7.641-4.843,14.411-12.046,16.962c-12.64,4.478-23.55,12.613-31.455,23.137h43.5
		h20.999h43.5c-7.905-10.523-18.814-18.659-31.455-23.137c-7.202-2.551-12.046-9.321-12.046-16.962V264.757
		C239.539,255.644,246.354,247.926,255.41,246.907z"/>
	<path d="M269.256,100.832c8.197-32.787-36.373-63.013-36.373-63.013c20.088,20.088,20.088,52.658,0,72.746h0
		c-20.088,20.088-20.088,52.658,0,72.747C223.149,153.086,261.059,133.619,269.256,100.832z"/>
	<path d="M390.996,67.084C347.735,23.824,290.219,0,229.04,0S110.344,23.824,67.084,67.084C23.824,110.344,0,167.861,0,229.04
		s23.824,118.696,67.084,161.956c43.26,43.26,100.777,67.084,161.956,67.084s118.695-23.824,161.956-67.084
		c43.26-43.26,67.084-100.777,67.084-161.956S434.256,110.344,390.996,67.084z M229.04,440.08C112.672,440.08,18,345.408,18,229.04
		S112.672,18,229.04,18s211.04,94.672,211.04,211.04S345.408,440.08,229.04,440.08z"/>
</g>
<g>
</g>
<g>
</g>
<g>
</g>
<g>
</g>
<g>
</g>
<g>
</g>
<g>
</g>
<g>
</g>
<g>
</g>
<g>
</g>
<g>
</g>
<g>
</g>
<g>
</g>
<g>
</g>
<g>
</g>
</svg>
