<?xml version="1.0" encoding="iso-8859-1"?>
<!-- Generator: Adobe Illustrator 18.0.0, SVG Export Plug-In . SVG Version: 6.00 Build 0)  -->
<!DOCTYPE svg PUBLIC "-//W3C//DTD SVG 1.1//EN" "http://www.w3.org/Graphics/SVG/1.1/DTD/svg11.dtd">
<svg version="1.1" id="Capa_1" xmlns="http://www.w3.org/2000/svg" xmlns:xlink="http://www.w3.org/1999/xlink" x="0px" y="0px"
	 viewBox="0 0 466.09 466.09" style="enable-background:new 0 0 466.09 466.09;" xml:space="preserve">
<g>
	<path d="M329.309,162.492v-13h-90.605V89.624h-13v59.869h-88.923v13h88.923v143.447c-41.202,3.322-73.719,37.89-73.719,79.932
		c0,44.233,35.986,80.219,80.219,80.219c44.232,0,80.218-35.986,80.218-80.219c0-42.042-32.517-76.61-73.718-79.932V162.492H329.309
		z M225.704,318.973v60.398h-60.399C168.38,347.486,193.819,322.047,225.704,318.973z M232.204,453.09
		c-34.871,0-63.618-26.693-66.899-60.719h133.797C295.821,426.396,267.075,453.09,232.204,453.09z M299.102,379.371h-60.398v-60.398
		C270.589,322.047,296.028,347.486,299.102,379.371z"/>
	<path d="M300.028,81.071l8.579-80.381h-13.074l-1.403,13.148h-15.081v13h13.693l-1.621,15.185h-52.418V26.838h14.806v-13h-14.806V0
		h-13v13.838H212.58v13h13.124v15.185h-50.481l-1.62-15.185h11.76v-13h-13.147L170.812,0.69h-13.074l8.578,80.381H300.028z
		 M289.734,55.022l-1.393,13.049H178.002l-1.393-13.049H289.734z"/>
</g>
<g>
</g>
<g>
</g>
<g>
</g>
<g>
</g>
<g>
</g>
<g>
</g>
<g>
</g>
<g>
</g>
<g>
</g>
<g>
</g>
<g>
</g>
<g>
</g>
<g>
</g>
<g>
</g>
<g>
</g>
</svg>
