<?xml version="1.0" encoding="iso-8859-1"?>
<!-- Generator: Adobe Illustrator 18.0.0, SVG Export Plug-In . SVG Version: 6.00 Build 0)  -->
<!DOCTYPE svg PUBLIC "-//W3C//DTD SVG 1.1//EN" "http://www.w3.org/Graphics/SVG/1.1/DTD/svg11.dtd">
<svg version="1.1" id="Capa_1" xmlns="http://www.w3.org/2000/svg" xmlns:xlink="http://www.w3.org/1999/xlink" x="0px" y="0px"
	 viewBox="0 0 467.991 467.991" style="enable-background:new 0 0 467.991 467.991;" xml:space="preserve">
<g>
	<path d="M233.995,11.453l55.239,170.008h178.757L323.374,286.531l55.239,170.007L233.996,351.468L89.379,456.539l55.239-170.007
		L0,181.461h178.757L233.995,11.453z M263.206,181.461l-29.21-89.899l-29.21,89.899H263.206z M170.713,206.216H76.188l76.473,55.561
		L170.713,206.216z M271.249,206.216h-74.506l-23.024,70.86l60.277,43.794l60.277-43.794L271.249,206.216z M391.804,206.216h-94.526
		l18.053,55.561L391.804,206.216z M212.938,336.169l-47.263-34.338l-29.21,89.899L212.938,336.169z M331.526,391.73l-29.21-89.899
		l-47.263,34.338L331.526,391.73z"/>
</g>
<g>
</g>
<g>
</g>
<g>
</g>
<g>
</g>
<g>
</g>
<g>
</g>
<g>
</g>
<g>
</g>
<g>
</g>
<g>
</g>
<g>
</g>
<g>
</g>
<g>
</g>
<g>
</g>
<g>
</g>
</svg>
