<?xml version="1.0" encoding="iso-8859-1"?>
<!-- Generator: Adobe Illustrator 18.0.0, SVG Export Plug-In . SVG Version: 6.00 Build 0)  -->
<!DOCTYPE svg PUBLIC "-//W3C//DTD SVG 1.1//EN" "http://www.w3.org/Graphics/SVG/1.1/DTD/svg11.dtd">
<svg version="1.1" id="Capa_1" xmlns="http://www.w3.org/2000/svg" xmlns:xlink="http://www.w3.org/1999/xlink" x="0px" y="0px"
	 viewBox="0 0 433 433" style="enable-background:new 0 0 433 433;" xml:space="preserve">
<g>
	<circle cx="216.503" cy="116.5" r="40.498"/>
	<path d="M369.588,63.411C328.697,22.52,274.329,0,216.5,0S104.303,22.52,63.411,63.411C22.52,104.303,0,158.671,0,216.5
		s22.52,112.197,63.411,153.089C104.303,410.48,158.671,433,216.5,433s112.197-22.52,153.088-63.411
		C410.48,328.697,433,274.329,433,216.5S410.48,104.303,369.588,63.411z M176.005,316.5c0-22.366,18.132-40.498,40.498-40.498
		c22.366,0,40.498,18.132,40.498,40.498s-18.132,40.498-40.498,40.498C194.137,356.998,176.005,338.866,176.005,316.5z
		 M219.09,416.467c54.033-1.374,97.409-45.603,97.409-99.967c0-55.23-44.77-100-100-100c-55.22,0-100-44.77-100-100
		c0-52.619,40.646-95.743,92.242-99.703c0.248-0.018,6.832-0.296,7.72-0.297c0.013,0,0.026,0,0.038,0c110.46,0,200,89.54,200,200
		C416.5,326.094,328.354,415.078,219.09,416.467z"/>
</g>
<g>
</g>
<g>
</g>
<g>
</g>
<g>
</g>
<g>
</g>
<g>
</g>
<g>
</g>
<g>
</g>
<g>
</g>
<g>
</g>
<g>
</g>
<g>
</g>
<g>
</g>
<g>
</g>
<g>
</g>
</svg>
