<svg id="Layer_1" enable-background="new 0 0 256 256" height="512" viewBox="0 0 256 256" width="512" xmlns="http://www.w3.org/2000/svg"><path d="m238.739 186.056c-.072-.241-.147-.5-.22-.748-5.951.357-13.922 1.128-22.251 2.775.376-.521.742-1.052 1.09-1.603l4.613-7.305c9.203-14.574 4.85-33.849-9.724-43.052l-20.656-13.045c-6.838-4.318-14.71-5.648-22.092-4.34-3.642.645-7.252-1.378-8.607-4.819-2.344-5.953-6.531-11.24-12.355-14.918l-20.657-13.044c-7.722-4.877-16.763-5.942-24.927-3.701-2.087.573-4.23-.627-4.833-2.706-2.05-7.063-6.587-13.434-13.294-17.67l-20.657-13.044c-14.574-9.203-33.849-4.85-43.052 9.724l-4.613 7.305c-.347.55-.669 1.108-.977 1.671-2.178-8.563-5.047-16.371-7.329-21.95 0 0 3.789 19.244 4.086 30.848-.462 2.321-.66 4.67-.59 7.001v.001c.3 10.024 5.417 19.723 14.534 25.481l20.656 13.045c5.495 3.47 11.658 5.011 17.698 4.803 6.179-.213 11.851 2.963 14.905 8.339 2.45 4.312 5.965 8.101 10.452 10.935l20.656 13.045c5.495 3.47 11.658 5.011 17.698 4.803 6.179-.213 11.851 2.963 14.905 8.339 2.45 4.312 5.965 8.101 10.452 10.935l20.656 13.045c7.535 4.758 16.325 5.884 24.332 3.856l-.395.626c13.76-5.801 28.337-8.775 37.711-10.22 1.924-.299 3.344-2.547 2.785-4.412z" fill="#6bdddd"/><path d="m190.87 203.037c-6.186 0-12.25-1.744-17.632-5.143l-20.656-13.044c-4.604-2.907-8.45-6.932-11.123-11.638-2.674-4.706-7.708-7.517-13.097-7.328-6.669.228-13.178-1.539-18.834-5.111l-20.656-13.045c-4.603-2.906-8.449-6.931-11.123-11.638-2.673-4.705-7.681-7.508-13.098-7.328-6.667.229-13.176-1.538-18.834-5.111l-20.657-13.044c-9.352-5.905-15.134-16.041-15.466-27.112-.072-2.403.125-4.834.584-7.229-.33-11.325-4.005-30.105-4.043-30.295-.199-1.01.402-2.006 1.388-2.302.984-.3 2.036.205 2.425 1.159 1.766 4.318 4.14 10.607 6.191 17.708l3.187-5.045c9.777-15.482 30.328-20.124 45.811-10.347l20.656 13.045c6.861 4.332 11.885 11.01 14.147 18.803.299 1.033 1.343 1.621 2.382 1.334 8.988-2.466 18.656-1.03 26.525 3.939l20.656 13.044c6.005 3.792 10.552 9.282 13.148 15.876 1.006 2.555 3.701 4.061 6.398 3.582 8.151-1.445 16.503.194 23.508 4.619l20.657 13.044c15.481 9.778 20.123 30.329 10.347 45.811l-3.188 5.048c7.016-1.153 13.446-1.711 17.924-1.979.938-.062 1.774.537 2.038 1.43l.218.738c0 .001.001.001.001.002.433 1.444.182 3.061-.687 4.436s-2.221 2.295-3.71 2.525c-9.576 1.476-23.81 4.424-37.238 10.085-.59.249-1.242.196-1.773-.108-2.124.415-4.257.619-6.376.619zm-62.001-41.162c6.65 0 12.763 3.543 16.069 9.36 2.349 4.137 5.73 7.675 9.78 10.232l20.656 13.044c6.834 4.315 14.923 5.597 22.772 3.608.348-.087.704-.08 1.035.014 13.287-5.36 27.074-8.198 36.468-9.646.335-.052.694-.323.938-.708.072-.114.131-.234.176-.354-5.257.372-12.522 1.119-20.107 2.618-.8.162-1.627-.189-2.07-.881-.444-.691-.42-1.584.061-2.25.352-.489.696-.986 1.021-1.501l4.613-7.305c8.6-13.618 4.518-31.693-9.101-40.293l-20.656-13.044c-6.16-3.89-13.501-5.334-20.675-4.062-4.566.811-9.116-1.737-10.817-6.055-2.283-5.798-6.281-10.625-11.563-13.96l-20.656-13.044c-6.922-4.371-15.426-5.634-23.33-3.463-3.119.854-6.383-.974-7.283-4.077-1.989-6.854-6.408-12.727-12.441-16.537l-20.657-13.045c-13.618-8.6-31.693-4.518-40.293 9.101l-4.613 7.305c-.325.515-.626 1.038-.915 1.564-.395.72-1.19 1.126-2.005 1.022-.686-.087-1.269-.52-1.557-1.129.293 2.822.503 5.563.565 7.993.003.148-.009.296-.038.441-.432 2.171-.618 4.375-.553 6.551.292 9.74 5.378 18.656 13.604 23.851l20.656 13.045c4.976 3.143 10.704 4.694 16.561 4.495 6.898-.238 13.302 3.346 16.713 9.35 2.35 4.137 5.732 7.675 9.781 10.232l20.656 13.045c4.976 3.142 10.709 4.704 16.561 4.495.214-.008.43-.012.644-.012z" fill="#3762cc"/><path d="m238.519 185.308c-2.209-7.477-4.896-18.276-6.156-29.93.611-10.946-4.568-21.887-14.495-28.156l-20.656-13.045c-6.838-4.318-14.71-5.648-22.092-4.34-3.642.645-7.252-1.378-8.607-4.819-2.344-5.953-6.531-11.24-12.355-14.918l-20.656-13.045c-7.722-4.877-16.763-5.942-24.927-3.701-2.087.573-4.23-.627-4.833-2.706-2.05-7.063-6.587-13.434-13.294-17.67l-20.658-13.043c-8.577-5.416-18.781-6.133-27.603-2.838-11.626 3.211-23.681 4.426-31.708 4.876-1.801.101-2.964 1.942-2.281 3.612 3.043 7.442 7.127 18.849 9.225 30.726.817 9.382 5.849 18.288 14.426 23.704l20.656 13.045c8.99 5.677 19.766 6.189 28.866 2.333 1.306 8.65 6.212 16.706 14.189 21.744l20.656 13.045c8.99 5.677 19.766 6.189 28.866 2.333 1.306 8.65 6.212 16.706 14.189 21.744l20.656 13.045c8.577 5.417 18.782 6.133 27.604 2.838 11.288-3.119 22.97-4.353 30.988-4.834z" fill="#6bdddd"/><path d="m151.854 127.554c-6.597 10.446-20.413 13.566-30.859 6.97l-13.352-8.432c-10.446-6.597-13.566-20.413-6.97-30.859 6.597-10.446 20.413-13.567 30.859-6.97l13.351 8.431c10.447 6.598 13.568 20.414 6.971 30.86z" fill="#ffea92"/><path d="m88.143 90.432c-6.597 10.446-20.413 13.566-30.859 6.97l-13.351-8.432c-10.446-6.597-13.566-20.412-6.97-30.858 6.597-10.446 20.413-13.566 30.859-6.97l13.351 8.431c10.446 6.597 13.567 20.413 6.97 30.859z" fill="#ffea92"/><path d="m215.565 164.675c-6.597 10.446-20.413 13.566-30.859 6.97l-13.352-8.432c-10.446-6.597-13.566-20.412-6.97-30.858 6.597-10.446 20.413-13.566 30.859-6.97l13.351 8.431c10.447 6.597 13.568 20.413 6.971 30.859z" fill="#ffea92"/><g fill="#3762cc"><path d="m196.529 194.146c-6.166 0-12.265-1.739-17.67-5.152l-20.657-13.045c-7.457-4.709-12.697-12.167-14.641-20.717-9.458 3.208-19.913 2.008-28.413-3.359l-20.657-13.045c-7.457-4.709-12.698-12.167-14.642-20.717-9.458 3.209-19.912 2.01-28.413-3.359l-20.657-13.045c-8.821-5.57-14.409-14.727-15.342-25.131-2.072-11.679-6.086-22.883-9.092-30.233-.565-1.381-.427-2.958.369-4.219s2.161-2.063 3.651-2.147c7.927-.444 19.767-1.635 31.205-4.784 9.797-3.628 20.466-2.519 29.286 3.052l20.657 13.045c6.861 4.333 11.885 11.011 14.147 18.803.299 1.033 1.346 1.621 2.382 1.334 8.988-2.467 18.655-1.031 26.525 3.939l20.656 13.045c6.005 3.792 10.552 9.282 13.148 15.875 1.005 2.553 3.686 4.057 6.398 3.583 8.156-1.446 16.503.194 23.508 4.618l20.656 13.044c10.14 6.403 16.041 17.807 15.433 29.792 1.273 11.647 4 22.419 6.067 29.418.173.585.069 1.216-.28 1.715-.351.5-.909.812-1.518.848-7.747.464-19.317 1.665-30.492 4.741-3.79 1.406-7.715 2.101-11.614 2.101zm-51.447-43.632c.338 0 .674.085.977.254.539.302.909.836 1.001 1.447 1.269 8.405 6.108 15.823 13.279 20.352l20.656 13.045c7.781 4.912 17.197 5.88 25.836 2.655.056-.021.111-.039.168-.054 10.387-2.869 21.076-4.158 28.91-4.735-2.006-7.137-4.373-17.144-5.534-27.885-.012-.108-.015-.217-.009-.326.592-10.597-4.605-20.695-13.565-26.354l-20.656-13.044c-6.162-3.891-13.505-5.333-20.674-4.062-4.564.81-9.117-1.737-10.819-6.056-2.282-5.797-6.28-10.625-11.562-13.959l-20.657-13.045c-6.921-4.371-15.424-5.634-23.329-3.463-3.112.854-6.382-.973-7.283-4.077-1.989-6.853-6.408-12.726-12.441-16.536l-20.658-13.046c-7.781-4.914-17.198-5.881-25.835-2.655-.055.021-.111.039-.167.054-11.805 3.26-23.987 4.489-32.128 4.946-.28.016-.429.188-.493.289s-.155.31-.049.569c3.087 7.548 7.214 19.078 9.344 31.136.01.058.018.116.023.174.8 9.186 5.721 17.273 13.501 22.186l20.657 13.045c8.089 5.108 18.189 5.924 27.017 2.182.568-.241 1.217-.206 1.757.096.539.302.909.836 1.001 1.447 1.27 8.406 6.109 15.824 13.279 20.352l20.657 13.045c8.088 5.107 18.187 5.923 27.018 2.182.248-.106.513-.159.778-.159z"/><path d="m132.9 139.973c-4.447 0-8.943-1.213-12.973-3.758l-13.352-8.432c-11.362-7.175-14.768-22.256-7.593-33.618 7.175-11.361 22.257-14.768 33.618-7.593l13.352 8.431c11.361 7.175 14.768 22.256 7.593 33.618-4.631 7.333-12.554 11.352-20.645 11.352zm-13.278-53.16c-6.764 0-13.386 3.359-17.257 9.488-5.997 9.497-3.15 22.103 6.347 28.1l13.352 8.432c9.498 5.998 22.103 3.15 28.099-6.347 5.998-9.497 3.15-22.103-6.347-28.101l-13.351-8.431c-3.367-2.126-7.127-3.141-10.843-3.141zm32.232 40.741h.01z"/><path d="m69.189 102.852c-4.446 0-8.943-1.213-12.973-3.758l-13.352-8.432c-5.504-3.476-9.325-8.887-10.759-15.236-1.434-6.35-.31-12.877 3.166-18.381 7.175-11.362 22.255-14.769 33.618-7.593l13.352 8.432c11.362 7.175 14.768 22.256 7.593 33.618-4.63 7.331-12.554 11.35-20.645 11.35zm-13.279-53.16c-6.763 0-13.385 3.359-17.256 9.488-5.997 9.497-3.15 22.103 6.347 28.1l13.352 8.432c9.496 5.997 22.102 3.15 28.1-6.347 5.997-9.497 3.15-22.103-6.347-28.1l-13.352-8.432c-3.368-2.126-7.128-3.141-10.844-3.141zm32.233 40.741h.01z"/><path d="m196.611 177.094c-4.446 0-8.943-1.213-12.974-3.758l-13.352-8.432c-11.361-7.175-14.767-22.256-7.593-33.617 7.176-11.363 22.258-14.768 33.618-7.593l13.352 8.431c11.362 7.176 14.769 22.256 7.594 33.618l-1.691-1.068 1.69 1.068c-4.63 7.332-12.553 11.351-20.644 11.351zm-13.278-53.159c-6.764 0-13.387 3.359-17.257 9.488-5.997 9.497-3.15 22.102 6.347 28.1l13.352 8.432c4.601 2.905 10.054 3.846 15.364 2.646 5.307-1.199 9.829-4.393 12.734-8.993 2.906-4.601 3.846-10.057 2.647-15.364s-4.393-9.83-8.993-12.736l-13.351-8.431c-3.367-2.127-7.127-3.142-10.843-3.142z"/></g><path d="m177.222 190.695c0-16.563 13.427-29.99 29.99-29.99h10.798c16.563 0 29.99 13.427 29.99 29.99 0 12.329-9.995 22.324-22.324 22.324h-26.13c-12.33 0-22.325-9.995-22.324-22.324z" fill="#ffea92"/><path d="m225.302 176.319c-.277 0-.558-.037-.838-.113-11.706-3.204-24.409-.019-24.536.013-1.698.434-3.42-.588-3.854-2.282s.588-3.419 2.281-3.854c.585-.149 14.478-3.627 27.781.013 1.686.462 2.68 2.203 2.218 3.89-.385 1.409-1.66 2.333-3.052 2.333z" fill="#eaa97d"/><path d="m225.676 215.019h-26.13c-13.412 0-24.324-10.912-24.324-24.324 0-17.64 14.351-31.991 31.99-31.991h10.798c17.64 0 31.99 14.351 31.99 31.991 0 13.412-10.912 24.324-24.324 24.324zm-18.464-52.315c-15.434 0-27.99 12.557-27.99 27.991 0 11.207 9.117 20.324 20.324 20.324h26.13c11.207 0 20.324-9.117 20.324-20.324 0-15.434-12.557-27.991-27.99-27.991z" fill="#3762cc"/><path d="m64.586 190.695c0-16.563 13.427-29.99 29.99-29.99h10.798c16.563 0 29.99 13.427 29.99 29.99 0 12.329-9.995 22.324-22.324 22.324h-26.13c-12.329 0-22.324-9.995-22.324-22.324z" fill="#ffea92"/><path d="m112.666 176.319c-.277 0-.558-.037-.838-.113-11.703-3.204-24.409-.019-24.535.013-1.695.434-3.419-.588-3.854-2.282-.434-1.694.588-3.419 2.282-3.854.584-.149 14.474-3.628 27.779.013 1.687.462 2.68 2.203 2.218 3.89-.385 1.409-1.66 2.333-3.052 2.333z" fill="#eaa97d"/><path d="m113.041 215.019h-26.131c-13.413 0-24.324-10.912-24.324-24.324 0-8.545 3.328-16.579 9.37-22.621s14.076-9.37 22.62-9.37h.001 10.797c17.64 0 31.99 14.351 31.99 31.99 0 13.413-10.911 24.325-24.323 24.325zm-18.464-52.314c-7.477 0-14.506 2.911-19.792 8.198s-8.198 12.316-8.198 19.792c0 11.207 9.117 20.324 20.324 20.324h26.13c11.207 0 20.324-9.117 20.324-20.324 0-15.434-12.556-27.99-27.99-27.99z" fill="#3762cc"/><path d="m117.584 198.563c0-16.563 13.427-29.99 29.99-29.99h10.798c16.563 0 29.99 13.427 29.99 29.99 0 12.329-9.995 22.324-22.324 22.324h-26.13c-12.33.001-22.324-9.994-22.324-22.324z" fill="#ffea92"/><path d="m165.664 184.188c-.277 0-.559-.037-.838-.113-11.703-3.204-24.407-.019-24.535.013-1.7.435-3.419-.588-3.854-2.282-.434-1.694.588-3.419 2.281-3.854.584-.149 14.474-3.629 27.78.013 1.687.462 2.68 2.203 2.218 3.89-.385 1.409-1.66 2.333-3.052 2.333z" fill="#eaa97d"/><path d="m166.038 222.888h-26.131c-13.412 0-24.324-10.912-24.324-24.324 0-17.64 14.351-31.99 31.991-31.99h10.798c17.64 0 31.99 14.351 31.99 31.99 0 13.412-10.912 24.324-24.324 24.324zm-18.464-52.315c-15.435 0-27.991 12.556-27.991 27.99 0 11.207 9.117 20.324 20.324 20.324h26.131c11.207 0 20.324-9.117 20.324-20.324 0-15.434-12.557-27.99-27.99-27.99z" fill="#3762cc"/><path d="m77.15 75.508c-.232-.151-.447-.336-.64-.553-8.045-9.083-20.424-13.367-20.547-13.408-1.656-.564-2.541-2.362-1.978-4.018s2.362-2.541 4.018-1.978c.571.194 14.101 4.879 23.248 15.205 1.16 1.309 1.039 3.31-.271 4.47-1.091.967-2.664 1.043-3.83.282z" fill="#eaa97d"/><path d="m141.556 111.583c-.232-.151-.447-.336-.64-.553-8.045-9.083-20.424-13.367-20.547-13.408-1.656-.564-2.541-2.362-1.978-4.018s2.362-2.541 4.018-1.978c.571.194 14.101 4.879 23.248 15.205 1.16 1.309 1.039 3.31-.271 4.47-1.092.967-2.665 1.043-3.83.282z" fill="#eaa97d"/><path d="m205.193 147.862c-.232-.151-.447-.336-.64-.553-8.045-9.083-20.424-13.367-20.547-13.408-1.656-.564-2.541-2.362-1.978-4.018s2.362-2.541 4.018-1.978c.571.194 14.101 4.879 23.248 15.205 1.16 1.309 1.039 3.31-.271 4.47-1.091.967-2.665 1.043-3.83.282z" fill="#eaa97d"/></svg>