<svg id="Capa_1" enable-background="new 0 0 512 512" height="512" viewBox="0 0 512 512" width="512" xmlns="http://www.w3.org/2000/svg"><g><g fill="#ffe09f"><path d="m354.321 356.325c-4.525 0-8.193 3.668-8.193 8.193v6.397c0 4.348-3.368 7.966-7.711 8.165-12.216.56-28.889 3.64-44.471 14.264-23.391 15.948-36.646 41.038-36.875 69.496 28.457-.229 55.299-10.108 75.317-30.127 20.019-20.019 30.127-43.614 30.127-60.001v-8.193c0-4.526-3.669-8.194-8.194-8.194z"/><path d="m218.054 393.344c-15.582-10.624-32.255-13.704-44.471-14.264-4.344-.199-7.711-3.817-7.711-8.165l-10.872 1.085c0 16.387 10.981 36.314 31 56.333 20.018 20.018 40.014 25.824 68.471 26.053-2.53-24.944-15.371-46.693-36.417-61.042z"/><path d="m346.128 266.197c-4.525 0-8.193 3.668-8.193 8.193v4.581c0 4.324-3.29 8.038-7.604 8.323-11.094.732-25.662 3.774-39.303 13.074-21.592 14.722-33.828 37.881-34.039 64.15 26.268-.211 50.468-7.872 69.424-25.861 22.859-21.693 27.909-41.394 27.909-56.074v-8.193c-.001-4.525-3.669-8.193-8.194-8.193z"/><path d="m220.973 300.368c-13.641-9.301-28.209-12.342-39.303-13.074-4.314-.285-7.604-4-7.604-8.323l-9.566.696c0 14.68 2.141 34.141 25 55.833 18.956 17.988 36.482 23.789 62.75 24l1.949-5.993c-3.071-21.679-14.707-40.512-33.226-53.139z"/><path d="m337.934 176.069c-4.525 0-8.193 3.668-8.193 8.193v7.933c-16.103 1.25-31.59 6.979-44.377 17.077-17.091 13.497-27.047 33.116-29.776 54.836 21.761 2.38 43.154-2.759 60.244-16.256s27.567-33.677 30.295-55.398v-8.193c.001-4.524-3.667-8.192-8.193-8.192z"/><path d="m226.636 209.273c-12.787-10.098-28.274-15.827-44.377-17.077l-10.242.26c2.728 21.72 10.563 38.48 27.653 51.977s55.918 19.676 56.741 19.676c-2.728-21.72-12.685-41.339-29.775-54.836z"/><path d="m328.916 87.289c-4.525 0-8.193 3.669-8.193 8.193-15.66 2.965-30.824 11.108-42.307 22.592-15.398 15.399-22.24 36.627-22.415 58.518 21.89-.176 42.537-7.775 57.935-23.174 15.399-15.399 22.999-36.046 23.175-57.936-.001-4.524-3.67-8.193-8.195-8.193z"/><path d="m233.585 118.075c-11.484-11.483-26.648-19.627-42.307-22.592l-11.778 1.017c.176 21.89 19.101 48.351 34.5 63.75l41.389 5.844c-1.989-18.075-8.885-35.099-21.804-48.019z"/></g><path d="m256 512c-4.529 0-8.193-3.669-8.193-8.193v-417.866c0-4.525 3.665-8.193 8.193-8.193 4.529 0 8.193 3.669 8.193 8.193v417.865c0 4.525-3.664 8.194-8.193 8.194z" fill="#f6d190"/><path d="m231.42 53.167c0 18.527 6.678 35.749 18.125 50.085 3.283 4.111 9.627 4.111 12.91 0 11.448-14.336 18.125-31.557 18.125-50.085s-6.678-35.749-18.125-50.085c-3.283-4.111-9.627-4.111-12.91 0-11.448 14.337-18.125 31.558-18.125 50.085z" fill="#ffe09f"/><path d="m254.929 462.839c-.046-5.66-.747-11.136-1.801-16.484-24.589-.629-45.986-9.287-61.929-25.229-17.496-17.497-25.327-36.923-25.327-48.414v-8.193c0-4.525-3.668-8.193-8.193-8.193s-8.193 3.668-8.193 8.193v8.193c0 16.387 10.108 39.982 30.127 60.001 20.018 20.018 46.859 29.897 75.316 30.126z" fill="#f6d190"/><path d="m255.012 364.518c-.046-5.668-.758-11.153-1.897-16.479-23-.58-41.94-7.691-56.247-21.268-15.343-14.561-22.802-29.015-22.802-44.187v-8.193c0-4.525-3.668-8.193-8.193-8.193s-8.193 3.668-8.193 8.193v8.193c0 14.68 5.05 34.381 27.909 56.074 18.954 17.988 43.155 25.649 69.423 25.86z" fill="#f6d190"/><path d="m246.211 248.284c-15.085 0-28.878-4.596-39.888-13.291-12.34-9.746-20.738-24.079-23.714-40.649-.27-1.506-.375-3.049-.373-4.579.002-2.338.023-5.503.023-5.503 0-4.525-3.668-8.193-8.193-8.193s-8.193 3.668-8.193 8.193v.001c0 6.805.59 13.639 2.345 20.214 4.545 17.032 14.065 32.41 27.951 43.376 17.09 13.497 38.483 18.636 60.244 16.256-.699-5.56-1.886-10.976-3.53-16.193-2.237.194-4.479.368-6.672.368z" fill="#f6d190"/><path d="m209.652 141.831c-11.849-11.849-18.375-28.309-18.375-46.349 0-4.525-3.668-8.193-8.193-8.193s-8.193 3.669-8.193 8.193c.176 21.89 7.776 42.537 23.175 57.936 15.398 15.398 36.045 22.998 57.935 23.174-.045-5.552-.528-11.059-1.461-16.442-17.86-.493-33.36-6.79-44.888-18.319z" fill="#f6d190"/></g></svg>